<svg width="32" height="36" viewBox="0 0 32 36" fill="none" xmlns="http://www.w3.org/2000/svg">
<path d="M31.066 26.393C30.4365 27.9015 29.6636 29.3461 28.758 30.707C27.258 32.991 25.139 35.842 22.523 35.86C20.194 35.881 19.593 34.341 16.43 34.368C13.267 34.395 12.612 35.89 10.28 35.868C7.66103 35.844 5.65803 33.276 4.15703 30.996C-0.0419741 24.593 -0.485974 17.1 2.10903 13.113C2.89191 11.8114 3.98196 10.7216 5.28373 9.93896C6.5855 9.15637 8.05928 8.70486 9.57603 8.62397C12.355 8.62397 14.101 10.15 16.397 10.15C18.626 10.15 19.983 8.62097 23.197 8.62097C24.5312 8.6824 25.8354 9.03753 27.0165 9.66103C28.1977 10.2845 29.2266 11.161 30.03 12.228C28.723 12.9515 27.6506 14.0343 26.9395 15.3481C26.2284 16.6619 25.9084 18.1519 26.0174 19.6418C26.1264 21.1318 26.6597 22.5593 27.5544 23.7557C28.4491 24.9521 29.6677 25.8673 31.066 26.393ZM20.756 6.06897C21.4143 5.26971 21.9067 4.34726 22.2045 3.35552C22.5022 2.36379 22.5993 1.32265 22.49 0.292969C20.3732 0.545203 18.4305 1.58997 17.053 3.21697C16.3775 3.97848 15.8699 4.87375 15.5634 5.84447C15.2569 6.8152 15.1583 7.8396 15.274 8.85097C16.338 8.82841 17.3832 8.56662 18.3322 8.08502C19.2812 7.60343 20.1096 6.91438 20.756 6.06897Z" fill="black"/>
</svg>
