<svg width="305" height="308" viewBox="0 0 305 308" fill="none" xmlns="http://www.w3.org/2000/svg">
<mask id="mask0_106_3517" style="mask-type:luminance" maskUnits="userSpaceOnUse" x="0" y="0" width="305" height="308">
<path d="M305 0H0V308H305V0Z" fill="white"/>
</mask>
<g mask="url(#mask0_106_3517)">
<path opacity="0.05" d="M-577.736 245.374C-501.82 217.497 -445.019 178.674 -285.399 231.158C-129.374 286.522 -81.9189 324.629 91.3611 289.398C164.832 274.46 246.039 225.857 275.427 168.605C294.208 132.015 301.302 72.8241 275.427 41.8701C246.773 7.59206 205.313 -8.16094 145.287 22.6461C75.7131 57.3841 74.151 112.751 -102.771 70.1C-279.693 27.449 -308.415 -60.365 -549.302 0.527042C-790.189 61.419 -760.979 174.289 -760.979 174.289C-760.979 174.289 -740.441 316.459 -577.736 245.374Z" fill="#098AD3"/>
</g>
</svg>
