<svg width="305" height="289" viewBox="0 0 305 289" fill="none" xmlns="http://www.w3.org/2000/svg">
<mask id="mask0_106_3291" style="mask-type:luminance" maskUnits="userSpaceOnUse" x="0" y="0" width="305" height="289">
<path d="M305 0H0V289H305V0Z" fill="white"/>
</mask>
<g mask="url(#mask0_106_3291)">
<path opacity="0.05" d="M193.55 265.374C269.466 237.497 326.267 198.674 485.887 251.158C641.912 306.522 689.367 344.629 862.647 309.398C936.118 294.46 1017.33 245.857 1046.71 188.605C1086.42 111.248 1036.18 16.2361 916.573 42.6461C836.344 65.5521 845.437 132.751 668.515 90.1001C491.593 47.4491 468.415 -39.4999 221.984 20.5271C-24.4468 80.5541 10.3091 194.29 10.3091 194.29C10.3091 194.29 30.8451 336.459 193.55 265.374Z" fill="#098AD3"/>
</g>
</svg>
