<svg width="375" height="339" viewBox="0 0 375 339" fill="none" xmlns="http://www.w3.org/2000/svg">
<mask id="mask0_106_3404" style="mask-type:luminance" maskUnits="userSpaceOnUse" x="0" y="0" width="375" height="339">
<path d="M375 0H0V339H375V0Z" fill="white"/>
</mask>
<g mask="url(#mask0_106_3404)">
<path opacity="0.05" d="M-153.167 276.374C-77.251 248.497 -20.4498 209.674 139.17 262.158C295.195 317.522 342.65 355.629 515.93 320.398C589.401 305.46 670.608 256.857 699.996 199.605C739.703 122.248 687.054 27.7621 569.856 53.6461C492.203 68.7461 498.72 143.751 321.798 101.1C144.876 58.4491 121.698 -28.4999 -124.733 31.5271C-371.164 91.5541 -336.408 205.29 -336.408 205.29C-336.408 205.29 -315.872 347.459 -153.167 276.374Z" fill="#098AD3"/>
</g>
</svg>
