<svg width="141" height="141" viewBox="0 0 141 141" fill="none" xmlns="http://www.w3.org/2000/svg">
<path opacity="0.1" d="M70.5 141C109.436 141 141 109.436 141 70.5C141 31.5639 109.436 0 70.5 0C31.5639 0 0 31.5639 0 70.5C0 109.436 31.5639 141 70.5 141Z" fill="#098AD3"/>
<path d="M88 24H53C49.134 24 46 27.134 46 31V109C46 112.866 49.134 116 53 116H88C91.866 116 95 112.866 95 109V31C95 27.134 91.866 24 88 24Z" fill="white"/>
<path d="M88 114H53C51.6744 113.998 50.4036 113.471 49.4662 112.534C48.5289 111.596 48.0016 110.326 48 109V31C48.0016 29.6744 48.5289 28.4036 49.4662 27.4662C50.4036 26.5289 51.6744 26.0016 53 26H60.553V28.957C60.553 29.2222 60.6584 29.4766 60.8459 29.6641C61.0334 29.8516 61.2878 29.957 61.553 29.957H79.446C79.7112 29.957 79.9656 29.8516 80.1531 29.6641C80.3406 29.4766 80.446 29.2222 80.446 28.957V26H88C89.3256 26.0016 90.5964 26.5289 91.5338 27.4662C92.4711 28.4036 92.9984 29.6744 93 31V109C92.9984 110.326 92.4711 111.596 91.5338 112.534C90.5964 113.471 89.3256 113.998 88 114Z" fill="url(#paint0_linear_106_1182)"/>
<path d="M78.5 109H63.5C63.2239 109 63 109.224 63 109.5C63 109.776 63.2239 110 63.5 110H78.5C78.7761 110 79 109.776 79 109.5C79 109.224 78.7761 109 78.5 109Z" fill="white"/>
<g filter="url(#filter0_d_106_1182)">
<path d="M46.5 87C55.0604 87 62 80.0604 62 71.5C62 62.9396 55.0604 56 46.5 56C37.9396 56 31 62.9396 31 71.5C31 80.0604 37.9396 87 46.5 87Z" fill="#00BF54"/>
</g>
<path d="M51.2429 68.338H50.4519V66.757C50.4519 65.7086 50.0355 64.7031 49.2941 63.9618C48.5528 63.2204 47.5473 62.804 46.4989 62.804C45.4505 62.804 44.4451 63.2204 43.7037 63.9618C42.9624 64.7031 42.5459 65.7086 42.5459 66.757V68.338H41.7559C41.337 68.3393 40.9357 68.5063 40.6394 68.8025C40.3432 69.0987 40.1762 69.5001 40.1749 69.919V77.825C40.1768 78.2435 40.344 78.6444 40.6402 78.9401C40.9363 79.2359 41.3374 79.4026 41.7559 79.404H51.2429C51.6618 79.4026 52.0632 79.2356 52.3594 78.9394C52.6556 78.6432 52.8226 78.2419 52.8239 77.823V69.919C52.8226 69.5001 52.6556 69.0987 52.3594 68.8025C52.0632 68.5063 51.6618 68.3393 51.2429 68.338ZM46.4999 75.453C46.1872 75.453 45.8816 75.3602 45.6216 75.1865C45.3616 75.0128 45.1589 74.7659 45.0393 74.477C44.9196 74.1881 44.8883 73.8702 44.9493 73.5635C45.0103 73.2568 45.1609 72.9751 45.382 72.754C45.6031 72.5329 45.8848 72.3823 46.1915 72.3213C46.4982 72.2603 46.8161 72.2916 47.1049 72.4113C47.3938 72.531 47.6408 72.7336 47.8145 72.9936C47.9882 73.2536 48.0809 73.5593 48.0809 73.872C48.0796 74.2909 47.9126 74.6922 47.6164 74.9884C47.3202 75.2846 46.9188 75.4516 46.4999 75.453ZM44.1279 68.338V66.757C44.1407 66.1364 44.3961 65.5456 44.8395 65.1113C45.2828 64.6769 45.8788 64.4337 46.4994 64.4337C47.1201 64.4337 47.716 64.6769 48.1594 65.1113C48.6027 65.5456 48.8582 66.1364 48.8709 66.757V68.338H44.1279Z" fill="white"/>
<g filter="url(#filter1_d_106_1182)">
<path d="M110 33C110 24.7157 103.284 18 95 18C86.7157 18 80 24.7157 80 33C80 41.2843 86.7157 48 95 48C103.284 48 110 41.2843 110 33Z" fill="#FFC53E"/>
</g>
<path d="M94.004 38.2149C94.3515 37.9116 94.7972 37.7445 95.2585 37.7445C95.7198 37.7445 96.1654 37.9116 96.513 38.2149C96.8163 38.5624 96.9834 39.0081 96.9834 39.4694C96.9834 39.9307 96.8163 40.3763 96.513 40.7239C96.1654 41.0272 95.7198 41.1943 95.2585 41.1943C94.7972 41.1943 94.3515 41.0272 94.004 40.7239C93.7007 40.3763 93.5336 39.9307 93.5336 39.4694C93.5336 39.0081 93.7007 38.5624 94.004 38.2149ZM96.024 25.7219C94.8318 25.5405 93.6141 25.7944 92.5937 26.4371C91.5733 27.0798 90.8184 28.0683 90.467 29.2219C90.4152 29.3921 90.4041 29.5721 90.4345 29.7473C90.4649 29.9226 90.536 30.0883 90.6421 30.2311C90.7483 30.3739 90.8864 30.4898 91.0455 30.5695C91.2045 30.6492 91.3801 30.6904 91.558 30.6899H91.809C92.0563 30.6796 92.2946 30.5935 92.4913 30.4432C92.6881 30.293 92.8339 30.0858 92.909 29.8499C93.1145 29.2787 93.52 28.8013 94.0504 28.506C94.5808 28.2107 95.2002 28.1176 95.794 28.2439C96.3814 28.3778 96.9021 28.7163 97.2628 29.1988C97.6235 29.6814 97.8008 30.2766 97.763 30.8779C97.638 32.5589 95.731 32.9229 94.69 34.4899C94.69 34.5029 94.677 34.5029 94.677 34.5149C94.677 34.5269 94.652 34.5529 94.639 34.5779C94.5169 34.7777 94.4119 34.9875 94.325 35.2049C94.312 35.2429 94.287 35.2679 94.275 35.3049C94.265 35.3337 94.2566 35.3631 94.25 35.3929C94.0773 35.8974 93.9924 36.4277 93.999 36.9609H96.508C96.5045 36.4904 96.6256 36.0274 96.859 35.6189C96.884 35.5809 96.897 35.5439 96.922 35.5059C97.0258 35.3328 97.1446 35.1692 97.277 35.0169C97.29 35.0039 97.302 34.9789 97.315 34.9669C97.4432 34.8157 97.5816 34.6734 97.729 34.5409C98.929 33.3999 100.564 32.4709 100.229 30.0759C100.083 28.9969 99.5965 27.9928 98.8402 27.2096C98.0838 26.4265 97.0972 25.9052 96.024 25.7219Z" fill="#FEFEFE"/>
<defs>
<filter id="filter0_d_106_1182" x="25" y="53" width="43" height="43" filterUnits="userSpaceOnUse" color-interpolation-filters="sRGB">
<feFlood flood-opacity="0" result="BackgroundImageFix"/>
<feColorMatrix in="SourceAlpha" type="matrix" values="0 0 0 0 0 0 0 0 0 0 0 0 0 0 0 0 0 0 127 0" result="hardAlpha"/>
<feOffset dy="3"/>
<feGaussianBlur stdDeviation="3"/>
<feColorMatrix type="matrix" values="0 0 0 0 0 0 0 0 0 0.74902 0 0 0 0 0.564706 0 0 0 0.302 0"/>
<feBlend mode="normal" in2="BackgroundImageFix" result="effect1_dropShadow_106_1182"/>
<feBlend mode="normal" in="SourceGraphic" in2="effect1_dropShadow_106_1182" result="shape"/>
</filter>
<filter id="filter1_d_106_1182" x="74" y="13" width="42" height="42" filterUnits="userSpaceOnUse" color-interpolation-filters="sRGB">
<feFlood flood-opacity="0" result="BackgroundImageFix"/>
<feColorMatrix in="SourceAlpha" type="matrix" values="0 0 0 0 0 0 0 0 0 0 0 0 0 0 0 0 0 0 127 0" result="hardAlpha"/>
<feOffset dy="1"/>
<feGaussianBlur stdDeviation="3"/>
<feColorMatrix type="matrix" values="0 0 0 0 0.960784 0 0 0 0 0.721569 0 0 0 0 0.164706 0 0 0 0.302 0"/>
<feBlend mode="normal" in2="BackgroundImageFix" result="effect1_dropShadow_106_1182"/>
<feBlend mode="normal" in="SourceGraphic" in2="effect1_dropShadow_106_1182" result="shape"/>
</filter>
<linearGradient id="paint0_linear_106_1182" x1="93" y1="114" x2="20.0474" y2="78.606" gradientUnits="userSpaceOnUse">
<stop stop-color="#098AD3"/>
<stop offset="0.536" stop-color="#05A396"/>
<stop offset="1" stop-color="#00BF54"/>
</linearGradient>
</defs>
</svg>
