<svg width="32" height="32" viewBox="0 0 33 34" fill="none" xmlns="http://www.w3.org/2000/svg">
<path d="M32.561 13.839H31.261V13.772H16.735V20.228H25.857C25.1671 22.1876 23.8657 23.8737 22.1448 25.0376C20.4239 26.2015 18.3745 26.7816 16.2989 26.6924C14.2233 26.6032 12.2312 25.8493 10.6165 24.5421C9.00184 23.2348 7.84994 21.4433 7.33069 19.4317C6.81145 17.4201 6.95233 15.2948 7.73257 13.3694C8.51281 11.4439 9.89112 9.82014 11.6642 8.73745C13.4374 7.65477 15.5115 7.1705 17.5807 7.35605C19.65 7.5416 21.6048 8.38715 23.157 9.76802L27.722 5.20302C25.0072 2.68107 21.5066 1.17116 17.8091 0.927303C14.1117 0.683449 10.4431 1.72054 7.42057 3.8641C4.39804 6.00765 2.20604 9.12684 1.21338 12.6969C0.220714 16.2669 0.487966 20.0699 1.97017 23.466C3.45237 26.8621 6.05906 29.6441 9.35168 31.3439C12.6443 33.0436 16.4219 33.5574 20.0489 32.7989C23.6759 32.0403 26.9309 30.0556 29.2664 27.1788C31.6018 24.3019 32.8751 20.7085 32.872 17.003C32.872 15.9407 32.7679 14.881 32.561 13.839Z" fill="#FFC107"/>
<path d="M2.45495 9.48704L7.75495 13.376C8.33361 11.9368 9.2502 10.658 10.4273 9.64763C11.6043 8.63728 13.0073 7.9251 14.5176 7.57126C16.0279 7.21741 17.6013 7.23229 19.1046 7.61465C20.608 7.99701 21.9972 8.73561 23.155 9.76804L27.7199 5.20304C25.9081 3.50859 23.7294 2.25548 21.3537 1.54141C18.9779 0.827345 16.4694 0.671606 14.0236 1.08634C11.5778 1.50107 9.2608 2.47507 7.25328 3.9324C5.24575 5.38973 3.60193 7.29102 2.44995 9.48804L2.45495 9.48704Z" fill="#FF3D00"/>
<path d="M16.7341 33.14C20.7375 33.1405 24.5969 31.6463 27.5561 28.95L22.5561 24.723C21.3467 25.6397 19.9384 26.2585 18.4452 26.5293C16.952 26.8001 15.416 26.7153 13.9617 26.2817C12.5074 25.8481 11.1758 25.078 10.0747 24.0337C8.97358 22.9894 8.13405 21.7003 7.62412 20.271L2.37012 24.326C3.71888 26.9767 5.77435 29.2029 8.30931 30.7584C10.8443 32.3139 13.76 33.1381 16.7341 33.14Z" fill="#4CAF50"/>
<path d="M32.5621 13.839H31.2621V13.772H16.7351V20.228H25.8571C25.2207 22.0184 24.0734 23.5829 22.5571 24.728L27.5571 28.955C29.2551 27.4662 30.61 25.6269 31.5283 23.5638C32.4466 21.5007 32.9064 19.263 32.8761 17.005C32.8752 15.9419 32.7701 14.8815 32.5621 13.839Z" fill="#1976D2"/>
</svg>
