<svg width="108" height="35" viewBox="0 0 108 35" fill="none" xmlns="http://www.w3.org/2000/svg">
<path d="M39.6399 15.7385H45.1879V10.0123H49.0299V24.8491H45.1879V18.7265H39.6399V24.8491H35.7969V10.0123H39.6399V15.7385Z" fill="#00BF54"/>
<path d="M60.6649 13.2794H56.0969V15.7586H60.4099V19.0246H56.0969V21.5831H60.6649V24.8491H52.2549V10.0123H60.6649V13.2794Z" fill="#00BF54"/>
<path d="M63.635 10.0123H69.32C70.2974 10.0061 71.2643 10.2144 72.153 10.6226C73.0173 11.0161 73.8017 11.5663 74.467 12.2456C75.1307 12.9269 75.6597 13.7283 76.026 14.6073C76.3995 15.4976 76.5928 16.4537 76.5945 17.4197C76.5962 18.3857 76.4063 19.3424 76.036 20.2341C75.6749 21.1163 75.1495 21.9212 74.488 22.6059C73.8239 23.2887 73.0384 23.8409 72.172 24.2339C71.2768 24.6438 70.303 24.8521 69.319 24.8441H63.634L63.635 10.0123ZM67.477 21.5831H68.359C68.9683 21.5934 69.5739 21.4865 70.143 21.2679C70.6395 21.0757 71.0903 20.7809 71.466 20.4027C71.8288 20.0306 72.1095 19.586 72.29 19.0979C72.484 18.5653 72.5803 18.0018 72.574 17.4348C72.5787 16.8702 72.4791 16.3097 72.28 15.7817C72.0977 15.2834 71.8109 14.8302 71.4389 14.4528C71.067 14.0755 70.6185 13.7828 70.124 13.5946C69.5615 13.3775 68.9627 13.2705 68.36 13.2794H67.478L67.477 21.5831Z" fill="#00BF54"/>
<path d="M87.0499 16.5455H94.6759C94.6785 17.2617 94.6451 17.9776 94.5759 18.6904C94.5178 19.301 94.3862 19.9022 94.1839 20.481C93.9266 21.2237 93.5488 21.9186 93.0659 22.5376C92.6042 23.1271 92.0451 23.6327 91.4129 24.0322C90.7658 24.4386 90.0626 24.747 89.3259 24.9475C88.5463 25.1598 87.7417 25.2655 86.9339 25.2617C85.8585 25.2755 84.7905 25.082 83.7879 24.6916C82.8722 24.3317 82.041 23.7849 81.3469 23.0857C80.6543 22.3769 80.1138 21.5331 79.7589 20.6065C79.3696 19.5862 79.1769 18.5011 79.1909 17.4087C79.1786 16.3238 79.3678 15.2462 79.7489 14.2309C80.0975 13.304 80.6388 12.4623 81.3369 11.7618C82.0457 11.0651 82.8899 10.5225 83.8169 10.1679C84.85 9.7758 85.9475 9.5824 87.0519 9.59782C88.4692 9.56663 89.8694 9.91295 91.1099 10.6015C92.3268 11.3303 93.2916 12.4163 93.8739 13.713L90.2269 15.2276C89.9715 14.5235 89.5104 13.9131 88.9039 13.4762C88.3522 13.1197 87.7079 12.935 87.0519 12.9452C86.5117 12.9378 85.9763 13.0484 85.4829 13.2694C85.0168 13.4826 84.6045 13.7986 84.2769 14.1938C83.9282 14.6228 83.6623 15.1133 83.4929 15.6401C83.2963 16.2501 83.2004 16.8881 83.2089 17.5291C83.2034 18.1219 83.2859 18.7122 83.4539 19.2806C83.6024 19.7914 83.8524 20.2666 84.1889 20.6778C84.518 21.0734 84.9343 21.3868 85.4049 21.5931C85.9377 21.8198 86.5123 21.9306 87.0909 21.9183C87.4613 21.9197 87.8306 21.8769 88.1909 21.7909C88.5301 21.7116 88.8523 21.5715 89.1419 21.3773C89.426 21.1856 89.6649 20.9338 89.8419 20.6396C90.0377 20.3 90.1641 19.9247 90.2139 19.5355H87.0579L87.0499 16.5455Z" fill="#00BF54"/>
<path d="M36.313 29.9219C36.3105 29.8773 36.3172 29.8327 36.3325 29.7908C36.3478 29.7489 36.3714 29.7106 36.402 29.6782C36.4325 29.6457 36.4694 29.6199 36.5102 29.6023C36.551 29.5846 36.595 29.5755 36.6395 29.5755C36.684 29.5755 36.728 29.5846 36.7688 29.6023C36.8096 29.6199 36.8465 29.6457 36.877 29.6782C36.9076 29.7106 36.9312 29.7489 36.9465 29.7908C36.9618 29.8327 36.9685 29.8773 36.966 29.9219V33.0575C36.9614 33.1413 36.925 33.2201 36.8642 33.2777C36.8035 33.3354 36.7231 33.3675 36.6395 33.3675C36.5559 33.3675 36.4755 33.3354 36.4148 33.2777C36.354 33.2201 36.3176 33.1413 36.313 33.0575V29.9219Z" fill="#1B404F"/>
<path d="M38.1981 29.9289C38.1979 29.8854 38.2064 29.8424 38.2229 29.8022C38.2395 29.762 38.2638 29.7255 38.2945 29.6948C38.3252 29.6641 38.3616 29.6398 38.4017 29.6233C38.4418 29.6068 38.4847 29.5984 38.5281 29.5987H38.5971C38.6651 29.6 38.7318 29.6182 38.7911 29.6516C38.8504 29.6851 38.9006 29.7328 38.9371 29.7904L40.7961 32.2063V29.9169C40.7936 29.873 40.8001 29.8291 40.8152 29.7878C40.8302 29.7465 40.8535 29.7087 40.8836 29.6768C40.9137 29.6449 40.95 29.6194 40.9902 29.602C41.0304 29.5847 41.0738 29.5757 41.1176 29.5757C41.1614 29.5757 41.2047 29.5847 41.2449 29.602C41.2851 29.6194 41.3214 29.6449 41.3515 29.6768C41.3816 29.7087 41.4049 29.7465 41.4199 29.7878C41.435 29.8291 41.4415 29.873 41.4391 29.9169V33.0525C41.44 33.095 41.4324 33.1373 41.4168 33.1769C41.4011 33.2164 41.3778 33.2524 41.348 33.2827C41.3183 33.313 41.2828 33.3371 41.2436 33.3534C41.2045 33.3697 41.1624 33.3779 41.1201 33.3777H41.0921C41.0232 33.3754 40.956 33.3559 40.8966 33.3208C40.8372 33.2857 40.7875 33.2363 40.7521 33.1769L38.8391 30.6917V33.0595C38.8415 33.1034 38.835 33.1473 38.8199 33.1886C38.8049 33.2299 38.7816 33.2676 38.7515 33.2996C38.7214 33.3315 38.6851 33.357 38.6449 33.3743C38.6047 33.3917 38.5613 33.4007 38.5176 33.4007C38.4738 33.4007 38.4304 33.3917 38.3902 33.3743C38.35 33.357 38.3137 33.3315 38.2836 33.2996C38.2535 33.2676 38.2302 33.2299 38.2152 33.1886C38.2001 33.1473 38.1936 33.1034 38.1961 33.0595L38.1981 29.9289Z" fill="#1B404F"/>
<path d="M43.71 33.1428L42.41 30.0714C42.3867 30.0232 42.3741 29.9705 42.373 29.9169C42.3734 29.874 42.3823 29.8316 42.3992 29.7922C42.416 29.7528 42.4405 29.7172 42.4712 29.6874C42.5019 29.6576 42.5383 29.6342 42.5781 29.6187C42.6179 29.6031 42.6603 29.5956 42.703 29.5967C42.7765 29.5947 42.8486 29.6164 42.9087 29.6587C42.9689 29.701 43.0139 29.7616 43.037 29.8316L44.11 32.5245L45.1991 29.8145C45.2241 29.7515 45.2674 29.6976 45.3234 29.6596C45.3794 29.6217 45.4455 29.6015 45.513 29.6017C45.555 29.6006 45.5967 29.608 45.6357 29.6232C45.6748 29.6385 45.7105 29.6614 45.7406 29.6907C45.7708 29.7199 45.7948 29.7549 45.8114 29.7935C45.8279 29.8322 45.8367 29.8738 45.8371 29.9159C45.8352 29.9637 45.8243 30.0106 45.805 30.0544L44.498 33.1468C44.4718 33.2259 44.4211 33.2944 44.3532 33.3425C44.2854 33.3905 44.204 33.4155 44.121 33.4138H44.084C44.0019 33.4146 43.9215 33.3891 43.8547 33.3412C43.7878 33.2932 43.7379 33.2251 43.7121 33.1468L43.71 33.1428Z" fill="#1B404F"/>
<path d="M46.763 33.0264V29.955C46.7623 29.9113 46.7704 29.868 46.7867 29.8275C46.8031 29.787 46.8273 29.7502 46.8581 29.7193C46.8889 29.6884 46.9256 29.664 46.9659 29.6476C47.0062 29.6312 47.0495 29.6231 47.093 29.6238H49.255C49.3318 29.6258 49.4049 29.6573 49.4592 29.7119C49.5135 29.7664 49.545 29.8398 49.547 29.9169C49.5471 29.9554 49.5396 29.9936 49.525 30.0292C49.5104 30.0648 49.4889 30.0972 49.4617 30.1244C49.4346 30.1517 49.4024 30.1732 49.3669 30.1879C49.3314 30.2026 49.2934 30.2101 49.255 30.21H47.417V31.1856H49.017C49.0951 31.1877 49.1694 31.2203 49.224 31.2765C49.2785 31.3328 49.309 31.4082 49.309 31.4867C49.3082 31.5637 49.277 31.6373 49.2223 31.6913C49.1675 31.7453 49.0937 31.7753 49.017 31.7747H47.417V32.7784H49.282C49.3588 32.7805 49.4319 32.812 49.4862 32.8665C49.5405 32.9211 49.572 32.9944 49.574 33.0715C49.5741 33.11 49.5666 33.1482 49.552 33.1838C49.5374 33.2195 49.5159 33.2518 49.4887 33.2791C49.4616 33.3063 49.4294 33.3279 49.3939 33.3426C49.3584 33.3572 49.3204 33.3647 49.282 33.3646H47.093C47.0495 33.3654 47.0063 33.3574 46.966 33.3412C46.9256 33.3249 46.889 33.3006 46.8582 33.2698C46.8274 33.239 46.8031 33.2022 46.7867 33.1618C46.7704 33.1214 46.7623 33.078 46.763 33.0344V33.0264Z" fill="#1B404F"/>
<path d="M50.464 32.94C50.3985 32.8905 50.3553 32.8169 50.3438 32.7354C50.3324 32.6539 50.3537 32.5712 50.403 32.5054C50.4523 32.4397 50.5257 32.3963 50.6069 32.3848C50.6881 32.3733 50.7705 32.3947 50.836 32.4442C51.1271 32.6921 51.4963 32.8283 51.878 32.8286C52.278 32.8286 52.537 32.6369 52.537 32.3599V32.3489C52.537 32.0819 52.388 31.9383 51.698 31.7778C50.906 31.586 50.46 31.3512 50.46 30.6636V30.6536C50.4664 30.4967 50.505 30.3428 50.5734 30.2016C50.6417 30.0603 50.7384 29.9348 50.8573 29.8327C50.9762 29.7307 51.1148 29.6544 51.2645 29.6086C51.4142 29.5628 51.5716 29.5485 51.727 29.5666C52.1461 29.5582 52.5576 29.6791 52.906 29.9129C52.9505 29.9401 52.9872 29.9784 53.0125 30.0242C53.0377 30.07 53.0507 30.1215 53.05 30.1738C53.05 30.2141 53.042 30.2539 53.0264 30.2909C53.0109 30.328 52.988 30.3616 52.9593 30.3896C52.9306 30.4177 52.8966 30.4397 52.8593 30.4544C52.822 30.469 52.7821 30.476 52.742 30.4749C52.682 30.4753 52.623 30.4586 52.572 30.4268C52.3213 30.2494 52.0237 30.1508 51.717 30.1437C51.334 30.1437 51.111 30.3445 51.111 30.5864V30.5974C51.111 30.8855 51.281 31.0129 51.998 31.1836C52.784 31.3763 53.188 31.6583 53.188 32.2766V32.2876C53.188 32.9902 52.641 33.4018 51.86 33.4018C51.3571 33.4042 50.867 33.2421 50.464 32.94Z" fill="#1B404F"/>
<path d="M55.0311 30.2321H54.1311C54.0508 30.2321 53.9737 30.2 53.9169 30.143C53.86 30.0859 53.8281 30.0086 53.8281 29.9279C53.8281 29.8473 53.86 29.7699 53.9169 29.7129C53.9737 29.6558 54.0508 29.6238 54.1311 29.6238H56.6021C56.6825 29.6238 56.7596 29.6558 56.8164 29.7129C56.8732 29.7699 56.9051 29.8473 56.9051 29.9279C56.9051 30.0086 56.8732 30.0859 56.8164 30.143C56.7596 30.2 56.6825 30.2321 56.6021 30.2321H55.6931V33.0585C55.6931 33.1462 55.6584 33.2303 55.5966 33.2924C55.5348 33.3544 55.451 33.3892 55.3636 33.3892C55.2762 33.3892 55.1924 33.3544 55.1306 33.2924C55.0688 33.2303 55.0341 33.1462 55.0341 33.0585L55.0311 30.2321Z" fill="#1B404F"/>
<path d="M59.666 29.9219C59.6636 29.8773 59.6702 29.8327 59.6855 29.7908C59.7008 29.7489 59.7244 29.7106 59.755 29.6782C59.7855 29.6457 59.8224 29.6199 59.8632 29.6023C59.9041 29.5846 59.9481 29.5755 59.9925 29.5755C60.037 29.5755 60.081 29.5846 60.1218 29.6023C60.1627 29.6199 60.1995 29.6457 60.2301 29.6782C60.2606 29.7106 60.2843 29.7489 60.2996 29.7908C60.3149 29.8327 60.3215 29.8773 60.319 29.9219V33.0575C60.3215 33.102 60.3149 33.1466 60.2996 33.1885C60.2843 33.2304 60.2606 33.2688 60.2301 33.3012C60.1995 33.3336 60.1627 33.3594 60.1218 33.3771C60.081 33.3947 60.037 33.4038 59.9925 33.4038C59.9481 33.4038 59.9041 33.3947 59.8632 33.3771C59.8224 33.3594 59.7855 33.3336 59.755 33.3012C59.7244 33.2688 59.7008 33.2304 59.6855 33.1885C59.6702 33.1466 59.6636 33.102 59.666 33.0575V29.9219Z" fill="#1B404F"/>
<path d="M61.552 29.9279C61.5517 29.8845 61.5601 29.8414 61.5765 29.8012C61.593 29.761 61.6172 29.7245 61.6478 29.6938C61.6784 29.6631 61.7148 29.6388 61.7548 29.6223C61.7948 29.6058 61.8377 29.5974 61.881 29.5977H61.95C62.0181 29.5989 62.0848 29.617 62.1441 29.6505C62.2035 29.684 62.2536 29.7317 62.29 29.7894L64.15 32.2053V29.9169C64.15 29.8313 64.1839 29.7492 64.2442 29.6887C64.3045 29.6282 64.3862 29.5942 64.4715 29.5942C64.5568 29.5942 64.6386 29.6282 64.6988 29.6887C64.7591 29.7492 64.793 29.8313 64.793 29.9169V33.0524C64.7939 33.095 64.7864 33.1373 64.7707 33.1768C64.7551 33.2164 64.7317 33.2524 64.702 33.2827C64.6722 33.313 64.6367 33.3371 64.5976 33.3534C64.5584 33.3697 64.5164 33.3779 64.474 33.3777H64.448C64.3791 33.3755 64.3119 33.356 64.2524 33.3209C64.193 33.2858 64.1434 33.2363 64.108 33.1769L62.195 30.6917V33.0595C62.195 33.1451 62.1611 33.2271 62.1008 33.2877C62.0405 33.3482 61.9588 33.3822 61.8735 33.3822C61.7882 33.3822 61.7065 33.3482 61.6462 33.2877C61.5859 33.2271 61.552 33.1451 61.552 33.0595V29.9279Z" fill="#1B404F"/>
<path d="M68.8631 31.9062L67.5821 30.1407C67.5348 30.0734 67.509 29.9932 67.5081 29.9109C67.5087 29.8684 67.5178 29.8265 67.5347 29.7877C67.5517 29.7488 67.5762 29.7137 67.6068 29.6844C67.6375 29.6552 67.6736 29.6324 67.7132 29.6173C67.7527 29.6022 67.7948 29.5952 67.8371 29.5967C67.9031 29.5992 67.9673 29.619 68.0233 29.6542C68.0793 29.6895 68.1251 29.7388 68.1561 29.7974L69.1921 31.296L70.2441 29.7904C70.2745 29.7325 70.3195 29.6835 70.3746 29.6483C70.4296 29.6131 70.4929 29.5929 70.5581 29.5897C70.6003 29.5884 70.6423 29.5958 70.6816 29.6115C70.7209 29.6271 70.7565 29.6507 70.7864 29.6807C70.8163 29.7107 70.8397 29.7465 70.8553 29.7859C70.8709 29.8253 70.8783 29.8675 70.8771 29.9099C70.8729 29.9958 70.8414 30.0781 70.7871 30.1447L69.5171 31.8882V33.0565C69.5171 33.1435 69.4826 33.227 69.4213 33.2886C69.36 33.3501 69.2768 33.3847 69.1901 33.3847C69.1033 33.3847 69.0202 33.3501 68.9588 33.2886C68.8975 33.227 68.8631 33.1435 68.8631 33.0565V31.9062Z" fill="#1B404F"/>
<path d="M71.3589 31.5007V31.4907C71.3582 31.2344 71.4078 30.9804 71.5048 30.7434C71.6019 30.5063 71.7445 30.2907 71.9245 30.109C72.1046 29.9273 72.3186 29.7829 72.5542 29.6841C72.7898 29.5854 73.0425 29.5342 73.2979 29.5335C73.5533 29.5327 73.8062 29.5825 74.0424 29.6799C74.2786 29.7773 74.4934 29.9205 74.6745 30.1012C74.8556 30.2819 74.9994 30.4967 75.0978 30.7332C75.1962 30.9697 75.2472 31.2233 75.2479 31.4796V31.4907C75.2486 31.747 75.1989 32.0009 75.1018 32.238C75.0047 32.475 74.862 32.6905 74.6819 32.8722C74.5018 33.0539 74.2878 33.1982 74.0521 33.2969C73.8165 33.3956 73.5638 33.4468 73.3084 33.4474C72.7927 33.4487 72.2976 33.2444 71.932 32.8793C71.5664 32.5142 71.3602 32.0183 71.3589 31.5007ZM74.5589 31.5007V31.4907C74.5655 31.3194 74.5377 31.1486 74.4772 30.9883C74.4167 30.8281 74.3247 30.6816 74.2067 30.5578C74.0887 30.4339 73.947 30.3351 73.7902 30.2672C73.6334 30.1994 73.4647 30.1639 73.2939 30.1628C73.1244 30.163 72.9567 30.1977 72.8009 30.2647C72.6451 30.3317 72.5044 30.4297 72.3873 30.5527C72.2703 30.6758 72.1792 30.8213 72.1197 30.9806C72.0601 31.1399 72.0333 31.3097 72.0409 31.4796V31.4907C72.0345 31.6617 72.0624 31.8322 72.123 31.9921C72.1836 32.1521 72.2757 32.2981 72.3937 32.4215C72.5118 32.545 72.6534 32.6433 72.8101 32.7107C72.9668 32.778 73.1354 32.813 73.3059 32.8136C73.4752 32.814 73.6429 32.78 73.7987 32.7135C73.9545 32.6471 74.0953 32.5496 74.2125 32.4269C74.3298 32.3043 74.421 32.1591 74.4807 32.0001C74.5404 31.841 74.5673 31.6715 74.5599 31.5017L74.5589 31.5007Z" fill="#1B404F"/>
<path d="M76.2181 31.7727V29.9219C76.2156 29.8773 76.2222 29.8327 76.2375 29.7908C76.2528 29.7489 76.2765 29.7106 76.307 29.6782C76.3376 29.6457 76.3744 29.6199 76.4153 29.6023C76.4561 29.5846 76.5001 29.5755 76.5446 29.5755C76.589 29.5755 76.633 29.5846 76.6739 29.6023C76.7147 29.6199 76.7515 29.6457 76.7821 29.6782C76.8126 29.7106 76.8363 29.7489 76.8516 29.7908C76.8669 29.8327 76.8735 29.8773 76.8711 29.9219V31.7456C76.8711 32.4392 77.2271 32.8075 77.8121 32.8075C78.3971 32.8075 78.7471 32.4603 78.7471 31.7727V29.9219C78.7446 29.8773 78.7512 29.8327 78.7665 29.7908C78.7818 29.7489 78.8055 29.7106 78.836 29.6782C78.8666 29.6457 78.9034 29.6199 78.9443 29.6023C78.9851 29.5846 79.0291 29.5755 79.0736 29.5755C79.118 29.5755 79.162 29.5846 79.2029 29.6023C79.2437 29.6199 79.2805 29.6457 79.3111 29.6782C79.3417 29.7106 79.3653 29.7489 79.3806 29.7908C79.3959 29.8327 79.4025 29.8773 79.4001 29.9219V31.7406C79.4282 31.9613 79.4067 32.1855 79.3373 32.3967C79.2678 32.608 79.1522 32.801 78.9987 32.9615C78.8453 33.1221 78.658 33.2461 78.4506 33.3246C78.2432 33.403 78.0209 33.4338 77.8001 33.4148C77.5829 33.4337 77.3642 33.4037 77.16 33.3271C76.9558 33.2504 76.7712 33.129 76.6197 32.9717C76.4681 32.8144 76.3534 32.6252 76.2839 32.4177C76.2145 32.2103 76.192 31.99 76.2181 31.7727Z" fill="#1B404F"/>
<path d="M80.535 29.954C80.5343 29.9103 80.5423 29.867 80.5587 29.8265C80.575 29.786 80.5993 29.7492 80.6301 29.7183C80.6609 29.6874 80.6975 29.663 80.7379 29.6466C80.7782 29.6302 80.8214 29.6221 80.865 29.6228H82.193C82.5856 29.6013 82.9709 29.7354 83.266 29.9962C83.4701 30.2126 83.5808 30.5012 83.574 30.7991V30.8102C83.5832 31.0653 83.504 31.3157 83.3499 31.5189C83.1959 31.722 82.9764 31.8653 82.729 31.9243L83.441 32.8276C83.5062 32.8952 83.5443 32.9845 83.548 33.0786C83.5459 33.16 83.5118 33.2374 83.4532 33.2937C83.3946 33.3501 83.3161 33.381 83.2349 33.3797C83.1718 33.3805 83.1094 33.3653 83.0536 33.3355C82.9979 33.3056 82.9505 33.2622 82.9159 33.209L82.016 32.0518H81.1919V33.0555C81.1944 33.1 81.1878 33.1446 81.1725 33.1865C81.1572 33.2284 81.1335 33.2668 81.103 33.2992C81.0724 33.3316 81.0356 33.3574 80.9948 33.3751C80.9539 33.3927 80.9099 33.4018 80.8655 33.4018C80.821 33.4018 80.777 33.3927 80.7362 33.3751C80.6953 33.3574 80.6585 33.3316 80.6279 33.2992C80.5974 33.2668 80.5737 33.2284 80.5584 33.1865C80.5431 33.1446 80.5365 33.1 80.5389 33.0555L80.535 29.954ZM82.145 31.4736C82.612 31.4736 82.91 31.2287 82.91 30.8493V30.8393C82.91 30.4378 82.623 30.221 82.14 30.221H81.189V31.4746L82.145 31.4736Z" fill="#1B404F"/>
<path d="M86.4461 29.9319C86.4458 29.8885 86.4541 29.8454 86.4706 29.8053C86.487 29.7651 86.5112 29.7286 86.5418 29.6978C86.5724 29.6671 86.6088 29.6428 86.6488 29.6263C86.6889 29.6098 86.7318 29.6015 86.7751 29.6017H86.8451C86.9061 29.6017 86.966 29.6179 87.0188 29.6488C87.0715 29.6796 87.1151 29.724 87.1451 29.7774L88.2721 31.5479L89.4031 29.7724C89.4325 29.7189 89.4761 29.6747 89.5291 29.6446C89.582 29.6145 89.6422 29.5996 89.7031 29.6017H89.7721C89.8154 29.6015 89.8583 29.6098 89.8984 29.6263C89.9385 29.6428 89.975 29.6671 90.0056 29.6978C90.0363 29.7285 90.0606 29.765 90.0772 29.8052C90.0937 29.8454 90.1022 29.8885 90.1021 29.9319V33.0575C90.1021 33.1007 90.0935 33.1435 90.0768 33.1833C90.0602 33.2232 90.0358 33.2593 90.005 33.2896C89.9743 33.3199 89.9379 33.3437 89.8979 33.3597C89.8579 33.3757 89.8151 33.3835 89.7721 33.3827C89.6865 33.3814 89.6049 33.3467 89.5444 33.286C89.4839 33.2253 89.4493 33.1433 89.4481 33.0575V30.8182L88.5371 32.1883C88.5133 32.2411 88.4749 32.286 88.4264 32.3175C88.3779 32.3489 88.3213 32.3657 88.2636 32.3657C88.2058 32.3657 88.1493 32.3489 88.1007 32.3175C88.0522 32.286 88.0138 32.2411 87.9901 32.1883L87.09 30.8283V33.0625C87.0902 33.105 87.0819 33.1471 87.0656 33.1864C87.0493 33.2256 87.0253 33.2612 86.9952 33.291C86.965 33.3208 86.9292 33.3443 86.8898 33.3601C86.8505 33.3758 86.8084 33.3835 86.7661 33.3827C86.7239 33.3835 86.6821 33.3758 86.643 33.36C86.604 33.3442 86.5685 33.3206 86.5387 33.2907C86.5089 33.2608 86.4854 33.2252 86.4697 33.186C86.4539 33.1468 86.4462 33.1048 86.4471 33.0625L86.4461 29.9319Z" fill="#1B404F"/>
<path d="M91.129 31.5007V31.4907C91.1225 31.2307 91.1677 30.972 91.2622 30.7299C91.3566 30.4877 91.4983 30.2669 91.6789 30.0804C91.8595 29.8939 92.0754 29.7456 92.3139 29.644C92.5525 29.5425 92.8088 29.4898 93.0679 29.4891C93.327 29.4883 93.5837 29.5396 93.8228 29.6397C94.0619 29.7399 94.2786 29.8871 94.4603 30.0725C94.6419 30.2579 94.7849 30.4779 94.8806 30.7196C94.9764 30.9612 95.0231 31.2196 95.018 31.4797V31.4907C95.0246 31.7507 94.9792 32.0094 94.8847 32.2515C94.7903 32.4937 94.6485 32.7145 94.4679 32.9009C94.2872 33.0873 94.0712 33.2356 93.8327 33.3371C93.5941 33.4386 93.3378 33.4912 93.0787 33.4919C92.8195 33.4926 92.5629 33.4413 92.3238 33.341C92.0848 33.2407 91.868 33.0936 91.6864 32.9081C91.5048 32.7226 91.362 32.5025 91.2662 32.2609C91.1705 32.0192 91.1239 31.7608 91.129 31.5007ZM94.329 31.5007V31.4907C94.3356 31.3194 94.3078 31.1486 94.2473 30.9883C94.1868 30.8281 94.0948 30.6817 93.9768 30.5578C93.8588 30.4339 93.7172 30.3351 93.5604 30.2672C93.4036 30.1994 93.2348 30.1639 93.064 30.1628C92.8945 30.163 92.7267 30.1977 92.5709 30.2647C92.415 30.3317 92.2743 30.4297 92.1571 30.5527C92.04 30.6757 91.9489 30.8213 91.8892 30.9806C91.8296 31.1399 91.8026 31.3096 91.81 31.4797V31.4907C91.8036 31.6617 91.8315 31.8322 91.8921 31.9921C91.9528 32.1521 92.0448 32.2981 92.1629 32.4216C92.2809 32.545 92.4225 32.6433 92.5792 32.7107C92.736 32.778 92.9046 32.813 93.075 32.8136C93.2444 32.814 93.412 32.78 93.5678 32.7135C93.7237 32.6471 93.8645 32.5496 93.9817 32.4269C94.0989 32.3043 94.1901 32.1591 94.2498 32.0001C94.3095 31.841 94.3365 31.6705 94.329 31.5007Z" fill="#1B404F"/>
<path d="M96.0459 29.9289C96.0456 29.8855 96.054 29.8424 96.0704 29.8022C96.0868 29.7621 96.1111 29.7255 96.1417 29.6948C96.1723 29.6641 96.2087 29.6398 96.2487 29.6233C96.2887 29.6068 96.3316 29.5984 96.3749 29.5987H96.4449C96.5129 29.6 96.5796 29.6182 96.6389 29.6516C96.6983 29.6851 96.7484 29.7328 96.7849 29.7904L98.6439 32.2063V29.9169C98.6415 29.873 98.648 29.8291 98.663 29.7878C98.6781 29.7465 98.7014 29.7087 98.7315 29.6768C98.7616 29.6449 98.7978 29.6194 98.8381 29.602C98.8783 29.5847 98.9216 29.5757 98.9654 29.5757C99.0092 29.5757 99.0525 29.5847 99.0928 29.602C99.133 29.6194 99.1693 29.6449 99.1994 29.6768C99.2295 29.7087 99.2527 29.7465 99.2678 29.7878C99.2828 29.8291 99.2894 29.873 99.2869 29.9169V33.0525C99.2877 33.095 99.2801 33.1372 99.2644 33.1767C99.2487 33.2162 99.2253 33.2521 99.1956 33.2824C99.1659 33.3127 99.1304 33.3367 99.0913 33.3531C99.0522 33.3695 99.0103 33.3778 98.9679 33.3777H98.9409C98.872 33.3754 98.8048 33.3559 98.7454 33.3208C98.686 33.2857 98.6363 33.2363 98.6009 33.1769L96.6889 30.6917V33.0595C96.6843 33.142 96.6484 33.2195 96.5887 33.2763C96.5289 33.3331 96.4497 33.3647 96.3674 33.3647C96.2851 33.3647 96.2059 33.3331 96.1462 33.2763C96.0864 33.2195 96.0505 33.142 96.0459 33.0595V29.9289Z" fill="#1B404F"/>
<path d="M100.48 33.0264V29.955C100.479 29.9114 100.487 29.868 100.503 29.8275C100.52 29.787 100.544 29.7503 100.575 29.7193C100.605 29.6884 100.642 29.6641 100.682 29.6476C100.722 29.6312 100.766 29.6231 100.809 29.6238H102.969C103.046 29.6256 103.119 29.657 103.174 29.7115C103.228 29.7661 103.26 29.8396 103.262 29.9169C103.262 29.9554 103.254 29.9936 103.24 30.0293C103.225 30.0649 103.203 30.0972 103.176 30.1245C103.149 30.1517 103.117 30.1733 103.081 30.1879C103.046 30.2026 103.007 30.2101 102.969 30.21H101.131V31.1856H102.731C102.809 31.1877 102.883 31.2203 102.938 31.2765C102.993 31.3328 103.023 31.4082 103.023 31.4867C103.022 31.5637 102.991 31.6373 102.936 31.6913C102.882 31.7453 102.808 31.7753 102.731 31.7747H101.131V32.7784H102.996C103.073 32.7802 103.146 32.8116 103.201 32.8662C103.255 32.9207 103.287 32.9943 103.289 33.0715C103.289 33.1101 103.281 33.1483 103.267 33.1839C103.252 33.2195 103.23 33.2519 103.203 33.2791C103.176 33.3064 103.144 33.3279 103.108 33.3426C103.073 33.3573 103.034 33.3647 102.996 33.3646H100.809C100.766 33.3653 100.723 33.3572 100.682 33.3409C100.642 33.3245 100.606 33.3002 100.575 33.2694C100.544 33.2386 100.52 33.2019 100.504 33.1616C100.487 33.1212 100.479 33.0779 100.48 33.0344V33.0264Z" fill="#1B404F"/>
<path d="M105.324 31.9062L104.043 30.1407C103.996 30.0734 103.97 29.9932 103.969 29.9109C103.969 29.8684 103.978 29.8264 103.995 29.7875C104.012 29.7486 104.037 29.7134 104.067 29.6841C104.098 29.6548 104.134 29.632 104.174 29.617C104.214 29.602 104.256 29.5951 104.298 29.5967C104.364 29.5993 104.428 29.6191 104.484 29.6544C104.54 29.6896 104.586 29.7389 104.617 29.7974L105.653 31.296L106.705 29.7904C106.735 29.7326 106.78 29.6837 106.835 29.6485C106.89 29.6133 106.953 29.5931 107.018 29.5897C107.06 29.5884 107.102 29.5958 107.142 29.6115C107.181 29.6271 107.216 29.6507 107.246 29.6807C107.276 29.7107 107.3 29.7465 107.315 29.7859C107.331 29.8253 107.338 29.8675 107.337 29.9099C107.333 29.9958 107.301 30.0781 107.247 30.1447L105.977 31.8882V33.0565C105.979 33.101 105.973 33.1456 105.958 33.1875C105.942 33.2294 105.919 33.2678 105.888 33.3002C105.857 33.3326 105.821 33.3584 105.78 33.3761C105.739 33.3937 105.695 33.4028 105.65 33.4028C105.606 33.4028 105.562 33.3937 105.521 33.3761C105.48 33.3584 105.444 33.3326 105.413 33.3002C105.382 33.2678 105.359 33.2294 105.343 33.1875C105.328 33.1456 105.322 33.101 105.324 33.0565V31.9062Z" fill="#1B404F"/>
<path d="M18.925 17.216V0.564436C18.925 0.506634 18.9121 0.449562 18.8872 0.397445C18.8623 0.345328 18.8261 0.299502 18.7811 0.263358C18.7362 0.227214 18.6837 0.201678 18.6276 0.188642C18.5715 0.175605 18.5132 0.175401 18.457 0.188046L12.674 1.48283C12.5888 1.502 12.5127 1.54972 12.4581 1.61815C12.4036 1.68657 12.3739 1.7716 12.374 1.85922V17.216H6.551V3.67794C6.55104 3.62014 6.53814 3.56306 6.51323 3.51095C6.48832 3.45883 6.45206 3.413 6.40712 3.37686C6.36218 3.34072 6.30971 3.31518 6.25361 3.30214C6.1975 3.28911 6.13919 3.2889 6.083 3.30155L0.3 4.60135C0.214816 4.62052 0.138681 4.66825 0.0841464 4.73667C0.0296115 4.80509 -6.81058e-05 4.89012 1.17354e-07 4.97774V15.602C1.17354e-07 16.03 0.169414 16.4406 0.470972 16.7432C0.772531 17.0459 1.18153 17.216 1.608 17.216H6.187V33.9578C6.18695 34.0156 6.19986 34.0727 6.22477 34.1248C6.24968 34.1769 6.28594 34.2227 6.33088 34.2589C6.37582 34.295 6.42829 34.3206 6.48439 34.3336C6.5405 34.3466 6.59881 34.3468 6.655 34.3342L12.438 33.0354C12.5232 33.0162 12.5993 32.9685 12.6539 32.9001C12.7084 32.8317 12.7381 32.7466 12.738 32.659V17.216H18.56V30.753C18.56 30.8108 18.5729 30.8678 18.5978 30.92C18.6227 30.9721 18.6589 31.0179 18.7039 31.054C18.7488 31.0902 18.8013 31.1157 18.8574 31.1288C18.9135 31.1418 18.9718 31.142 19.028 31.1294L24.811 29.8306C24.8962 29.8114 24.9723 29.7637 25.0269 29.6952C25.0814 29.6268 25.1111 29.5418 25.111 29.4542V18.8299C25.111 18.6177 25.0693 18.4076 24.9883 18.2116C24.9073 18.0156 24.7886 17.8375 24.639 17.6876C24.4893 17.5377 24.3117 17.4189 24.1163 17.3379C23.9208 17.257 23.7114 17.2156 23.5 17.216H18.925Z" fill="url(#paint0_linear_4987_965)"/>
<defs>
<linearGradient id="paint0_linear_4987_965" x1="12.5555" y1="34.3435" x2="12.5555" y2="0.178711" gradientUnits="userSpaceOnUse">
<stop offset="0.501" stop-color="#099A5D"/>
<stop offset="0.502" stop-color="#00BF54"/>
</linearGradient>
</defs>
</svg>
