<svg width="140" height="44" viewBox="0 0 140 44" fill="none" xmlns="http://www.w3.org/2000/svg">
<mask id="mask0_106_3002" style="mask-type:luminance" maskUnits="userSpaceOnUse" x="0" y="0" width="140" height="44">
<path d="M139.593 0.885986H0.496094V43.636H139.593V0.885986Z" fill="white"/>
</mask>
<g mask="url(#mask0_106_3002)">
<path d="M24.2631 22.2038V1.36779C24.2631 1.2955 24.2468 1.22415 24.2154 1.15901C24.1841 1.09387 24.1385 1.03662 24.082 0.991483C24.0256 0.94635 23.9597 0.914494 23.8892 0.898276C23.8188 0.882057 23.7456 0.88189 23.6751 0.897786L16.4131 2.52279C16.3061 2.54685 16.2105 2.60659 16.142 2.69219C16.0735 2.77778 16.0361 2.88415 16.0361 2.99379V22.2038H8.72409V5.26479C8.72403 5.19248 8.70773 5.12111 8.67639 5.05594C8.64506 4.99077 8.59949 4.93347 8.54306 4.88826C8.48662 4.84306 8.42075 4.8111 8.35032 4.79475C8.27988 4.7784 8.20667 4.77807 8.13609 4.79379L0.873094 6.41979C0.766957 6.44366 0.671985 6.50266 0.603562 6.58723C0.535139 6.67181 0.497272 6.77701 0.496094 6.88579L0.496094 20.1858C0.496094 20.7215 0.708915 21.2353 1.08774 21.6141C1.46656 21.993 1.98036 22.2058 2.51609 22.2058H8.26609V43.1528C8.26601 43.2251 8.28217 43.2964 8.31339 43.3616C8.34461 43.4268 8.39008 43.4841 8.44644 43.5293C8.50281 43.5745 8.56862 43.6065 8.63901 43.6229C8.7094 43.6392 8.78257 43.6395 8.85309 43.6238L16.1161 41.9978C16.223 41.9739 16.3186 41.9144 16.3871 41.829C16.4556 41.7435 16.493 41.6373 16.4931 41.5278V22.2038H23.8051V39.1428C23.8052 39.2151 23.8215 39.2865 23.8528 39.3516C23.8841 39.4168 23.9297 39.4741 23.9861 39.5193C24.0426 39.5645 24.1084 39.5965 24.1789 39.6128C24.2493 39.6292 24.3225 39.6295 24.3931 39.6138L31.6561 37.9858C31.7631 37.9617 31.8587 37.902 31.9272 37.8164C31.9957 37.7308 32.033 37.6244 32.0331 37.5148V24.2238C32.0331 23.688 31.8203 23.1743 31.4415 22.7954C31.0626 22.4166 30.5488 22.2038 30.0131 22.2038H24.2631Z" fill="white"/>
<path d="M51.4081 20.0641H58.6351V12.6331H63.6401V31.8881H58.6351V23.9451H51.4081V31.8871H46.4031V12.6331H51.4081V20.0641Z" fill="white"/>
<path d="M78.7971 16.8731H72.8471V20.0901H78.4651V24.3301H72.8471V27.6501H78.7971V31.8891H67.8381V12.6331H78.7931L78.7971 16.8731Z" fill="white"/>
<path d="M82.666 12.633H90.066C91.3392 12.6251 92.5988 12.895 93.757 13.424C94.8824 13.935 95.9039 14.6493 96.77 15.531C97.6344 16.4151 98.3233 17.4551 98.8 18.596C99.2866 19.751 99.5383 20.9913 99.5405 22.2447C99.5428 23.498 99.2954 24.7392 98.813 25.896C98.3423 27.0408 97.6577 28.0854 96.796 28.974C95.9325 29.8619 94.9106 30.5806 93.783 31.093C92.6168 31.6244 91.3486 31.8947 90.067 31.885H82.667L82.666 12.633ZM87.671 27.649H88.821C89.6147 27.6624 90.4036 27.5236 91.145 27.24C91.7915 26.9901 92.3784 26.6076 92.868 26.117C93.3413 25.6321 93.7069 25.0528 93.941 24.417C94.1938 23.7259 94.3195 22.9948 94.312 22.259C94.3178 21.5265 94.1879 20.7992 93.929 20.114C93.6908 19.468 93.3168 18.8807 92.8322 18.3916C92.3476 17.9025 91.7638 17.5231 91.12 17.279C90.3864 16.9975 89.6057 16.859 88.82 16.871H87.67L87.671 27.649Z" fill="white"/>
<path d="M113.167 21.1059H123.101C123.105 22.0354 123.063 22.9646 122.973 23.8899C122.898 24.6823 122.726 25.4626 122.463 26.2139C122.128 27.1777 121.636 28.0795 121.007 28.8829C120.405 29.6487 119.675 30.305 118.849 30.8229C118.006 31.3504 117.09 31.7507 116.13 32.0109C115.115 32.287 114.067 32.4246 113.014 32.4199C111.613 32.4378 110.221 32.1862 108.914 31.6789C107.722 31.2126 106.639 30.504 105.735 29.5979C104.833 28.6777 104.129 27.5825 103.666 26.3799C103.159 25.0558 102.908 23.6476 102.926 22.2299C102.91 20.8216 103.157 19.4227 103.653 18.1049C104.108 16.9035 104.813 15.8127 105.722 14.9049C106.645 14.0005 107.745 13.2962 108.952 12.8359C110.298 12.3272 111.728 12.0761 113.166 12.0959C115.012 12.0546 116.836 12.5032 118.452 13.3959C120.037 14.3408 121.293 15.7491 122.052 17.4309L117.302 19.3969C116.97 18.4828 116.369 17.6906 115.578 17.1239C114.859 16.6611 114.02 16.4214 113.165 16.4349C112.461 16.4253 111.764 16.569 111.121 16.8559C110.514 17.1326 109.978 17.5428 109.551 18.0559C109.097 18.6128 108.75 19.2497 108.529 19.9339C108.273 20.7256 108.148 21.5538 108.159 22.3859C108.152 23.1552 108.26 23.9213 108.478 24.6589C108.672 25.3215 108.997 25.9382 109.435 26.4719C109.864 26.9852 110.406 27.3919 111.019 27.6599C111.715 27.9541 112.464 28.0976 113.219 28.0809C113.701 28.0822 114.181 28.0265 114.649 27.9149C115.091 27.8122 115.51 27.6306 115.887 27.3789C116.256 27.1295 116.565 26.8025 116.794 26.4209C117.049 25.9811 117.214 25.495 117.279 24.9909H113.168L113.167 21.1059Z" fill="white"/>
<path d="M47.0752 38.473C47.0805 38.3637 47.1276 38.2607 47.2068 38.1852C47.2861 38.1097 47.3913 38.0676 47.5007 38.0676C47.6101 38.0676 47.7153 38.1097 47.7945 38.1852C47.8737 38.2607 47.9209 38.3637 47.9262 38.473V42.542C47.9209 42.6513 47.8737 42.7543 47.7945 42.8298C47.7153 42.9053 47.6101 42.9474 47.5007 42.9474C47.3913 42.9474 47.2861 42.9053 47.2068 42.8298C47.1276 42.7543 47.0805 42.6513 47.0752 42.542V38.473Z" fill="white"/>
<path d="M49.5301 38.4859C49.5298 38.4295 49.5407 38.3736 49.5622 38.3214C49.5836 38.2692 49.6152 38.2218 49.6551 38.182C49.695 38.1421 49.7424 38.1105 49.7946 38.089C49.8467 38.0675 49.9026 38.0566 49.9591 38.0569H50.0491C50.1377 38.0585 50.2246 38.0821 50.3019 38.1256C50.3793 38.169 50.4446 38.231 50.4921 38.3059L52.9141 41.4409V38.4649C52.9193 38.3574 52.9657 38.2561 53.0436 38.1819C53.1215 38.1077 53.225 38.0664 53.3326 38.0664C53.4401 38.0664 53.5436 38.1077 53.6215 38.1819C53.6994 38.2561 53.7458 38.3574 53.7511 38.4649V42.5309C53.7521 42.586 53.7422 42.6408 53.7218 42.692C53.7014 42.7432 53.671 42.7899 53.6323 42.8292C53.5937 42.8685 53.5475 42.8997 53.4967 42.9209C53.4458 42.9422 53.3912 42.953 53.3361 42.9529H53.3011C53.2117 42.9504 53.1245 42.9257 53.0471 42.881C52.9697 42.8363 52.9048 42.773 52.8581 42.6969L50.3661 39.4719V42.5449C50.3608 42.6523 50.3144 42.7537 50.2365 42.8279C50.1586 42.902 50.0551 42.9434 49.9476 42.9434C49.84 42.9434 49.7365 42.902 49.6586 42.8279C49.5807 42.7537 49.5343 42.6523 49.5291 42.5449L49.5301 38.4859Z" fill="white"/>
<path d="M56.7111 42.653L55.0111 38.667C54.981 38.6045 54.9646 38.5363 54.9631 38.467C54.9636 38.4114 54.9752 38.3566 54.9971 38.3055C55.019 38.2545 55.0509 38.2083 55.0908 38.1697C55.1307 38.1311 55.1779 38.1008 55.2296 38.0806C55.2814 38.0604 55.3366 38.0506 55.3921 38.052C55.4874 38.0487 55.5811 38.0761 55.6596 38.1301C55.7381 38.1841 55.7972 38.2619 55.8281 38.352L57.2281 41.847L58.6471 38.324C58.6798 38.2423 58.7363 38.1723 58.8092 38.1231C58.8821 38.0739 58.9682 38.0477 59.0561 38.048C59.1107 38.0466 59.1651 38.0562 59.216 38.076C59.2668 38.0959 59.3133 38.1257 59.3525 38.1637C59.3918 38.2016 59.4231 38.247 59.4447 38.2972C59.4663 38.3474 59.4776 38.4014 59.4781 38.456C59.4756 38.5181 59.4614 38.5792 59.4361 38.636L57.7361 42.65C57.7018 42.7526 57.6355 42.8416 57.547 42.9038C57.4585 42.9661 57.3523 42.9984 57.2441 42.996H57.1961C57.0889 42.998 56.9838 42.9654 56.8965 42.9031C56.8091 42.8408 56.7442 42.752 56.7111 42.65" fill="white"/>
<path d="M60.688 42.496V38.514C60.6871 38.4574 60.6976 38.4011 60.7188 38.3486C60.74 38.2961 60.7715 38.2483 60.8115 38.2082C60.8515 38.1681 60.8992 38.1365 60.9517 38.1151C61.0042 38.0938 61.0604 38.0832 61.117 38.084H63.9331C64.0339 38.0848 64.1303 38.1252 64.2016 38.1965C64.2729 38.2678 64.3133 38.3642 64.314 38.465C64.3142 38.5151 64.3044 38.5647 64.2853 38.611C64.2662 38.6573 64.2382 38.6993 64.2027 38.7347C64.1673 38.7701 64.1253 38.7982 64.079 38.8173C64.0327 38.8364 63.9831 38.8462 63.9331 38.846H61.5391V40.105H63.6221C63.7238 40.1063 63.8209 40.1479 63.8921 40.2206C63.9633 40.2933 64.0029 40.3913 64.0021 40.493C64.001 40.5929 63.9604 40.6884 63.8892 40.7584C63.818 40.8285 63.722 40.8676 63.6221 40.867H61.5391V42.167H63.9681C64.0687 42.1681 64.1649 42.2086 64.2359 42.2798C64.307 42.3511 64.3473 42.4474 64.3481 42.548C64.3482 42.598 64.3384 42.6474 64.3194 42.6936C64.3003 42.7398 64.2724 42.7817 64.237 42.817C64.2017 42.8523 64.1598 42.8803 64.1136 42.8994C64.0675 42.9184 64.018 42.9282 63.9681 42.928H61.117C61.0605 42.929 61.0042 42.9185 60.9518 42.8973C60.8993 42.8761 60.8516 42.8445 60.8116 42.8045C60.7716 42.7645 60.74 42.7168 60.7188 42.6643C60.6976 42.6118 60.6871 42.5556 60.688 42.499" fill="white"/>
<path d="M65.509 42.3891C65.4576 42.3519 65.4157 42.3031 65.3868 42.2466C65.3579 42.1901 65.3429 42.1275 65.343 42.064C65.3443 41.9588 65.3871 41.8584 65.4619 41.7844C65.5368 41.7105 65.6378 41.669 65.743 41.6691C65.8323 41.6653 65.9201 41.6921 65.992 41.745C66.3709 42.0671 66.8518 42.2443 67.349 42.245C67.875 42.245 68.207 41.996 68.207 41.636V41.622C68.207 41.276 68.013 41.089 67.114 40.881C66.083 40.632 65.501 40.3281 65.501 39.4351V39.4211C65.5102 39.2176 65.5612 39.0183 65.6508 38.8354C65.7405 38.6526 65.8669 38.4902 66.0221 38.3584C66.1773 38.2265 66.358 38.1281 66.5529 38.0692C66.7478 38.0103 66.9528 37.9922 67.155 38.0161C67.701 38.0052 68.2372 38.1623 68.691 38.466C68.7495 38.5008 68.7976 38.5506 68.8305 38.6102C68.8634 38.6698 68.8798 38.737 68.878 38.8051C68.8767 38.9103 68.834 39.0107 68.7591 39.0847C68.6842 39.1586 68.5833 39.2001 68.478 39.2C68.3996 39.2009 68.3226 39.1794 68.256 39.1381C67.9293 38.908 67.5415 38.7803 67.142 38.771C66.642 38.771 66.352 39.027 66.352 39.346V39.36C66.352 39.734 66.573 39.9 67.508 40.121C68.532 40.371 69.058 40.737 69.058 41.54V41.554C69.058 42.461 68.345 43.0001 67.328 43.0001C66.6712 43.0005 66.0323 42.7867 65.508 42.3911" fill="white"/>
<path d="M71.4582 38.874H70.2822C70.1775 38.874 70.077 38.8324 70.0029 38.7583C69.9288 38.6842 69.8872 38.5837 69.8872 38.479C69.8872 38.3742 69.9288 38.2738 70.0029 38.1997C70.077 38.1256 70.1775 38.084 70.2822 38.084H73.5002C73.605 38.084 73.7054 38.1256 73.7795 38.1997C73.8536 38.2738 73.8952 38.3742 73.8952 38.479C73.8952 38.5837 73.8536 38.6842 73.7795 38.7583C73.7054 38.8324 73.605 38.874 73.5002 38.874H72.3162V42.542C72.3162 42.6558 72.271 42.7649 72.1906 42.8453C72.1101 42.9258 72.001 42.971 71.8872 42.971C71.7734 42.971 71.6643 42.9258 71.5839 42.8453C71.5034 42.7649 71.4582 42.6558 71.4582 42.542V38.874Z" fill="white"/>
<path d="M77.4961 38.473C77.5014 38.3637 77.5485 38.2607 77.6277 38.1852C77.707 38.1097 77.8122 38.0676 77.9216 38.0676C78.031 38.0676 78.1362 38.1097 78.2154 38.1852C78.2947 38.2607 78.3418 38.3637 78.3471 38.473V42.542C78.3418 42.6513 78.2947 42.7543 78.2154 42.8298C78.1362 42.9053 78.031 42.9474 77.9216 42.9474C77.8122 42.9474 77.707 42.9053 77.6277 42.8298C77.5485 42.7543 77.5014 42.6513 77.4961 42.542V38.473Z" fill="white"/>
<path d="M79.9522 38.4859C79.9518 38.4295 79.9626 38.3736 79.9839 38.3215C80.0053 38.2693 80.0368 38.2219 80.0766 38.182C80.1164 38.1421 80.1637 38.1105 80.2158 38.089C80.2679 38.0675 80.3238 38.0566 80.3802 38.0569H80.4701C80.5589 38.0583 80.6458 38.0818 80.7232 38.1253C80.8005 38.1688 80.8658 38.2308 80.9132 38.3059L83.3372 41.4409V38.4649C83.3424 38.3574 83.3888 38.2561 83.4667 38.1819C83.5446 38.1077 83.6481 38.0664 83.7557 38.0664C83.8632 38.0664 83.9667 38.1077 84.0446 38.1819C84.1225 38.2561 84.1689 38.3574 84.1742 38.4649V42.5309C84.1752 42.5861 84.1652 42.641 84.1448 42.6923C84.1243 42.7435 84.0938 42.7902 84.0551 42.8295C84.0163 42.8689 83.9701 42.9 83.9191 42.9212C83.8681 42.9424 83.8134 42.9532 83.7582 42.9529H83.7242C83.6348 42.9505 83.5475 42.9259 83.4701 42.8812C83.3928 42.8365 83.3278 42.7731 83.2812 42.6969L80.7891 39.4719V42.5449C80.7839 42.6523 80.7375 42.7537 80.6596 42.8279C80.5817 42.902 80.4782 42.9434 80.3707 42.9434C80.2631 42.9434 80.1596 42.902 80.0817 42.8279C80.0038 42.7537 79.9574 42.6523 79.9522 42.5449V38.4859Z" fill="white"/>
<path d="M89.477 41.0469L87.809 38.7559C87.7459 38.6684 87.711 38.5637 87.709 38.4559C87.7097 38.4007 87.7215 38.3463 87.7436 38.2958C87.7657 38.2452 87.7977 38.1996 87.8376 38.1616C87.8776 38.1236 87.9248 38.094 87.9763 38.0744C88.0279 38.0549 88.0829 38.0459 88.138 38.0479C88.2235 38.0505 88.3069 38.0755 88.3798 38.1202C88.4528 38.1649 88.5128 38.2279 88.554 38.3029L89.903 40.2479L91.274 38.2959C91.3142 38.2215 91.373 38.1588 91.4447 38.1139C91.5164 38.0691 91.5985 38.0435 91.683 38.0399C91.7382 38.0376 91.7933 38.0468 91.8448 38.0669C91.8963 38.0871 91.9431 38.1176 91.9822 38.1567C92.0213 38.1958 92.0518 38.2426 92.0719 38.2941C92.092 38.3455 92.1012 38.4006 92.099 38.4559C92.0924 38.5659 92.0511 38.6709 91.981 38.7559L90.327 41.0189V42.5379C90.327 42.6509 90.2821 42.7592 90.2022 42.8391C90.1223 42.919 90.014 42.9639 89.901 42.9639C89.788 42.9639 89.6797 42.919 89.5998 42.8391C89.5199 42.7592 89.475 42.6509 89.475 42.5379L89.477 41.0469Z" fill="white"/>
<path d="M92.728 40.52V40.507C92.7392 39.8439 93.01 39.2117 93.4823 38.7461C93.9545 38.2805 94.5905 38.0187 95.2537 38.0169C95.9168 38.015 96.5543 38.2733 97.0291 38.7363C97.5039 39.1993 97.7781 39.83 97.793 40.493V40.507C97.7817 41.1701 97.5107 41.8022 97.0384 42.2677C96.5661 42.7332 95.93 42.9949 95.2669 42.9966C94.6037 42.9983 93.9664 42.7399 93.4917 42.2768C93.017 41.8137 92.7428 41.183 92.728 40.52ZM96.901 40.52V40.507C96.9099 40.2847 96.874 40.0629 96.7954 39.8547C96.7168 39.6466 96.5972 39.4563 96.4436 39.2953C96.2901 39.1343 96.1058 39.0058 95.9016 38.9175C95.6974 38.8291 95.4775 38.7827 95.255 38.781C95.0341 38.7813 94.8155 38.8264 94.6125 38.9134C94.4094 39.0004 94.2261 39.1277 94.0735 39.2874C93.9209 39.4472 93.8023 39.6362 93.7247 39.8431C93.6471 40.0499 93.6122 40.2703 93.622 40.491V40.505C93.6137 40.7268 93.6501 40.948 93.729 41.1554C93.808 41.3628 93.9279 41.5522 94.0816 41.7123C94.2352 41.8725 94.4196 42 94.6236 42.0874C94.8276 42.1748 95.0471 42.2202 95.269 42.221C95.4894 42.2216 95.7075 42.1775 95.9103 42.0915C96.1131 42.0054 96.2964 41.8791 96.449 41.7202C96.6017 41.5613 96.7205 41.3731 96.7984 41.167C96.8762 40.9609 96.9115 40.7411 96.902 40.521" fill="white"/>
<path d="M99.0562 40.874V38.474C99.0615 38.3647 99.1086 38.2616 99.1879 38.1862C99.2671 38.1107 99.3723 38.0686 99.4817 38.0686C99.5911 38.0686 99.6963 38.1107 99.7755 38.1862C99.8548 38.2616 99.9019 38.3647 99.9072 38.474V40.841C99.9072 41.741 100.371 42.219 101.132 42.219C101.893 42.219 102.35 41.769 102.35 40.876V38.476C102.355 38.3667 102.403 38.2636 102.482 38.1882C102.561 38.1127 102.666 38.0706 102.776 38.0706C102.885 38.0706 102.99 38.1127 103.07 38.1882C103.149 38.2636 103.196 38.3667 103.201 38.476V40.831C103.238 41.1173 103.21 41.4082 103.12 41.6823C103.029 41.9565 102.879 42.2069 102.679 42.4153C102.479 42.6237 102.235 42.7847 101.965 42.8866C101.695 42.9884 101.406 43.0286 101.118 43.004C100.835 43.0288 100.55 42.9901 100.284 42.8908C100.018 42.7914 99.7769 42.6339 99.5792 42.4298C99.3816 42.2256 99.232 41.9799 99.1413 41.7106C99.0506 41.4413 99.0212 41.1551 99.0552 40.873" fill="white"/>
<path d="M104.68 38.5141C104.679 38.4575 104.69 38.4014 104.711 38.349C104.732 38.2966 104.764 38.2489 104.804 38.2089C104.844 38.1689 104.891 38.1374 104.944 38.1161C104.996 38.0948 105.052 38.0843 105.109 38.0851H106.839C107.351 38.0564 107.854 38.2303 108.239 38.5691C108.505 38.8508 108.649 39.2266 108.639 39.6141V39.6281C108.651 39.9591 108.548 40.2839 108.347 40.5475C108.147 40.8111 107.861 40.9972 107.539 41.0741L108.466 42.2441C108.551 42.3316 108.6 42.4473 108.605 42.5691C108.604 42.6219 108.593 42.674 108.572 42.7225C108.551 42.771 108.521 42.8148 108.483 42.8516C108.445 42.8883 108.4 42.9171 108.351 42.9364C108.302 42.9558 108.25 42.9651 108.197 42.9641C108.115 42.9651 108.033 42.9453 107.96 42.9065C107.888 42.8677 107.826 42.8112 107.781 42.7421L106.605 41.2421H105.532V42.5421C105.527 42.6514 105.48 42.7544 105.4 42.8299C105.321 42.9054 105.216 42.9475 105.106 42.9475C104.997 42.9475 104.892 42.9054 104.813 42.8299C104.733 42.7544 104.686 42.6514 104.681 42.5421L104.68 38.5141ZM106.78 40.4861C107.389 40.4861 107.78 40.1671 107.78 39.6761V39.6631C107.78 39.1441 107.406 38.8631 106.78 38.8631H105.541V40.4901L106.78 40.4861Z" fill="white"/>
<path d="M112.379 38.4859C112.379 38.4295 112.39 38.3737 112.411 38.3215C112.432 38.2693 112.464 38.2219 112.504 38.182C112.543 38.1421 112.591 38.1105 112.643 38.089C112.695 38.0676 112.751 38.0566 112.807 38.0569H112.898C112.978 38.0562 113.057 38.077 113.126 38.1171C113.196 38.1572 113.253 38.2152 113.292 38.2849L114.759 40.5849L116.233 38.2849C116.271 38.216 116.328 38.1589 116.396 38.1199C116.465 38.081 116.542 38.0616 116.621 38.0639H116.711C116.768 38.0636 116.823 38.0746 116.876 38.096C116.928 38.1175 116.975 38.1491 117.015 38.189C117.055 38.2288 117.087 38.2762 117.108 38.3284C117.13 38.3806 117.14 38.4365 117.14 38.4929V42.5489C117.14 42.6049 117.129 42.6605 117.108 42.7122C117.086 42.7639 117.054 42.8108 117.014 42.8501C116.974 42.8894 116.927 42.9203 116.875 42.9411C116.823 42.9618 116.767 42.972 116.711 42.9709C116.6 42.9691 116.494 42.9241 116.415 42.8453C116.336 42.7666 116.291 42.6603 116.289 42.5489V39.6349L115.105 41.4139C115.072 41.4794 115.021 41.5344 114.958 41.5728C114.895 41.6112 114.823 41.6315 114.749 41.6315C114.676 41.6315 114.603 41.6112 114.541 41.5728C114.478 41.5344 114.427 41.4794 114.393 41.4139L113.217 39.6489V42.5489C113.217 42.604 113.206 42.6586 113.185 42.7095C113.164 42.7604 113.133 42.8065 113.093 42.8452C113.054 42.8838 113.008 42.9142 112.956 42.9346C112.905 42.955 112.85 42.965 112.795 42.9639C112.74 42.965 112.686 42.955 112.635 42.9345C112.584 42.9141 112.538 42.8835 112.499 42.8448C112.461 42.806 112.43 42.7598 112.41 42.709C112.389 42.6582 112.379 42.6037 112.38 42.5489L112.379 38.4859Z" fill="white"/>
<path d="M118.48 40.5201V40.5071C118.478 39.8353 118.743 39.1902 119.217 38.7139C119.691 38.2376 120.334 37.9689 121.006 37.9671C121.678 37.9652 122.323 38.2303 122.799 38.704C123.275 39.1777 123.544 39.8213 123.546 40.4931V40.5071C123.548 41.1788 123.282 41.8238 122.809 42.3001C122.335 42.7763 121.691 43.0448 121.019 43.0465C120.348 43.0483 119.703 42.7831 119.226 42.3093C118.75 41.8354 118.482 41.1918 118.48 40.5201ZM122.653 40.5201V40.5071C122.662 40.2847 122.626 40.0628 122.547 39.8545C122.469 39.6463 122.349 39.456 122.195 39.295C122.042 39.134 121.857 39.0055 121.653 38.9172C121.449 38.8289 121.229 38.7826 121.006 38.7811C120.785 38.7812 120.566 38.8262 120.363 38.9131C120.16 39.0001 119.976 39.1273 119.824 39.2871C119.671 39.4469 119.552 39.6359 119.475 39.8429C119.397 40.0498 119.362 40.2703 119.372 40.4911V40.5051C119.364 40.7268 119.4 40.948 119.479 41.1554C119.558 41.3629 119.678 41.5523 119.832 41.7124C119.985 41.8725 120.17 42.0001 120.374 42.0874C120.578 42.1748 120.797 42.2203 121.019 42.221C121.239 42.2217 121.458 42.1776 121.66 42.0915C121.863 42.0055 122.047 41.8792 122.199 41.7203C122.352 41.5614 122.471 41.3732 122.549 41.1671C122.627 40.961 122.662 40.7402 122.653 40.5201Z" fill="white"/>
<path d="M124.886 38.4859C124.886 38.4295 124.896 38.3736 124.918 38.3215C124.939 38.2693 124.971 38.2219 125.01 38.182C125.05 38.1421 125.098 38.1105 125.15 38.089C125.202 38.0675 125.258 38.0566 125.314 38.0569H125.405C125.494 38.0585 125.581 38.0821 125.658 38.1256C125.735 38.169 125.801 38.231 125.848 38.3059L128.271 41.4409V38.4649C128.276 38.3574 128.323 38.2561 128.401 38.1819C128.478 38.1077 128.582 38.0664 128.689 38.0664C128.797 38.0664 128.901 38.1077 128.978 38.1819C129.056 38.2561 129.103 38.3574 129.108 38.4649V42.5309C129.109 42.5861 129.099 42.641 129.079 42.6923C129.058 42.7435 129.028 42.7902 128.989 42.8295C128.95 42.8689 128.904 42.9 128.853 42.9212C128.802 42.9424 128.747 42.9532 128.692 42.9529H128.657C128.568 42.9504 128.48 42.9257 128.403 42.881C128.326 42.8363 128.261 42.773 128.214 42.6969L125.727 39.4749V42.5479C125.722 42.6553 125.675 42.7567 125.597 42.8309C125.52 42.905 125.416 42.9464 125.308 42.9464C125.201 42.9464 125.097 42.905 125.02 42.8309C124.942 42.7567 124.895 42.6553 124.89 42.5479L124.886 38.4859Z" fill="white"/>
<path d="M130.661 42.496V38.514C130.66 38.4574 130.67 38.4012 130.691 38.3487C130.712 38.2961 130.744 38.2484 130.784 38.2083C130.824 38.1682 130.871 38.1365 130.924 38.1151C130.976 38.0938 131.032 38.0832 131.089 38.084H133.906C134.007 38.0851 134.103 38.1255 134.174 38.1968C134.245 38.268 134.286 38.3643 134.287 38.465C134.287 38.5151 134.277 38.5647 134.258 38.611C134.239 38.6573 134.211 38.6993 134.176 38.7347C134.14 38.7701 134.098 38.7982 134.052 38.8173C134.006 38.8364 133.956 38.8462 133.906 38.846H131.513V40.105H133.596C133.698 40.1063 133.795 40.1479 133.866 40.2206C133.937 40.2933 133.977 40.3913 133.976 40.493C133.975 40.5929 133.934 40.6884 133.863 40.7584C133.792 40.8285 133.696 40.8676 133.596 40.867H131.513V42.167H133.942C134.043 42.1681 134.139 42.2085 134.21 42.2798C134.281 42.351 134.322 42.4473 134.323 42.548C134.323 42.598 134.313 42.6475 134.294 42.6937C134.275 42.7398 134.247 42.7818 134.211 42.8171C134.176 42.8524 134.134 42.8804 134.088 42.8994C134.041 42.9184 133.992 42.9282 133.942 42.928H131.09C131.033 42.9288 130.977 42.9183 130.925 42.897C130.873 42.8757 130.825 42.8441 130.785 42.8041C130.745 42.7641 130.714 42.7165 130.693 42.6641C130.671 42.6117 130.661 42.5555 130.662 42.499" fill="white"/>
<path d="M136.971 41.0469L135.302 38.7559C135.239 38.6684 135.204 38.5637 135.202 38.4559C135.203 38.4008 135.214 38.3464 135.236 38.2958C135.258 38.2453 135.29 38.1997 135.33 38.1617C135.37 38.1237 135.417 38.094 135.469 38.0745C135.52 38.0549 135.575 38.0459 135.63 38.0479C135.716 38.0505 135.799 38.0755 135.872 38.1202C135.945 38.1649 136.005 38.2279 136.046 38.3029L137.395 40.2479L138.766 38.2959C138.806 38.2217 138.865 38.1591 138.937 38.1143C139.008 38.0694 139.09 38.0438 139.174 38.0399C139.229 38.0376 139.284 38.0468 139.336 38.0669C139.387 38.0871 139.434 38.1176 139.473 38.1567C139.512 38.1958 139.543 38.2426 139.563 38.2941C139.583 38.3455 139.592 38.4006 139.59 38.4559C139.584 38.5659 139.542 38.6709 139.472 38.7559L137.818 41.0189V42.5379C137.813 42.6472 137.766 42.7502 137.686 42.8257C137.607 42.9011 137.502 42.9433 137.393 42.9433C137.283 42.9433 137.178 42.9011 137.099 42.8257C137.02 42.7502 136.972 42.6472 136.967 42.5379L136.971 41.0469Z" fill="white"/>
</g>
</svg>
