<svg width="218" height="221" viewBox="0 0 218 221" fill="none" xmlns="http://www.w3.org/2000/svg">
<path d="M139.52 191.502C139.52 191.502 139.74 186.912 137.52 185.862L137.68 185.722C138.307 185.993 138.864 186.405 139.308 186.925C139.752 187.445 140.07 188.059 140.24 188.722C140.58 189.862 140.32 190.112 140.33 190.152L139.52 191.502Z" fill="#9BBE20"/>
<path d="M124.95 179.712C124.95 179.712 125.7 185.562 129.27 187.282C132.84 189.002 137.88 185.912 137.88 185.912C137.88 185.912 137.13 180.062 133.56 178.342C129.99 176.622 124.95 179.712 124.95 179.712Z" fill="#BBD951"/>
<path d="M139.14 200.032C138.682 196.138 139.088 192.191 140.33 188.472C141.507 185.051 141.803 181.388 141.19 177.822H142.63C142.644 181.708 142.177 185.58 141.24 189.352C139.86 195.232 142.43 200.032 141.88 200.032H139.14Z" fill="#9BBE20"/>
<path d="M142.15 184.212C142.15 184.212 142.84 180.262 144.68 179.812C144.161 179.904 143.67 180.115 143.245 180.427C142.82 180.739 142.473 181.144 142.23 181.612C141.8 182.422 141.95 182.612 141.94 182.692L142.15 184.212Z" fill="#9BBE20"/>
<path d="M148.06 184.622C145.31 184.062 143.77 180.172 143.77 180.172C143.77 180.172 146.7 177.172 149.45 177.742C152.2 178.312 153.74 182.182 153.74 182.182C153.74 182.182 150.81 185.182 148.06 184.622Z" fill="#9BBE20"/>
<path d="M126.68 171.942C125.111 169.559 124.284 166.764 124.303 163.911C124.322 161.057 125.187 158.274 126.788 155.912C128.389 153.55 130.654 151.716 133.297 150.641C135.94 149.566 138.842 149.299 141.637 149.873C144.432 150.447 146.994 151.837 148.999 153.868C151.004 155.898 152.363 158.477 152.902 161.278C153.442 164.08 153.139 166.979 152.031 169.609C150.924 172.238 149.062 174.481 146.68 176.052C145.097 177.096 143.324 177.819 141.462 178.177C139.6 178.536 137.686 178.524 135.828 178.142C133.971 177.761 132.207 177.017 130.637 175.953C129.067 174.889 127.723 173.526 126.68 171.942Z" fill="#FFC53E"/>
<path d="M146.05 175.122C143.51 176.792 140.47 177.53 137.447 177.211C134.425 176.891 131.606 175.533 129.472 173.368C127.338 171.204 126.021 168.366 125.744 165.339C125.467 162.312 126.249 159.283 127.955 156.768C129.661 154.252 132.187 152.406 135.101 151.543C138.016 150.681 141.14 150.856 143.94 152.038C146.74 153.22 149.044 155.337 150.459 158.027C151.874 160.717 152.312 163.815 151.7 166.792C151.352 168.484 150.674 170.09 149.704 171.519C148.735 172.949 147.493 174.173 146.05 175.122ZM132.05 153.822C133.371 156.451 135.681 158.447 138.474 159.373C141.266 160.3 144.312 160.079 146.942 158.761C149.572 157.443 151.571 155.134 152.5 152.343C153.429 149.551 153.212 146.505 151.896 143.874C150.58 141.242 148.274 139.241 145.483 138.309C142.693 137.377 139.647 137.592 137.014 138.905C134.381 140.218 132.377 142.522 131.443 145.312C130.508 148.101 130.719 151.148 132.03 153.782" fill="#FFA412"/>
<path d="M142.43 166.302C142.319 166.072 142.171 165.862 141.99 165.682C141.811 165.522 141.599 165.402 141.37 165.332C141.094 165.252 140.807 165.212 140.52 165.212C140.135 165.213 139.751 165.24 139.37 165.292C138.673 165.384 137.972 165.441 137.27 165.462C136.674 165.482 136.079 165.421 135.5 165.282C134.979 165.152 134.492 164.913 134.07 164.582C133.198 163.843 132.652 162.79 132.55 161.652C132.52 161.141 132.598 160.63 132.78 160.152C132.977 159.643 133.261 159.173 133.62 158.762C134.027 158.306 134.499 157.912 135.02 157.592L134.02 155.642L135.59 154.852L136.59 156.852C137.152 156.651 137.743 156.543 138.34 156.532C138.894 156.521 139.445 156.621 139.96 156.825C140.475 157.029 140.944 157.334 141.34 157.722C141.782 158.161 142.147 158.672 142.42 159.232L139.59 160.652C139.335 160.046 138.87 159.553 138.28 159.262C138.026 159.163 137.754 159.122 137.483 159.141C137.211 159.16 136.947 159.239 136.71 159.372C136.447 159.493 136.21 159.663 136.01 159.872C135.851 160.046 135.728 160.25 135.65 160.472C135.605 160.69 135.605 160.914 135.65 161.132C135.69 161.368 135.764 161.597 135.87 161.812C135.967 162.022 136.103 162.212 136.27 162.372C136.439 162.526 136.641 162.638 136.86 162.702C137.137 162.792 137.428 162.832 137.72 162.822C138.121 162.824 138.522 162.8 138.92 162.752C139.67 162.672 140.37 162.632 141.02 162.612C141.616 162.599 142.212 162.666 142.79 162.812C143.339 162.942 143.85 163.197 144.285 163.555C144.72 163.914 145.068 164.368 145.3 164.882C145.559 165.371 145.709 165.91 145.74 166.462C145.77 166.974 145.688 167.486 145.5 167.962C145.301 168.466 145.013 168.93 144.65 169.332C144.231 169.78 143.753 170.171 143.23 170.492L144.13 172.312L142.57 173.092L141.67 171.292C141.106 171.505 140.518 171.65 139.92 171.722C139.335 171.8 138.74 171.763 138.17 171.612C137.587 171.451 137.045 171.168 136.58 170.782C136.035 170.312 135.596 169.733 135.29 169.082L138.12 167.662C138.294 168.041 138.542 168.381 138.85 168.662C139.084 168.881 139.369 169.036 139.68 169.112C139.966 169.176 140.263 169.176 140.55 169.112C140.844 169.052 141.13 168.954 141.4 168.822C141.675 168.688 141.928 168.513 142.15 168.302C142.33 168.124 142.47 167.909 142.56 167.672C142.648 167.46 142.682 167.23 142.66 167.002C142.644 166.763 142.576 166.531 142.46 166.322" fill="#FFA412"/>
<path d="M153.56 198.642L153.27 203.062L152.2 219.472H132.2L131.06 203.302L130.74 198.842V198.642H153.56Z" fill="#1B404F"/>
<path d="M153.56 198.652L153.27 203.072C149.681 201.881 145.922 201.283 142.14 201.302C138.349 201.207 134.579 201.888 131.06 203.302L130.74 198.842L153.56 198.652Z" fill="#265365"/>
<path d="M154.25 200.972H129.99L129.72 198.152H154.56L154.25 200.972Z" fill="#1B404F"/>
<path d="M152.51 220.362H131.81L131.57 219.362H152.77L152.51 220.362Z" fill="#265365"/>
<path d="M86.5601 130.922C86.5601 130.802 87.2201 117.092 80.5601 113.922L81.0301 113.472C84.0301 114.532 87.4301 117.802 88.7701 122.422C89.7701 125.862 89.0101 126.612 89.0201 126.742L86.5601 130.922Z" fill="#0DD967"/>
<path d="M69.27 103.772C69.27 103.772 68.51 110.772 72.2 113.772C75.89 116.772 82.64 114.582 82.64 114.582C82.64 114.582 83.4 107.582 79.71 104.582C76.02 101.582 69.27 103.772 69.27 103.772Z" fill="#00BF90"/>
<path d="M85.4301 156.632C84.0405 144.902 85.2701 133.01 89.0301 121.812C92.5597 111.503 93.4502 100.474 91.6201 89.7319H95.9401C96.0501 90.3519 96.3501 104.732 91.7501 124.452C87.6101 142.182 95.3401 156.632 93.7501 156.632H85.4301Z" fill="#0DD967"/>
<path d="M94.5002 108.982C94.5002 108.892 96.5802 97.0617 102.13 95.7217C100.565 95.9906 99.0838 96.618 97.8018 97.5548C96.5197 98.4916 95.4719 99.7124 94.7402 101.122C93.4302 103.572 93.8902 104.272 93.8602 104.372L94.5002 108.982Z" fill="#0DD967"/>
<path d="M72.3001 77.6117C72.3001 77.6117 66.3001 69.1617 59.5201 66.6817C59.5201 66.6817 62.0601 86.4917 58.3501 86.7417C54.6401 86.9917 57.1101 64.4617 57.1101 64.4617C57.1101 64.4617 39.4101 54.6317 32.2201 54.9017C32.2201 54.9017 42.4001 74.7017 38.7401 74.0217C35.0801 73.3417 23.5301 53.2417 23.5301 53.2417C23.5301 53.2417 5.06013 48.6817 1.41013 59.5717C-2.23987 70.4617 2.28013 76.2817 5.01013 77.1417C7.74013 78.0017 25.5001 78.8017 24.8701 81.0817C24.2401 83.3617 12.1101 86.3017 5.55013 83.8817C5.55013 83.8817 11.8601 102.522 21.5501 102.172C31.2401 101.822 34.6401 95.9917 40.6601 95.8817C46.6801 95.7717 50.9701 97.6417 47.8801 99.0817C44.7901 100.522 34.7001 98.8417 29.6201 102.682C24.5401 106.522 20.4701 108.812 29.3501 111.192C38.2301 113.572 51.6401 110.882 58.0101 106.642C58.0101 106.642 63.2201 106.222 67.3101 130.252C68.8801 139.512 67.6701 153.252 67.6701 153.252L70.9701 152.752C71.9103 135.933 69.2193 119.108 63.0801 103.422C63.0801 103.422 79.5701 91.2317 72.2801 77.6117" fill="#00BF54"/>
<path d="M126.25 113.162C126.25 113.162 106.38 104.812 113.49 89.6218C113.49 89.6218 119.49 80.1018 126.7 77.0218C126.7 77.0218 125.11 98.6518 129.15 98.6918C133.19 98.7318 129.15 74.4618 129.15 74.4618C129.15 74.4618 147.76 62.7618 155.57 62.6418C155.57 62.6418 145.7 84.7018 149.63 83.7518C153.56 82.8018 164.94 60.3018 164.94 60.3018C164.94 60.3018 184.7 54.3018 189.29 65.8718C193.88 77.4418 189.29 84.0418 186.42 85.1318C183.55 86.2218 164.3 88.1318 165.08 90.5718C165.86 93.0118 179.27 95.5718 186.24 92.4718C186.24 92.4718 180.5 113.052 169.92 113.242C159.34 113.432 155.37 107.302 148.87 107.572C142.37 107.842 137.8 110.092 141.24 111.472C144.68 112.852 155.51 110.472 161.24 114.292C166.97 118.112 171.52 120.402 162.03 123.502C152.54 126.602 134.87 127.302 130.58 120.242L126.25 113.162Z" fill="#00BF90"/>
<path d="M180.49 70.6719C180.49 70.6719 130.08 93.5419 126.24 113.162C126.785 119.556 125.783 125.987 123.32 131.912L123.74 135.652C123.74 135.652 127.74 122.322 130.58 120.242C130.58 120.242 117 105.122 180.49 70.6719Z" fill="#0DD967"/>
<path d="M123.32 131.912C123.32 131.912 116.64 145.082 122.93 159.482L124.93 158.682C124.93 158.682 121.05 142.482 124.34 133.742C127.63 125.002 123.34 131.912 123.34 131.912" fill="#0DD967"/>
<path d="M50.47 22.7119C58.62 31.3719 54.38 48.5919 54.38 48.5919C54.38 48.5919 36.94 51.7519 28.79 43.0819C20.64 34.4119 24.87 17.2019 24.87 17.2019C24.87 17.2019 42.32 14.0419 50.46 22.7119" fill="#0DD967"/>
<path d="M50.4701 22.7119C58.6201 31.3719 54.3801 48.5919 54.3801 48.5919L24.8701 17.2019C24.8701 17.2019 42.3101 14.0419 50.4601 22.7119" fill="#00BF54"/>
<path d="M155.52 55.722C151.27 60.642 141.66 59.322 141.66 59.322C141.66 59.322 138.95 50.012 143.2 45.092C147.45 40.172 157.06 41.492 157.06 41.492C157.06 41.492 159.77 50.802 155.52 55.722Z" fill="#0DD967"/>
<path d="M105.28 99.032C102.43 99.822 99.1301 96.902 99.1301 96.902C99.1301 96.902 100.46 92.702 103.31 91.902C106.16 91.102 109.45 94.032 109.45 94.032C109.45 94.032 108.13 98.232 105.28 99.032Z" fill="#00BF90"/>
<path d="M54.97 6.63189C56.97 11.2619 52.71 17.4619 52.71 17.4619C52.71 17.4619 45.33 16.1519 43.38 11.5219C41.43 6.89189 45.6401 0.691895 45.6401 0.691895C45.6401 0.691895 53.01 2.00189 54.97 6.63189Z" fill="#0DD967"/>
<path d="M51.0602 51.2121C49.9844 42.6818 51.4623 34.024 55.3071 26.3337C59.152 18.6434 65.191 12.266 72.6604 8.00794C80.1299 3.74992 88.6943 1.80256 97.2706 2.41215C105.847 3.02174 114.05 6.16089 120.842 11.4326C127.634 16.7043 132.71 23.8718 135.429 32.0286C138.147 40.1854 138.386 48.9652 136.114 57.2576C133.842 65.55 129.163 72.9825 122.667 78.6152C116.171 84.2479 108.151 87.8278 99.6202 88.9021C88.1829 90.3425 76.6418 87.181 67.5353 80.1129C58.4288 73.0449 52.5026 62.6491 51.0602 51.2121Z" fill="#E2810E"/>
<path d="M47.3 51.6918C46.2245 43.1619 47.7025 34.5047 51.5471 26.8148C55.3916 19.1249 61.4302 12.7477 68.8991 8.48966C76.368 4.23161 84.9318 2.28393 93.5076 2.8929C102.083 3.50187 110.286 6.64015 117.078 11.9109C123.871 17.1816 128.947 24.3481 131.667 32.5041C134.386 40.6601 134.626 49.4394 132.356 57.7317C130.086 66.024 125.408 73.4569 118.913 79.0905C112.419 84.7242 104.4 88.3056 95.87 89.3818C90.2061 90.0964 84.4568 89.6884 78.9506 88.181C73.4443 86.6736 68.2889 84.0964 63.7787 80.5965C59.2685 77.0966 55.4919 72.7426 52.6645 67.7831C49.837 62.8237 48.0142 57.3558 47.3 51.6918Z" fill="#FFC53E"/>
<path d="M95.44 86.0618C86.3473 87.2073 77.1387 85.1643 69.3834 80.2811C61.6282 75.3978 55.8062 67.9765 52.9096 59.2817C50.013 50.5869 50.2211 41.1567 53.4983 32.5981C56.7755 24.0395 62.9191 16.8821 70.8822 12.3456C78.8452 7.80911 88.1349 6.17425 97.1683 7.71961C106.202 9.26497 114.42 13.8949 120.422 20.8205C126.424 27.746 129.839 36.5386 130.085 45.6999C130.331 54.8612 127.392 63.8243 121.77 71.0618C115.328 79.3541 105.858 84.7494 95.44 86.0618ZM85.87 9.82179C78.5621 10.742 71.6912 13.8087 66.1262 18.634C60.5612 23.4592 56.5522 29.8264 54.606 36.9303C52.6598 44.0341 52.8639 51.5556 55.1926 58.5434C57.5212 65.5313 61.8697 71.6716 67.6883 76.188C73.5068 80.7043 80.5339 83.3938 87.881 83.9162C95.228 84.4387 102.565 82.7707 108.964 79.1232C115.363 75.4756 120.537 70.0124 123.831 63.4244C127.125 56.8364 128.391 49.4196 127.47 42.1118C126.235 32.3137 121.158 23.4075 113.357 17.3521C105.555 11.2967 95.6683 8.588 85.87 9.82179Z" fill="#FFA412"/>
<path d="M97.3301 57.4917C97.339 56.7185 97.2104 55.9498 96.9501 55.2217C96.6921 54.547 96.2813 53.9412 95.7501 53.4517C95.1117 52.8634 94.3907 52.3715 93.6101 51.9917C92.5778 51.4781 91.5081 51.0435 90.4101 50.6917C88.4056 50.0106 86.4365 49.2296 84.5101 48.3517C82.8719 47.6154 81.3412 46.66 79.9601 45.5117C78.7029 44.4752 77.6803 43.1833 76.9601 41.7217C75.5756 38.5449 75.5073 34.9488 76.7701 31.7217C77.3709 30.296 78.2634 29.0119 79.3901 27.9517C80.5897 26.8411 81.9782 25.9538 83.4901 25.3317C85.2082 24.6382 87.0227 24.2132 88.8701 24.0717V17.4917H94.1701V24.1517C95.9626 24.3537 97.7095 24.8504 99.3401 25.6217C100.853 26.3161 102.211 27.3079 103.333 28.538C104.455 29.768 105.318 31.2113 105.87 32.7817C106.489 34.5593 106.8 36.4294 106.79 38.3117L97.2301 38.3817C97.2301 35.9217 96.6734 34.0884 95.5601 32.8817C95.0024 32.2789 94.3195 31.8055 93.5594 31.4945C92.7993 31.1836 91.9804 31.0427 91.1601 31.0817C90.291 31.0682 89.4267 31.2139 88.6101 31.5117C87.9427 31.7601 87.3383 32.1528 86.8401 32.6617C86.3853 33.1552 86.044 33.7423 85.8401 34.3817C85.6172 35.0657 85.5124 35.7826 85.5301 36.5017C85.5291 37.1828 85.6441 37.8592 85.8701 38.5017C86.0919 39.1814 86.4724 39.7984 86.9801 40.3017C87.6274 40.8881 88.3546 41.3797 89.1401 41.7617C90.2256 42.2922 91.3408 42.7596 92.4801 43.1617C94.6201 43.9417 96.5701 44.7484 98.3301 45.5817C99.9657 46.3089 101.493 47.2578 102.87 48.4017C104.172 49.4921 105.209 50.8647 105.902 52.4154C106.595 53.966 106.926 55.6541 106.87 57.3517C106.91 59.0175 106.6 60.6733 105.96 62.2117C105.354 63.6307 104.454 64.9054 103.32 65.9517C102.109 67.0449 100.71 67.909 99.1901 68.5017C97.4587 69.1747 95.6406 69.5989 93.7901 69.7617V75.8717H88.5301V69.7917C86.719 69.626 84.9353 69.2364 83.2201 68.6317C81.5474 68.0495 79.9976 67.1611 78.6501 66.0117C77.2792 64.8082 76.1872 63.3203 75.4501 61.6517C74.5912 59.661 74.1684 57.5094 74.2101 55.3417L83.8001 55.3017C83.771 56.5421 83.9885 57.776 84.4401 58.9317C84.7921 59.8426 85.358 60.6554 86.0901 61.3017C86.7708 61.8734 87.5701 62.2867 88.4301 62.5117C89.2979 62.7406 90.1926 62.8516 91.0901 62.8417C92.017 62.8529 92.9394 62.711 93.8201 62.4217C94.5573 62.1913 95.2385 61.8099 95.8201 61.3017C96.3365 60.8391 96.7402 60.2645 97.0001 59.6217C97.2615 58.9494 97.3905 58.2329 97.3801 57.5117" fill="#FFA412"/>
<path d="M128.87 152.432L128 166.302L124.78 217.622H64.6201L61.0801 167.002L60.0801 153.052V152.442L128.87 152.432Z" fill="#1B404F"/>
<path d="M128.87 152.472L128.01 165.782C117.194 162.189 105.867 160.375 94.4701 160.412C73.7501 160.412 61.0901 166.412 61.0901 166.412L60.0901 152.972L128.87 152.472Z" fill="#265365"/>
<path d="M130.95 159.472H57.87L57.03 150.972H131.87L130.95 159.472Z" fill="#1B404F"/>
<path d="M125.7 220.352H63.3201L62.6101 217.302H126.5L125.7 220.352Z" fill="#265365"/>
<path d="M41.2101 128.002C39.8701 129.822 41.0501 133.002 41.0501 133.002C41.0501 133.002 44.4201 133.202 45.7601 131.382C47.1001 129.562 45.9201 126.382 45.9201 126.382C45.9201 126.382 42.5501 126.182 41.2101 127.992" fill="#4DC89B"/>
<path d="M32.73 192.812C32.1001 187.537 32.6501 182.188 34.34 177.152C35.9288 172.515 36.3311 167.554 35.51 162.722H37.45C37.4672 167.973 36.8358 173.206 35.57 178.302C33.71 186.302 37.18 192.772 36.44 192.772L32.73 192.812Z" fill="#00BF90"/>
<path d="M36.81 171.382C36.81 171.382 37.74 166.022 40.24 165.382C39.526 165.503 38.8499 165.788 38.265 166.215C37.6802 166.641 37.2026 167.199 36.87 167.842C36.29 168.952 36.49 169.262 36.48 169.302L36.81 171.382Z" fill="#00BF90"/>
<path d="M32.2 170.132C32.2 170.132 29.76 166.132 26.78 164.862C26.78 164.862 27.34 173.862 25.67 173.862C24 173.862 25.76 163.862 25.76 163.862C25.76 163.862 18.1 158.942 14.86 158.862C14.86 158.862 18.86 168.042 17.23 167.632C15.6 167.222 11.01 157.862 11.01 157.862C11.01 157.862 2.87001 155.202 0.870012 159.982C-1.12999 164.762 0.780012 167.502 1.98001 167.982C3.18001 168.462 11.16 169.302 10.87 170.302C10.58 171.302 4.97001 172.302 2.10001 171.002C2.10001 171.002 4.39001 179.552 8.77001 179.682C13.15 179.812 14.77 177.282 17.53 177.412C20.29 177.542 22.1 178.502 20.68 179.052C19.26 179.602 14.77 178.562 12.38 180.142C9.99001 181.722 8.09001 182.632 12.01 183.952C16.3488 185.114 20.9601 184.685 25.01 182.742C25.01 182.742 27.36 182.742 28.5 193.602C28.6889 197.057 28.5214 200.522 28 203.942L29.5 203.812C30.4003 196.29 29.6774 188.661 27.38 181.442C27.38 181.442 35.14 176.442 32.26 170.122" fill="#0DD967"/>
<path d="M41.6601 166.902C40.3701 167.262 38.8901 165.952 38.8901 165.952C38.8901 165.952 39.4901 164.052 40.7701 163.702C42.0501 163.352 43.5301 164.702 43.5301 164.702C43.5301 164.702 42.9401 166.592 41.6601 166.942" fill="#00BF90"/>
<path d="M56.4 138.002C51.92 140.942 51.96 148.902 51.96 148.902C51.96 148.902 59.26 152.132 63.73 149.192C68.2 146.252 68.17 138.302 68.17 138.302C68.17 138.302 60.88 135.082 56.4 138.012" fill="#00BF90"/>
<path d="M56.4 138.002C51.92 140.942 51.96 148.902 51.96 148.902L68.17 138.302C68.17 138.302 60.88 135.082 56.4 138.012" fill="#0DD967"/>
<path d="M17.27 145.392C16.7182 140.906 17.7383 136.368 20.1566 132.55C22.5749 128.732 26.2419 125.87 30.5331 124.453C34.8242 123.035 39.4743 123.148 43.6913 124.773C47.9083 126.399 51.4315 129.436 53.6609 133.367C55.8903 137.298 56.6881 141.881 55.9183 146.334C55.1486 150.787 52.8589 154.836 49.4392 157.791C46.0196 160.746 41.6814 162.424 37.1635 162.539C32.6456 162.655 28.2273 161.201 24.661 158.425C22.6326 156.845 20.9357 154.881 19.6675 152.644C18.3992 150.408 17.5845 147.943 17.27 145.392Z" fill="#E2810E"/>
<path d="M15.58 145.612C15.0961 141.776 15.7607 137.882 17.4897 134.423C19.2188 130.965 21.9347 128.096 25.2939 126.181C28.6531 124.266 32.5047 123.39 36.3618 123.664C40.2188 123.938 43.908 125.35 46.9627 127.721C50.0174 130.092 52.3004 133.315 53.5232 136.983C54.7459 140.652 54.8533 144.6 53.8318 148.33C52.8104 152.059 50.7059 155.402 47.7846 157.935C44.8633 160.468 41.2564 162.079 37.42 162.562C32.2762 163.21 27.0856 161.788 22.9899 158.61C18.8942 155.431 16.2288 150.756 15.58 145.612Z" fill="#FFC53E"/>
<path d="M37.2301 161.072C37.2327 163.153 38.0616 165.148 39.5346 166.618C41.0075 168.088 43.004 168.913 45.0851 168.912C47.1662 168.911 49.1616 168.083 50.6326 166.611C52.1037 165.139 52.9301 163.143 52.9301 161.062C52.9301 158.981 52.1037 156.985 50.6326 155.513C49.1616 154.041 47.1662 153.213 45.0851 153.212C43.004 153.211 41.0075 154.036 39.5346 155.506C38.0616 156.976 37.2327 158.971 37.2301 161.052M32.8701 126.782C29.5858 127.203 26.5 128.589 24.0027 130.763C21.5054 132.937 19.7085 135.803 18.8391 138.998C17.9697 142.193 18.0668 145.574 19.1182 148.714C20.1695 151.854 22.1279 154.612 24.7459 156.639C27.3639 158.666 30.524 159.872 33.8271 160.105C37.1302 160.337 40.428 159.585 43.3038 157.943C46.1797 156.302 48.5045 153.845 49.9847 150.883C51.4649 147.921 52.034 144.587 51.6201 141.302C51.3435 139.117 50.6389 137.008 49.5466 135.095C48.4544 133.183 46.9959 131.504 45.2545 130.156C43.5132 128.807 41.5231 127.815 39.3981 127.236C37.2731 126.657 35.0548 126.503 32.8701 126.782Z" fill="#FFA412"/>
<path d="M38.08 148.222C38.0823 147.881 38.0248 147.543 37.91 147.222C37.7946 146.917 37.6097 146.643 37.37 146.422C37.0726 146.152 36.7353 145.929 36.37 145.762C35.9041 145.535 35.423 145.341 34.93 145.182C34.02 144.872 33.14 144.522 32.27 144.132C31.5481 143.799 30.8751 143.368 30.27 142.852C29.7163 142.383 29.2667 141.804 28.95 141.152C28.331 139.729 28.2986 138.119 28.86 136.672C29.1283 136.031 29.5306 135.455 30.04 134.982C30.5735 134.476 31.1933 134.069 31.87 133.782C32.6414 133.461 33.4577 133.262 34.29 133.192V130.192H36.67V133.192C37.4738 133.286 38.2572 133.508 38.99 133.852C39.6626 134.177 40.2637 134.632 40.7582 135.192C41.2527 135.752 41.6307 136.404 41.87 137.112C42.1413 137.914 42.2798 138.755 42.28 139.602H37.98C38.0389 138.71 37.7684 137.828 37.22 137.122C36.9678 136.847 36.6572 136.633 36.311 136.494C35.9648 136.356 35.592 136.297 35.22 136.322C34.8273 136.313 34.4366 136.381 34.07 136.522C33.7693 136.631 33.4962 136.805 33.27 137.032C33.0656 137.253 32.912 137.515 32.82 137.802C32.7138 138.124 32.6664 138.463 32.68 138.802C32.6803 139.115 32.7309 139.425 32.83 139.722C32.9419 140.012 33.1199 140.272 33.35 140.482C33.6483 140.751 33.9854 140.973 34.35 141.142C34.8374 141.381 35.3382 141.591 35.85 141.772C36.85 142.122 37.69 142.492 38.49 142.862C39.2095 143.204 39.8817 143.638 40.49 144.152C41.0762 144.637 41.5439 145.249 41.8575 145.943C42.1712 146.636 42.3225 147.391 42.3 148.152C42.3202 148.899 42.1804 149.643 41.89 150.332C41.6171 150.967 41.2153 151.54 40.71 152.012C40.1671 152.508 39.5363 152.898 38.85 153.162C38.0709 153.465 37.2528 153.657 36.42 153.732V156.482H34.05V153.742C33.235 153.668 32.4322 153.493 31.66 153.222C30.9257 152.957 30.2474 152.556 29.66 152.042C29.0367 151.491 28.5447 150.808 28.22 150.042C27.8317 149.146 27.6407 148.178 27.66 147.202H31.96C31.9504 147.759 32.0489 148.312 32.25 148.832C32.4206 149.215 32.6732 149.557 32.99 149.832C33.3008 150.085 33.6622 150.27 34.05 150.372C34.4388 150.472 34.8386 150.522 35.24 150.522C35.6578 150.529 36.0738 150.465 36.47 150.332C36.7953 150.229 37.0952 150.059 37.35 149.832C37.5809 149.625 37.762 149.369 37.88 149.082C37.9999 148.78 38.0577 148.457 38.05 148.132" fill="#FFA412"/>
<path d="M52.2601 190.922L51.8701 196.922L50.4201 219.152H23.3601L21.7701 197.232L21.3301 191.232V190.962L52.2601 190.922Z" fill="#1B404F"/>
<path d="M52.2601 190.942L51.8701 196.942C47.0074 195.325 41.9146 194.508 36.7901 194.522C27.4701 194.522 21.7901 197.242 21.7901 197.242L21.3601 191.242L52.2601 190.942Z" fill="#265365"/>
<path d="M53.2 194.092H20.34L19.96 190.302H53.63L53.2 194.092Z" fill="#1B404F"/>
<path d="M50.87 220.352H22.87L22.55 219.022H51.2001L50.87 220.352Z" fill="#265365"/>
<path d="M142.73 105.542C142.73 105.542 139.64 104.942 138.93 105.542C138.22 106.142 134.87 109.542 135.59 110.672C136.31 111.802 139.75 109.742 140.46 109.552C141.17 109.362 143.18 108.552 143.18 108.552L142.73 105.542Z" fill="#FFB27D"/>
<path d="M175.56 214.792L178.88 216.022C178.88 216.022 193.27 196.072 195.04 178.512C195.395 175.507 195.232 172.463 194.56 169.512L194.95 167.282C195.06 166.622 195.2 165.822 195.36 164.912C195.83 162.232 196.48 158.562 197.21 154.392C198.9 144.782 201.1 132.492 202.8 123.462L201.91 123.182L192.25 120.062L190.25 113.722L183.06 111.832C183.06 111.832 181.46 114.972 180.06 129.832C179.79 131.772 179.55 133.922 179.37 136.252C178.71 144.919 178.941 153.632 180.06 162.252C180.387 164.832 180.807 167.499 181.32 170.252C181.703 172.86 181.797 175.503 181.6 178.132C180.87 192.482 175.6 214.792 175.6 214.792" fill="#163744"/>
<path d="M179.33 136.302L194.95 167.302C195.06 166.642 195.2 165.842 195.36 164.932C195.83 162.252 196.48 158.582 197.21 154.412C198.9 144.802 201.1 132.512 202.8 123.482L201.91 123.202L192.25 120.082L190.25 113.742L183.06 111.852C183.06 111.852 181.45 114.992 180.06 129.852C179.79 131.792 179.55 133.942 179.37 136.272" fill="#163744"/>
<path d="M186.2 115.842L186.57 112.742C192.62 114.352 208.8 108.252 208.8 108.252C208.8 108.252 214.67 113.412 213.9 125.772C213.53 131.772 212.84 157.442 212.12 165.032C211.86 167.782 211.64 169.742 211.54 170.522C211.528 170.762 211.591 170.999 211.72 171.202C212.761 172.976 213.648 174.836 214.37 176.762C221.37 195.522 213.28 218.632 213.28 218.632L211.18 217.782C211.18 217.782 206.55 192.072 202.8 180.712C202.349 179.203 201.743 177.745 200.99 176.362C199.35 173.732 197.84 169.422 196.46 164.302C193.86 154.612 191.77 142.012 190.37 132.302C190.18 132.302 186.21 115.862 186.21 115.862" fill="#1B404F"/>
<path d="M142.73 105.542L143.18 108.542H143.73C144.83 108.462 147.52 108.312 150.55 107.992C155.11 107.542 160.55 106.732 162.68 105.412C165.97 103.412 171.35 97.2623 174.86 91.1223C174.96 90.9723 175.04 90.8223 175.12 90.6723C176.95 87.4123 178.22 84.1723 178.32 81.5923C178.4 80.2087 178.258 78.8212 177.9 77.4823C177.532 76.1346 176.9 74.8735 176.04 73.7723C175.946 73.6117 175.828 73.4666 175.69 73.3423C175.022 72.5391 174.216 71.8617 173.31 71.3423C172.71 71.0923 172.06 71.3423 171.38 72.1223C170.692 72.8914 170.11 73.749 169.65 74.6723C169.65 74.6723 169.6 74.7223 169.6 74.7523L169.2 75.5023C169.155 75.555 169.121 75.6162 169.1 75.6823C168.83 76.2523 168.55 76.8523 168.27 77.4823C165.19 84.1923 161.91 94.3823 159.17 97.4023C158 98.7023 152.61 101.262 148.32 103.172C145.24 104.522 142.73 105.532 142.73 105.532" fill="#FFB27D"/>
<path d="M174.63 78.3022C176.838 79.2883 179.214 79.8416 181.63 79.9322C192.04 80.5022 194.4 71.3722 194.83 65.3122C193.684 64.9182 192.468 64.765 191.26 64.8622C190.543 64.884 189.829 64.9508 189.12 65.0622C187.84 64.3922 185.55 61.1622 184.23 55.7622L183.78 55.9722L176.27 59.5022C176.27 59.5022 177.07 61.9422 177.66 64.2822C178.12 66.1122 178.45 67.8822 178.17 68.3722C177.58 68.6122 177.23 68.7722 177.23 68.7722C176.064 71.8588 175.197 75.0501 174.64 78.3022" fill="#FFB27D"/>
<path d="M172.03 85.0822C172.11 85.2822 172.19 85.4922 172.29 85.7022C174.93 91.3722 179.81 114.902 179.81 114.902C179.11 119.132 211.59 114.072 211.68 110.212C212.82 106.132 207.62 99.5722 204.68 96.2822C203.39 94.8261 202.583 93.0059 202.37 91.0722C202.003 86.5187 201.867 81.9495 201.96 77.3822L200.32 76.1922C199.603 75.7032 198.933 75.1474 198.32 74.5322C197.766 74.0464 197.41 73.3736 197.32 72.6422C197.275 72.1165 197.275 71.5879 197.32 71.0622C197.334 70.8067 197.368 70.5527 197.42 70.3022C197.715 68.5795 198.222 66.9 198.93 65.3022C196.14 64.1722 191.17 64.8422 191.17 64.8422V65.5722C191.17 67.3822 191.17 72.0422 190.58 72.9222C189.86 74.0222 176.58 78.8322 175.85 77.3422C175.12 75.8522 177.05 69.0122 177.12 68.7522C172.66 70.5022 171.07 71.9722 171.07 71.9722C173.76 73.7122 169.87 79.6022 171.94 85.1122" fill="#098AD3"/>
<path d="M180.99 36.0021C180.99 35.5521 181.36 30.6921 188.77 30.4321C188.77 30.4321 185.12 30.8721 184.5 32.4321C184.5 32.4321 186.98 30.4321 189 31.0921C191.02 31.7521 192.2 35.2621 192.21 36.4321C192.22 37.6021 191.1 41.3421 189.82 41.6621C189.309 41.7722 188.781 41.7722 188.27 41.6621C188.636 42.2365 188.97 42.8307 189.27 43.4421C192.22 49.5121 189.18 55.4421 186.67 54.7821C185.07 54.3621 184.61 57.1021 184.61 57.1021L169.02 44.5221C169.02 44.5221 174.74 32.6721 181.02 36.0021" fill="#2C3A64"/>
<path d="M176.25 59.4521C176.25 59.4521 177.05 61.8921 177.64 64.2321C182.03 63.0121 183.36 58.3921 183.76 55.9121L176.25 59.4521Z" fill="#ED985F"/>
<path d="M175.33 62.0323C175.33 62.0323 185.83 59.6023 184.22 53.0323C182.61 46.4623 182.87 41.8123 176.09 43.0323C169.31 44.2523 168.64 47.1223 168.65 49.4323C168.66 51.7423 172.55 62.4323 175.33 61.9323" fill="#FFB27D"/>
<path d="M168.06 45.8321C169.19 43.4621 170.51 43.5921 171.35 44.0121C172.609 42.7264 174.287 41.9347 176.079 41.7806C177.872 41.6265 179.66 42.1202 181.12 43.1721C182.292 45.9058 184.377 48.1471 187.02 49.5121C187.02 49.5121 185.41 51.1721 180.73 51.1321C179.216 51.0306 177.765 50.4844 176.56 49.5621C178.193 51.1675 180.036 52.5434 182.04 53.6521C176.18 52.5221 172.26 45.7521 171.85 45.0321C171.07 46.0972 170.549 47.33 170.33 48.6321C170.22 50.4221 170.83 53.9021 169.81 54.0321C169.81 54.0321 166.36 49.3721 168.05 45.8321" fill="#2C3A64"/>
<path d="M171.15 71.9323C171.15 71.9323 168.62 76.3423 168.25 77.4823C168.25 77.4823 171.53 77.3523 172.85 79.8823C172.85 79.8823 173.17 72.5323 171.15 71.8823" fill="#33AFF5"/>
<path d="M188.55 107.002C194.96 106.932 200.39 100.282 203.7 95.002C202.972 93.8208 202.518 92.4917 202.37 91.112C202.004 86.5618 201.867 81.996 201.96 77.432C201.39 77.002 200.84 76.612 200.32 76.242C199.607 75.7474 198.938 75.192 198.32 74.582C193.07 83.452 179.87 107.132 188.55 107.042" fill="#33AFF5"/>
<path d="M164.34 110.482L165.21 113.692L168.07 113.162L168.9 112.992C170.3 112.712 171.98 112.342 173.81 111.932C176.94 111.182 180.45 110.282 183.41 109.282C185.189 108.704 186.902 107.94 188.52 107.002C188.64 106.922 188.76 106.842 188.87 106.752C191.81 104.622 195.29 98.3523 198 91.6323C198.37 90.7023 198.72 89.7723 199.08 88.8723C200.259 85.7721 201.212 82.5904 201.93 79.3523C202.286 77.8612 202.514 76.3423 202.61 74.8123C202.61 74.3823 202.61 73.9623 202.61 73.5323C202.62 66.3023 199.01 65.3023 199.01 65.3023L198.75 65.2223C198.13 65.1223 197.48 65.5523 196.8 66.3823C195.719 67.8449 194.819 69.4332 194.12 71.1123C192.69 74.3523 191.18 78.5323 189.78 82.7023C189 84.9823 188.25 87.2623 187.5 89.3623C187.07 90.6423 186.65 91.8523 186.25 92.9523C185.671 94.6332 184.966 96.2679 184.14 97.8423C183.277 98.9356 182.236 99.8755 181.06 100.622C177.858 102.847 174.543 104.907 171.13 106.792C169.73 107.592 168.4 108.312 167.3 108.922L164.3 110.522" fill="#FFB27D"/>
<path d="M194.13 71.082C198.95 69.752 202.67 73.522 202.67 73.522C202.61 66.302 199 65.302 199 65.302C197.55 64.702 195.86 67.222 194.13 71.112" fill="#33AFF5"/>
<path d="M201.02 220.352H217.7C217.92 218.846 217.759 217.309 217.23 215.882C216.4 214.032 215.09 213.192 215.4 210.952C214.76 211.681 213.952 212.244 213.046 212.592C212.141 212.941 211.164 213.064 210.2 212.952C209.401 214.321 208.43 215.581 207.31 216.702C206.22 217.482 201.31 217.202 201.02 220.362" fill="#098AD3"/>
<path d="M165.2 220.352H181.87C182.209 218.851 182.044 217.28 181.4 215.882C180.4 214.282 180.8 213.362 181.52 212.042C180.633 212.421 179.674 212.602 178.71 212.572C177.829 212.471 176.982 212.174 176.23 211.702C174.74 213.458 173.151 215.127 171.47 216.702C170.38 217.482 165.47 217.202 165.19 220.362" fill="#098AD3"/>
<path d="M163.34 125.352L159.34 115.682C159.09 115.078 158.628 114.585 158.041 114.298C157.453 114.011 156.781 113.948 156.15 114.122C154.926 111.771 153.152 109.751 150.98 108.232C148.936 106.769 146.493 105.967 143.98 105.932C142.704 105.941 141.442 106.192 140.26 106.672C134.62 108.982 132.09 116.102 134.16 123.102L133.85 123.222C133.85 123.222 132.85 123.162 131.27 123.162C126.17 123.162 114.56 123.842 106.42 129.492C106.154 129.803 105.979 130.182 105.916 130.586C105.852 130.99 105.902 131.405 106.06 131.782C106.06 131.782 119.13 123.322 131.22 132.012C131.96 132.552 132.68 133.012 133.38 133.502L134.47 136.142C135.341 138.256 137.014 139.938 139.122 140.821C141.231 141.704 143.603 141.715 145.72 140.852L156.87 136.302L159.17 135.362C161.046 134.584 162.539 133.098 163.326 131.226C164.112 129.353 164.128 127.246 163.37 125.362M141.87 117.512L137.36 119.362C136.773 119.605 136.294 120.051 136.009 120.618C135.724 121.186 135.654 121.837 135.81 122.452L135.32 122.652C133.49 116.272 135.72 109.852 140.76 107.782C141.456 107.501 142.186 107.31 142.93 107.212C145.354 106.952 147.793 107.543 149.83 108.882C152.031 110.296 153.832 112.252 155.06 114.562L154.39 114.832C154.069 114.285 153.562 113.872 152.962 113.668C152.361 113.465 151.708 113.484 151.12 113.722L146.61 115.572C146.384 115.028 145.953 114.596 145.41 114.367C144.868 114.139 144.257 114.134 143.71 114.352L143.09 114.612C142.545 114.836 142.11 115.267 141.881 115.81C141.653 116.354 141.649 116.966 141.87 117.512Z" fill="#EF5830"/>
<path d="M133.44 133.492C132.74 133.042 132.02 132.542 131.28 132.012C119.19 123.312 106.12 131.782 106.12 131.782C105.994 131.492 105.936 131.178 105.95 130.862C111.031 127.563 117.128 126.201 123.13 127.022C133.13 128.632 134.89 130.022 133.44 133.492Z" fill="#E14921"/>
<path d="M159.15 135.362L156.87 136.302C160.33 134.412 156.05 126.432 153.54 121.172C151.03 115.912 147.24 118.312 147.24 118.312C146.989 117.805 146.599 117.378 146.116 117.083C145.633 116.787 145.076 116.634 144.51 116.642C144.513 116.205 144.379 115.777 144.129 115.419C143.878 115.061 143.522 114.789 143.11 114.642L143.74 114.392C144.285 114.17 144.896 114.173 145.439 114.4C145.983 114.626 146.414 115.059 146.64 115.602L151.15 113.752C151.737 113.514 152.391 113.495 152.992 113.698C153.592 113.902 154.099 114.315 154.42 114.862L155.09 114.592C153.862 112.285 152.061 110.332 149.86 108.922C147.823 107.583 145.384 106.993 142.96 107.252C143.399 106.894 143.771 106.46 144.06 105.972C146.573 106.007 149.016 106.809 151.06 108.272C153.23 109.794 155.003 111.813 156.23 114.162C156.86 113.988 157.533 114.051 158.12 114.338C158.708 114.625 159.17 115.118 159.42 115.722L163.42 125.392C164.181 127.275 164.168 129.382 163.383 131.255C162.599 133.128 161.106 134.615 159.23 135.392" fill="#E14921"/>
<path d="M153.96 113.592C155.56 114.262 157.82 116.592 161.43 115.192C163.599 114.387 165.817 113.719 168.07 113.192C168.6 113.092 168.9 113.012 168.9 113.012L167.47 108.852C167.414 108.861 167.356 108.861 167.3 108.852C166.37 109.052 161.66 110.052 159.45 109.552C156.97 108.982 152.81 111.962 152.81 111.962C152.81 111.962 152.36 112.912 153.96 113.562" fill="#FFB27D"/>
<path d="M108.67 138.762C108.67 137.262 105.94 132.612 105.94 132.612C105.94 132.612 103.22 137.262 103.22 138.762C103.198 139.134 103.251 139.506 103.378 139.857C103.505 140.207 103.702 140.527 103.957 140.799C104.212 141.07 104.52 141.286 104.862 141.434C105.204 141.581 105.573 141.657 105.945 141.657C106.318 141.657 106.686 141.581 107.028 141.434C107.37 141.286 107.678 141.07 107.933 140.799C108.188 140.527 108.385 140.207 108.512 139.857C108.639 139.506 108.693 139.134 108.67 138.762Z" fill="#098AD3"/>
</svg>
