<svg width="276" height="207" viewBox="0 0 276 207" fill="none" xmlns="http://www.w3.org/2000/svg">
<path d="M156.46 102.342L199.97 95.6216L213.2 181.242L169.69 187.972L156.46 102.342Z" fill="#BBD951"/>
<path d="M198.32 98.7119L210.7 178.792L171.32 184.872L158.94 104.802L198.32 98.7119ZM207.71 176.602L196.13 101.702L161.93 106.992L173.51 181.892L207.71 176.602Z" fill="#C9EDF9"/>
<mask id="mask0_106_3545" style="mask-type:luminance" maskUnits="userSpaceOnUse" x="10" y="0" width="266" height="207">
<path d="M275.21 0.551758H10.15V206.142H275.21V0.551758Z" fill="white"/>
</mask>
<g mask="url(#mask0_106_3545)">
<mask id="mask1_106_3545" style="mask-type:luminance" maskUnits="userSpaceOnUse" x="172" y="132" width="27" height="18">
<path d="M198.47 132.742H172.28V149.472H198.47V132.742Z" fill="white"/>
</mask>
<g mask="url(#mask1_106_3545)">
<path d="M178.99 139.911C178.524 140.127 178.116 140.45 177.798 140.853C177.48 141.256 177.262 141.728 177.16 142.231C177.296 142.247 177.434 142.247 177.57 142.231C179.18 141.801 180.79 141.351 182.4 140.931C182.76 140.841 182.85 140.691 182.87 140.321C182.908 139.474 182.992 138.63 183.12 137.791C183.58 134.841 185.58 133.291 188.34 132.881C191.67 132.381 194 133.642 195.57 136.642C195.85 137.192 196.15 137.291 196.68 137.091C197.06 136.951 197.48 136.872 197.91 136.752L198.47 138.821L196.61 139.321C196.885 140.979 196.554 142.68 195.678 144.114C194.802 145.548 193.44 146.619 191.84 147.131L190.43 143.532C191.064 143.202 191.624 142.745 192.073 142.189C192.522 141.634 192.851 140.991 193.04 140.301L190.61 140.952C189.55 141.242 188.51 141.541 187.44 141.801C187.277 141.817 187.127 141.896 187.022 142.021C186.917 142.147 186.866 142.309 186.88 142.472C186.864 143.785 186.539 145.077 185.93 146.241C185.334 147.309 184.445 148.182 183.367 148.758C182.289 149.335 181.068 149.589 179.85 149.491C178.749 149.468 177.679 149.122 176.772 148.496C175.866 147.871 175.163 146.993 174.75 145.972L174.54 145.541C174.503 145.474 174.459 145.411 174.41 145.351L172.85 145.771L172.32 143.621C172.69 143.521 173.07 143.401 173.45 143.321C173.83 143.241 173.93 143.051 173.9 142.661C173.777 141.834 173.836 140.99 174.07 140.187C174.305 139.385 174.711 138.642 175.26 138.011C175.889 137.294 176.677 136.732 177.56 136.371L179.04 139.901M187.04 139.601L192.62 138.091C192.343 137.471 191.864 136.963 191.261 136.651C190.658 136.339 189.966 136.24 189.3 136.371C187.9 136.631 187.02 137.851 187.04 139.601ZM177.75 144.452C178.074 144.926 178.534 145.292 179.069 145.501C179.604 145.71 180.19 145.752 180.75 145.621C181.281 145.446 181.746 145.113 182.082 144.666C182.418 144.219 182.609 143.68 182.63 143.121L177.7 144.452" fill="#C9EDF9"/>
</g>
</g>
<path d="M212.65 86.1106L173.538 171.147L216.756 191.025L255.868 105.989L212.65 86.1106Z" fill="#50EE95"/>
<path d="M252.48 107.792L215.94 187.292L176.85 169.292L213.38 89.792L252.48 107.792ZM214.55 183.532L248.73 109.172L214.73 93.572L180.59 167.922L214.55 183.532Z" fill="#00BF90"/>
<mask id="mask2_106_3545" style="mask-type:luminance" maskUnits="userSpaceOnUse" x="10" y="0" width="266" height="207">
<path d="M275.21 0.551758H10.15V206.142H275.21V0.551758Z" fill="white"/>
</mask>
<g mask="url(#mask2_106_3545)">
<mask id="mask3_106_3545" style="mask-type:luminance" maskUnits="userSpaceOnUse" x="203" y="124" width="26" height="19">
<path d="M228.34 124.042H203.37V142.292H228.34V124.042Z" fill="white"/>
</mask>
<g mask="url(#mask3_106_3545)">
<path d="M211.83 128.002C211.334 127.864 210.813 127.845 210.309 127.948C209.805 128.05 209.332 128.271 208.93 128.592C209.037 128.681 209.151 128.761 209.27 128.832C210.78 129.542 212.27 130.232 213.8 130.952C213.858 130.991 213.924 131.019 213.993 131.032C214.062 131.046 214.133 131.046 214.201 131.032C214.27 131.018 214.336 130.99 214.394 130.951C214.452 130.912 214.502 130.861 214.54 130.802C215.112 130.174 215.719 129.58 216.36 129.022C218.62 127.022 221.14 127.172 223.52 128.632C226.38 130.402 227.35 132.872 226.62 136.172C226.49 136.772 226.62 137.042 227.18 137.232C227.576 137.391 227.963 137.571 228.34 137.772L227.43 139.712L225.68 138.902C224.821 140.345 223.471 141.431 221.877 141.961C220.284 142.492 218.553 142.432 217 141.792L218.25 138.122C218.947 138.284 219.67 138.298 220.373 138.163C221.075 138.029 221.742 137.749 222.33 137.342L220.04 136.272C219.04 135.812 218.04 135.362 217.04 134.882C216.974 134.834 216.899 134.799 216.819 134.78C216.739 134.761 216.657 134.758 216.576 134.771C216.495 134.784 216.417 134.813 216.348 134.856C216.278 134.899 216.218 134.955 216.17 135.022C215.311 136.015 214.228 136.79 213.01 137.282C211.869 137.713 210.628 137.807 209.435 137.554C208.242 137.3 207.147 136.71 206.28 135.852C205.447 135.124 204.848 134.166 204.558 133.099C204.268 132.031 204.3 130.901 204.65 129.852L204.77 129.392C204.775 129.315 204.775 129.239 204.77 129.162L203.31 128.482L204.23 126.482C204.589 126.628 204.94 126.795 205.28 126.982C205.64 127.182 205.83 127.082 206.05 126.762C206.489 126.058 207.073 125.454 207.762 124.992C208.452 124.53 209.232 124.22 210.05 124.082C210.996 123.946 211.961 124.028 212.87 124.322L211.72 127.972M218.04 132.912L223.28 135.362C223.469 134.709 223.431 134.01 223.171 133.382C222.911 132.753 222.445 132.231 221.85 131.902C221.205 131.564 220.456 131.48 219.751 131.665C219.047 131.85 218.437 132.291 218.04 132.902M207.81 130.612C207.747 131.193 207.865 131.78 208.148 132.292C208.43 132.804 208.864 133.216 209.39 133.472C209.902 133.671 210.463 133.711 210.998 133.586C211.533 133.461 212.019 133.177 212.39 132.772L207.76 130.612" fill="#C9EDF9"/>
</g>
</g>
<path d="M241.49 106.282L175.537 172.609L209.243 206.125L275.196 139.798L241.49 106.282Z" fill="#50EE95"/>
<path d="M271.47 140.342L209.8 202.392L179.32 172.062L241 110.012L271.47 140.342ZM209.78 198.392L267.47 140.392L240.97 114.052L183.28 172.052L209.78 198.392Z" fill="#00BF90"/>
<path d="M245.42 89.2414C245.503 96.643 243.388 103.903 239.344 110.103C235.3 116.302 229.509 121.164 222.702 124.071C215.895 126.979 208.378 127.803 201.103 126.438C193.828 125.073 187.121 121.581 181.83 116.404C176.54 111.227 172.904 104.597 171.382 97.3534C169.86 90.1095 170.52 82.577 173.28 75.7085C176.04 68.8401 180.774 62.9445 186.885 58.7673C192.996 54.5901 200.208 52.319 207.61 52.2414C217.53 52.1348 227.087 55.9729 234.177 62.9115C241.268 69.8502 245.312 79.3212 245.42 89.2414Z" fill="#FFB93E"/>
<path d="M241.66 89.2816C241.731 95.9368 239.826 102.464 236.188 108.036C232.549 113.609 227.34 117.978 221.218 120.59C215.096 123.202 208.337 123.94 201.796 122.711C195.255 121.481 189.226 118.34 184.47 113.684C179.714 109.027 176.446 103.065 175.079 96.5516C173.712 90.0379 174.307 83.2651 176.79 77.0897C179.272 70.9143 183.53 65.6137 189.025 61.8583C194.52 58.1028 201.005 56.0612 207.66 55.9916C216.583 55.8983 225.178 59.353 231.554 65.5959C237.93 71.8388 241.565 80.3586 241.66 89.2816Z" fill="#FFC53E"/>
<path d="M208.32 121.122C202.088 121.189 195.976 119.406 190.757 115.999C185.538 112.592 181.447 107.714 179.001 101.982C176.554 96.2501 175.863 89.9212 177.013 83.796C178.164 77.6707 181.105 72.0243 185.465 67.5708C189.825 63.1172 195.408 60.0566 201.507 58.7759C207.606 57.4953 213.948 58.0522 219.731 60.3761C225.514 62.7001 230.478 66.6867 233.995 71.8319C237.512 76.9771 239.424 83.0497 239.49 89.2817C239.57 97.6348 236.333 105.678 230.489 111.648C224.646 117.617 216.673 121.024 208.32 121.122ZM207.66 59.2717C201.657 59.3374 195.808 61.1819 190.854 64.5719C185.899 67.9619 182.061 72.7452 179.825 78.3166C177.589 83.8881 177.056 89.9975 178.293 95.8721C179.53 101.747 182.481 107.123 186.773 111.32C191.065 115.517 196.506 118.347 202.407 119.452C208.308 120.556 214.404 119.886 219.924 117.526C225.444 115.166 230.14 111.222 233.418 106.193C236.696 101.163 238.409 95.2747 238.34 89.2717C238.248 81.2257 234.964 73.5457 229.211 67.9201C223.458 62.2944 215.706 59.1837 207.66 59.2717Z" fill="#FFA412"/>
<mask id="mask4_106_3545" style="mask-type:luminance" maskUnits="userSpaceOnUse" x="195" y="67" width="26" height="46">
<path d="M220.86 67.4614H195.87V112.531H220.86V67.4614Z" fill="white"/>
</mask>
<g mask="url(#mask4_106_3545)">
<path d="M213.13 80.0614C212.977 79.2067 212.626 78.3998 212.105 77.7052C211.584 77.0105 210.908 76.4476 210.13 76.0614C210.079 76.2922 210.042 76.526 210.02 76.7614C210.02 79.5914 210.1 82.4214 210.1 85.2414C210.1 85.8614 210.31 86.0914 210.9 86.2414C212.283 86.6601 213.641 87.1542 214.97 87.7214C219.61 89.7214 221.31 93.7214 220.81 98.3814C220.21 104.061 217.15 107.381 211.56 108.661C210.56 108.891 210.25 109.331 210.35 110.291C210.42 110.981 210.35 111.691 210.35 112.461H206.7V109.181C198.7 107.981 196.28 102.291 195.9 98.0314L202.43 97.2514C202.697 98.4343 203.207 99.5486 203.928 100.523C204.65 101.498 205.566 102.311 206.62 102.911V98.6314C206.62 96.7814 206.55 94.9314 206.57 93.0814C206.6 92.9448 206.602 92.8034 206.574 92.6663C206.546 92.5291 206.49 92.3993 206.409 92.2853C206.328 92.1713 206.224 92.0755 206.103 92.0042C205.983 91.9329 205.849 91.8877 205.71 91.8714C203.556 91.2943 201.571 90.2109 199.92 88.7114C196.6 85.5114 196.01 81.5214 197.17 77.3514C198.25 73.4614 201.17 71.2714 205.12 70.4714L205.91 70.3114C206.037 70.2752 206.161 70.2284 206.28 70.1714V67.4414H209.98C209.98 68.0914 210.04 68.7514 209.98 69.4414C209.92 70.1314 210.23 70.3514 210.88 70.4414C212.288 70.6028 213.645 71.0617 214.863 71.7875C216.08 72.5133 217.129 73.4895 217.94 74.6514C218.809 75.9999 219.36 77.5285 219.55 79.1214L213.13 80.0414M210.22 93.3314C210.22 96.6614 210.29 99.9014 210.32 103.141C211.464 102.964 212.51 102.396 213.282 101.533C214.053 100.671 214.501 99.5675 214.55 98.4114C214.73 96.0014 213.1 94.0314 210.21 93.3314M206.21 76.0114C205.276 76.34 204.466 76.9482 203.89 77.7533C203.314 78.5584 203 79.5214 202.99 80.5114C203.046 81.4613 203.394 82.3706 203.987 83.1152C204.579 83.8598 205.387 84.4033 206.3 84.6714C206.3 81.8314 206.24 78.9814 206.21 76.0114Z" fill="#FFA412"/>
</g>
<path d="M104.71 67.4815H184.32C185.512 67.4788 186.693 67.7112 187.795 68.1652C188.897 68.6192 189.899 69.286 190.743 70.1274C191.587 70.9688 192.257 71.9684 192.715 73.069C193.172 74.1695 193.409 75.3495 193.41 76.5415V194.831C193.409 196.023 193.172 197.203 192.715 198.304C192.257 199.405 191.587 200.404 190.743 201.246C189.899 202.087 188.897 202.754 187.795 203.208C186.693 203.662 185.512 203.894 184.32 203.891H104.71C102.304 203.894 99.9945 202.941 98.2901 201.243C96.5856 199.544 95.6253 197.238 95.62 194.831V76.5415C95.6253 74.135 96.5856 71.8291 98.2901 70.1303C99.9945 68.4315 102.304 67.4788 104.71 67.4815Z" fill="#1B404F"/>
<path d="M185.57 78.7417H104.43V99.6217H185.57V78.7417Z" fill="#DFF3FF"/>
<path d="M124.32 113.122H107.83C107.383 113.122 106.941 113.034 106.529 112.863C106.116 112.692 105.741 112.441 105.426 112.126C105.11 111.81 104.86 111.435 104.689 111.023C104.518 110.61 104.43 110.168 104.43 109.722V109.002C104.43 108.1 104.788 107.235 105.426 106.597C106.063 105.96 106.928 105.602 107.83 105.602H124.32C125.222 105.602 126.086 105.96 126.724 106.597C127.362 107.235 127.72 108.1 127.72 109.002V109.722C127.72 110.168 127.632 110.61 127.461 111.023C127.29 111.435 127.04 111.81 126.724 112.126C126.408 112.441 126.034 112.692 125.621 112.863C125.209 113.034 124.766 113.122 124.32 113.122Z" fill="#0DD967"/>
<path d="M153.24 113.122H136.76C136.314 113.122 135.871 113.034 135.459 112.863C135.046 112.692 134.672 112.441 134.356 112.126C134.04 111.81 133.79 111.435 133.619 111.023C133.448 110.61 133.36 110.168 133.36 109.722V109.002C133.36 108.1 133.718 107.235 134.356 106.597C134.993 105.96 135.858 105.602 136.76 105.602H153.24C154.142 105.602 155.007 105.96 155.644 106.597C156.282 107.235 156.64 108.1 156.64 109.002V109.722C156.64 110.168 156.552 110.61 156.381 111.023C156.21 111.435 155.96 111.81 155.644 112.126C155.328 112.441 154.954 112.692 154.541 112.863C154.129 113.034 153.686 113.122 153.24 113.122Z" fill="#0DD967"/>
<path d="M182.17 113.122H165.69C165.244 113.122 164.801 113.034 164.389 112.863C163.976 112.692 163.602 112.441 163.286 112.126C162.97 111.81 162.72 111.435 162.549 111.023C162.378 110.61 162.29 110.168 162.29 109.722V109.002C162.29 108.1 162.648 107.235 163.286 106.597C163.923 105.96 164.788 105.602 165.69 105.602H182.17C183.072 105.602 183.937 105.96 184.574 106.597C185.212 107.235 185.57 108.1 185.57 109.002V109.722C185.57 110.168 185.482 110.61 185.311 111.023C185.14 111.435 184.89 111.81 184.574 112.126C184.258 112.441 183.884 112.692 183.471 112.863C183.059 113.034 182.617 113.122 182.17 113.122Z" fill="#0DD967"/>
<path d="M116.88 135.922H110C108.523 135.922 107.106 135.335 106.061 134.29C105.017 133.246 104.43 131.829 104.43 130.352V124.622C104.43 123.891 104.574 123.167 104.854 122.491C105.134 121.816 105.545 121.203 106.062 120.686C106.579 120.17 107.193 119.761 107.869 119.482C108.545 119.203 109.269 119.06 110 119.062H116.88C118.355 119.062 119.769 119.647 120.811 120.69C121.854 121.733 122.44 123.147 122.44 124.622V130.352C122.441 131.083 122.298 131.807 122.02 132.482C121.741 133.158 121.331 133.772 120.815 134.29C120.299 134.807 119.685 135.217 119.01 135.497C118.335 135.777 117.611 135.922 116.88 135.922Z" fill="#24B5E9"/>
<path d="M137.92 135.922H131.04C129.563 135.922 128.146 135.335 127.101 134.29C126.057 133.246 125.47 131.829 125.47 130.352V124.622C125.47 123.891 125.614 123.167 125.894 122.491C126.174 121.816 126.585 121.203 127.102 120.686C127.619 120.17 128.233 119.761 128.909 119.482C129.585 119.203 130.309 119.06 131.04 119.062H137.92C139.396 119.062 140.811 119.647 141.855 120.689C142.899 121.732 143.487 123.146 143.49 124.622V130.352C143.487 131.828 142.9 133.243 141.856 134.287C140.812 135.331 139.396 135.919 137.92 135.922Z" fill="#24B5E9"/>
<path d="M158.96 135.922H152.08C150.603 135.922 149.186 135.335 148.141 134.29C147.097 133.246 146.51 131.829 146.51 130.352V124.622C146.51 123.891 146.654 123.167 146.934 122.491C147.214 121.816 147.625 121.203 148.142 120.686C148.659 120.17 149.273 119.761 149.949 119.482C150.625 119.203 151.349 119.06 152.08 119.062H158.96C160.435 119.062 161.849 119.647 162.892 120.69C163.934 121.733 164.52 123.147 164.52 124.622V130.352C164.521 131.083 164.378 131.807 164.1 132.482C163.821 133.158 163.411 133.772 162.895 134.29C162.379 134.807 161.765 135.217 161.09 135.497C160.415 135.777 159.691 135.922 158.96 135.922Z" fill="#24B5E9"/>
<path d="M116.88 156.712H110C108.523 156.712 107.106 156.125 106.061 155.08C105.017 154.036 104.43 152.619 104.43 151.142V145.412C104.43 144.681 104.574 143.957 104.854 143.282C105.134 142.606 105.545 141.993 106.062 141.477C106.579 140.96 107.193 140.551 107.869 140.272C108.545 139.993 109.269 139.85 110 139.852H116.88C117.61 139.852 118.333 139.995 119.008 140.275C119.682 140.554 120.295 140.964 120.811 141.48C121.328 141.996 121.737 142.609 122.017 143.284C122.296 143.958 122.44 144.681 122.44 145.412V151.122C122.44 152.597 121.854 154.012 120.812 155.057C119.77 156.101 118.355 156.689 116.88 156.692" fill="#24B5E9"/>
<path d="M137.92 156.712H131.04C129.563 156.712 128.146 156.125 127.101 155.08C126.057 154.036 125.47 152.619 125.47 151.142V145.412C125.47 143.935 126.057 142.518 127.101 141.473C128.146 140.429 129.563 139.842 131.04 139.842H137.92C139.396 139.844 140.812 140.432 141.856 141.476C142.9 142.52 143.487 143.935 143.49 145.412V151.122C143.487 152.598 142.9 154.013 141.856 155.057C140.812 156.101 139.396 156.689 137.92 156.692" fill="#24B5E9"/>
<path d="M158.96 156.712H152.08C150.603 156.712 149.186 156.125 148.141 155.08C147.097 154.036 146.51 152.619 146.51 151.142V145.412C146.51 144.681 146.654 143.957 146.934 143.282C147.214 142.606 147.625 141.993 148.142 141.477C148.659 140.96 149.273 140.551 149.949 140.272C150.625 139.993 151.349 139.85 152.08 139.852H158.96C159.69 139.852 160.413 139.995 161.088 140.275C161.762 140.554 162.375 140.964 162.892 141.48C163.408 141.996 163.817 142.609 164.097 143.284C164.376 143.958 164.52 144.681 164.52 145.412V151.122C164.52 152.597 163.935 154.012 162.892 155.057C161.85 156.101 160.436 156.689 158.96 156.692" fill="#24B5E9"/>
<path d="M181.9 119.052H171.22C170.247 119.052 169.313 119.438 168.625 120.127C167.937 120.815 167.55 121.748 167.55 122.722V153.042C167.55 154.015 167.937 154.949 168.625 155.637C169.313 156.325 170.247 156.712 171.22 156.712H181.9C182.873 156.709 183.805 156.322 184.492 155.634C185.18 154.946 185.567 154.014 185.57 153.042V122.732C185.57 121.758 185.183 120.825 184.495 120.137C183.807 119.448 182.873 119.062 181.9 119.062" fill="#FF8363"/>
<path d="M116.88 177.501H110C108.523 177.501 107.106 176.915 106.061 175.87C105.017 174.825 104.43 173.409 104.43 171.931V166.201C104.43 164.724 105.017 163.307 106.061 162.263C107.106 161.218 108.523 160.631 110 160.631H116.88C118.355 160.634 119.77 161.222 120.812 162.266C121.854 163.311 122.44 164.726 122.44 166.201V171.931C122.44 173.407 121.854 174.822 120.812 175.866C119.77 176.911 118.355 177.499 116.88 177.501Z" fill="#24B5E9"/>
<path d="M137.92 177.501H131.04C129.563 177.501 128.146 176.915 127.101 175.87C126.057 174.825 125.47 173.409 125.47 171.931V166.201C125.47 164.724 126.057 163.307 127.101 162.263C128.146 161.218 129.563 160.631 131.04 160.631H137.92C139.397 160.631 140.814 161.218 141.859 162.263C142.903 163.307 143.49 164.724 143.49 166.201V171.931C143.487 173.408 142.9 174.823 141.856 175.867C140.812 176.911 139.396 177.499 137.92 177.501Z" fill="#24B5E9"/>
<path d="M158.96 177.501H152.08C150.603 177.501 149.186 176.915 148.141 175.87C147.097 174.825 146.51 173.409 146.51 171.931V166.201C146.51 164.724 147.097 163.307 148.141 162.263C149.186 161.218 150.603 160.631 152.08 160.631H158.96C160.436 160.634 161.85 161.222 162.892 162.266C163.935 163.311 164.52 164.726 164.52 166.201V171.931C164.52 173.407 163.935 174.822 162.892 175.866C161.85 176.911 160.436 177.499 158.96 177.501Z" fill="#24B5E9"/>
<path d="M180 177.501H173.12C171.643 177.501 170.226 176.915 169.181 175.87C168.137 174.825 167.55 173.409 167.55 171.931V166.201C167.55 164.724 168.137 163.307 169.181 162.263C170.226 161.218 171.643 160.631 173.12 160.631H180C181.476 160.634 182.892 161.222 183.936 162.266C184.98 163.31 185.567 164.725 185.57 166.201V171.931C185.567 173.408 184.98 174.823 183.936 175.867C182.892 176.911 181.476 177.499 180 177.501Z" fill="#FF8363"/>
<path d="M116.88 198.291H110C108.523 198.291 107.106 197.705 106.061 196.66C105.017 195.615 104.43 194.199 104.43 192.721V186.991C104.43 185.514 105.017 184.097 106.061 183.053C107.106 182.008 108.523 181.421 110 181.421H116.88C117.611 181.421 118.335 181.566 119.01 181.846C119.685 182.126 120.299 182.536 120.815 183.053C121.331 183.571 121.741 184.185 122.02 184.861C122.298 185.536 122.441 186.26 122.44 186.991V192.721C122.44 194.197 121.854 195.612 120.812 196.656C119.77 197.701 118.355 198.289 116.88 198.291Z" fill="#24B5E9"/>
<path d="M137.92 198.291H131.04C129.563 198.291 128.146 197.705 127.101 196.66C126.057 195.615 125.47 194.199 125.47 192.721V186.991C125.47 185.516 126.055 184.101 127.098 183.056C128.14 182.012 129.554 181.424 131.03 181.421H137.92C139.396 181.424 140.812 182.012 141.856 183.056C142.9 184.1 143.487 185.515 143.49 186.991V192.721C143.487 194.198 142.9 195.613 141.856 196.657C140.812 197.701 139.396 198.289 137.92 198.291Z" fill="#24B5E9"/>
<path d="M158.96 198.291H152.08C150.603 198.291 149.186 197.705 148.141 196.66C147.097 195.615 146.51 194.199 146.51 192.721V186.991C146.51 185.514 147.097 184.097 148.141 183.053C149.186 182.008 150.603 181.421 152.08 181.421H158.96C160.436 181.424 161.85 182.012 162.892 183.056C163.935 184.101 164.52 185.516 164.52 186.991V192.721C164.52 194.197 163.935 195.612 162.892 196.656C161.85 197.701 160.436 198.289 158.96 198.291Z" fill="#FF8363"/>
<path d="M180 198.291H173.12C171.643 198.291 170.226 197.705 169.181 196.66C168.137 195.615 167.55 194.199 167.55 192.721V186.991C167.55 185.514 168.137 184.097 169.181 183.053C170.226 182.008 171.643 181.421 173.12 181.421H180C181.476 181.424 182.892 182.012 183.936 183.056C184.98 184.1 185.567 185.515 185.57 186.991V192.721C185.567 194.197 184.979 195.611 183.935 196.654C182.891 197.696 181.476 198.281 180 198.281" fill="#0DD967"/>
<path d="M116.52 164.631V165.491L112.36 174.191H111.02L115.17 165.741H110.49V164.671L116.52 164.631Z" fill="white"/>
<path d="M131.32 171.761C131.33 171.19 131.519 170.636 131.859 170.177C132.2 169.718 132.676 169.377 133.22 169.201C132.782 169.035 132.403 168.741 132.132 168.358C131.862 167.975 131.711 167.52 131.7 167.051C131.734 166.344 132.046 165.679 132.569 165.201C133.092 164.723 133.782 164.472 134.49 164.501H134.66C136.51 164.501 137.43 165.661 137.43 166.851C137.426 167.34 137.274 167.816 136.994 168.216C136.713 168.616 136.318 168.921 135.86 169.091C136.401 169.247 136.879 169.57 137.226 170.013C137.572 170.457 137.77 170.999 137.79 171.561C137.79 173.221 136.36 174.341 134.54 174.341C132.54 174.341 131.34 173.151 131.34 171.751M136.48 171.691C136.48 170.531 135.67 169.971 134.38 169.601C133.907 169.686 133.478 169.931 133.165 170.296C132.851 170.66 132.673 171.121 132.66 171.601C132.652 171.834 132.69 172.066 132.771 172.283C132.853 172.501 132.977 172.701 133.136 172.871C133.294 173.041 133.485 173.178 133.697 173.274C133.909 173.37 134.137 173.424 134.37 173.431H134.57C135.027 173.479 135.485 173.344 135.843 173.055C136.2 172.767 136.43 172.348 136.48 171.891V171.721M132.93 166.941C132.93 167.941 133.65 168.411 134.75 168.711C135.148 168.617 135.506 168.397 135.769 168.084C136.032 167.77 136.186 167.38 136.21 166.971C136.219 166.777 136.19 166.583 136.125 166.399C136.059 166.216 135.957 166.048 135.826 165.904C135.696 165.76 135.537 165.643 135.361 165.56C135.185 165.478 134.994 165.43 134.8 165.421H134.58C134.381 165.401 134.18 165.42 133.989 165.478C133.798 165.536 133.62 165.632 133.467 165.759C133.313 165.887 133.186 166.044 133.094 166.221C133.002 166.398 132.946 166.592 132.93 166.791C132.925 166.845 132.925 166.898 132.93 166.951" fill="white"/>
<path d="M137.79 189.851C137.79 193.091 136.58 194.851 134.47 194.851C132.6 194.851 131.34 193.101 131.31 189.941C131.28 186.781 132.69 184.941 134.63 184.941C136.57 184.941 137.79 186.731 137.79 189.781M132.6 189.921C132.6 192.411 133.37 193.821 134.54 193.821C135.86 193.821 136.54 192.281 136.54 189.821C136.54 187.361 135.94 185.921 134.6 185.921C133.46 185.921 132.6 187.301 132.6 189.921Z" fill="white"/>
<path d="M153.53 173.281C153.863 173.313 154.197 173.313 154.53 173.281C155.276 173.19 155.975 172.868 156.53 172.361C157.232 171.682 157.677 170.781 157.79 169.811C157.418 170.25 156.923 170.566 156.37 170.721C155.816 170.876 155.229 170.861 154.684 170.679C154.139 170.498 153.66 170.157 153.31 169.701C152.96 169.245 152.755 168.695 152.72 168.121V167.901C152.687 167.033 153.001 166.187 153.592 165.55C154.182 164.912 155.002 164.535 155.87 164.501H155.99C157.99 164.501 159.15 166.081 159.15 168.501C159.193 169.323 159.07 170.144 158.786 170.916C158.502 171.688 158.065 172.394 157.5 172.991C156.739 173.711 155.762 174.161 154.72 174.271C154.326 174.33 153.928 174.353 153.53 174.341V173.281ZM154 167.781C153.953 168.264 154.099 168.746 154.406 169.121C154.714 169.496 155.157 169.733 155.64 169.781H155.84C156.214 169.796 156.585 169.712 156.915 169.536C157.246 169.36 157.523 169.1 157.72 168.781C157.805 168.64 157.846 168.476 157.84 168.311C157.84 166.681 157.24 165.431 155.84 165.431C155.561 165.455 155.29 165.536 155.044 165.667C154.797 165.798 154.579 165.978 154.403 166.196C154.228 166.413 154.098 166.664 154.022 166.933C153.946 167.202 153.925 167.484 153.96 167.761" fill="white"/>
<path d="M114.32 152.991V150.391H109.89V149.541L114.15 143.441H115.55V149.381H116.89V150.381H115.55V152.981L114.32 152.991ZM114.32 149.381V146.191C114.32 145.691 114.32 145.191 114.37 144.691H114.32C114.03 145.241 113.8 145.691 113.53 146.101L111.19 149.341L114.32 149.381Z" fill="white"/>
<path d="M137.14 144.522H133.5L133.13 146.982C133.388 146.942 133.649 146.922 133.91 146.922C134.63 146.903 135.342 147.079 135.97 147.432C136.398 147.68 136.751 148.04 136.991 148.473C137.231 148.906 137.348 149.397 137.33 149.892C137.325 150.326 137.234 150.756 137.063 151.155C136.892 151.555 136.643 151.917 136.332 152.22C136.021 152.524 135.653 152.764 135.25 152.925C134.846 153.086 134.415 153.167 133.98 153.162H133.78C132.948 153.184 132.125 152.98 131.4 152.572L131.72 151.572C132.336 151.904 133.021 152.085 133.72 152.102C134 152.121 134.281 152.084 134.547 151.993C134.813 151.903 135.058 151.76 135.268 151.574C135.478 151.388 135.65 151.162 135.772 150.909C135.894 150.656 135.965 150.382 135.98 150.102C135.98 150.102 135.98 150.022 135.98 149.972C135.98 148.742 135.14 147.862 133.23 147.862C132.785 147.865 132.341 147.898 131.9 147.962L132.52 143.372H137.09L137.14 144.522Z" fill="white"/>
<path d="M158.24 144.352C157.906 144.331 157.57 144.348 157.24 144.402C156.387 144.521 155.599 144.92 154.996 145.535C154.394 146.15 154.012 146.947 153.91 147.801C154.148 147.502 154.442 147.252 154.776 147.066C155.11 146.881 155.478 146.763 155.858 146.719C156.237 146.675 156.622 146.707 156.99 146.812C157.357 146.917 157.701 147.094 158 147.332C158.362 147.627 158.651 148.004 158.842 148.431C159.033 148.858 159.121 149.324 159.1 149.792C159.141 150.633 158.85 151.457 158.288 152.086C157.727 152.715 156.941 153.097 156.1 153.152H155.95C153.95 153.152 152.57 151.572 152.57 149.082C152.544 148.293 152.674 147.508 152.952 146.77C153.23 146.032 153.651 145.357 154.19 144.782C155.019 143.982 156.094 143.485 157.24 143.372C157.554 143.32 157.872 143.293 158.19 143.292L158.24 144.352ZM157.87 149.862C157.904 149.608 157.887 149.35 157.82 149.103C157.754 148.856 157.64 148.625 157.483 148.422C157.327 148.219 157.133 148.05 156.911 147.923C156.689 147.795 156.444 147.714 156.19 147.682C156.094 147.671 155.996 147.671 155.9 147.682C155.514 147.69 155.138 147.803 154.812 148.009C154.486 148.215 154.223 148.507 154.05 148.852C153.951 149.029 153.9 149.229 153.9 149.432C153.9 151.002 154.65 152.161 156 152.161C157.12 152.161 157.87 151.232 157.87 149.872" fill="white"/>
<path d="M113.12 124.332L111.45 125.232L111.2 124.232L113.32 123.122H114.42V132.672H113.12V124.332Z" fill="white"/>
<path d="M131.44 132.681V131.881L132.44 130.881C134.88 128.561 135.99 127.321 136 125.881C136.048 125.433 135.915 124.984 135.632 124.634C135.349 124.283 134.938 124.059 134.49 124.011H134.1C133.362 124.051 132.658 124.336 132.1 124.821L131.69 123.911C132.445 123.272 133.401 122.918 134.39 122.911C135.1 122.85 135.806 123.072 136.353 123.53C136.9 123.987 137.244 124.642 137.31 125.351V125.691C137.31 127.451 136.03 128.881 134.01 130.821L133.25 131.521H137.54V132.601L131.44 132.681Z" fill="white"/>
<path d="M153.09 131.191C153.732 131.574 154.463 131.781 155.21 131.791C156.87 131.791 157.38 130.791 157.37 129.941C157.37 128.601 156.15 128.031 154.9 128.031H154.18V127.031H154.9C155.84 127.031 157.03 126.551 157.03 125.411C157.03 124.651 156.55 123.971 155.36 123.971C154.671 123.991 154.003 124.214 153.44 124.611L153.11 123.611C153.855 123.132 154.724 122.878 155.61 122.881C157.49 122.881 158.34 124.001 158.34 125.161C158.331 125.677 158.155 126.175 157.837 126.581C157.519 126.987 157.078 127.279 156.58 127.411C157.169 127.497 157.708 127.792 158.099 128.242C158.49 128.691 158.707 129.266 158.71 129.861C158.71 131.391 157.52 132.731 155.22 132.731C154.35 132.738 153.495 132.513 152.74 132.081L153.09 131.191Z" fill="white"/>
<path d="M114.59 193.462C114.59 193.689 114.523 193.911 114.396 194.1C114.27 194.29 114.09 194.437 113.88 194.524C113.67 194.611 113.439 194.634 113.216 194.589C112.993 194.545 112.788 194.436 112.627 194.275C112.466 194.114 112.357 193.909 112.312 193.686C112.268 193.463 112.291 193.232 112.378 193.021C112.465 192.811 112.612 192.632 112.801 192.505C112.99 192.379 113.213 192.312 113.44 192.312C113.591 192.31 113.742 192.339 113.882 192.396C114.022 192.454 114.149 192.538 114.256 192.645C114.363 192.752 114.448 192.88 114.505 193.02C114.563 193.16 114.591 193.31 114.59 193.462Z" fill="white"/>
<path d="M183.4 138.491H177.32V132.421H175.76V138.491H169.69V140.051H175.76V146.121H177.32V140.061H183.38L183.4 138.491Z" fill="white"/>
<path d="M159.55 193.442L156.32 190.232L159.53 187.022L158.71 186.202L155.5 189.412L152.32 186.202L151.49 187.022L154.7 190.232L151.49 193.442L152.32 194.272L155.53 191.062L158.74 194.272L159.55 193.442Z" fill="white"/>
<path d="M181.27 168.731H171.11V170.281H181.27V168.731Z" fill="white"/>
<path d="M181.64 186.711H171.48V188.261H181.64V186.711Z" fill="white"/>
<path d="M181.64 190.622H171.48V192.172H181.64V190.622Z" fill="white"/>
<path d="M143.18 85.4015V86.7315L146.18 87.5115L146.27 84.5815L143.18 85.4015Z" fill="#FFC0BB"/>
<path d="M150 85.1214V86.7014C150 86.7014 152.89 87.5714 152.88 87.5814C152.87 87.5914 153.11 84.9814 153.11 84.9814L150 85.1214Z" fill="#FFC0BB"/>
<path d="M132.32 23.6217L131.76 27.1217L130.59 22.5117C130.59 22.5117 132.22 21.7217 132.29 22.0117C132.325 22.5612 132.325 23.1123 132.29 23.6617" fill="#2C3A64"/>
<path d="M123.04 31.0615L122.54 37.0615L127.82 36.8015L127.21 31.5115L123.04 31.0615Z" fill="#FFC0BB"/>
<path d="M127.49 34.0115L127.21 31.4915L123.04 31.0615L122.87 33.1215C123.464 33.7136 124.221 34.114 125.045 34.2709C125.869 34.4277 126.72 34.3339 127.49 34.0015" fill="#F99893"/>
<path d="M130.72 27.0317C130.673 27.2295 130.683 27.4363 130.749 27.6286C130.815 27.8208 130.933 27.9907 131.091 28.1186C131.249 28.2466 131.439 28.3274 131.641 28.3519C131.843 28.3764 132.047 28.3435 132.231 28.257C132.415 28.1705 132.571 28.0339 132.68 27.8629C132.79 27.6919 132.849 27.4935 132.851 27.2903C132.853 27.0872 132.798 26.8876 132.691 26.7145C132.585 26.5414 132.432 26.4018 132.25 26.3117C131.951 26.2108 131.625 26.2295 131.34 26.3637C131.055 26.4979 130.833 26.7373 130.72 27.0317Z" fill="#F99893"/>
<path d="M130.32 30.9616C130.502 30.6771 130.662 30.3796 130.8 30.0716C131.149 29.2527 131.391 28.3923 131.52 27.5116C131.536 27.3411 131.573 27.1732 131.63 27.0116C131.805 26.2926 131.836 25.5463 131.722 24.8152C131.608 24.0841 131.352 23.3825 130.967 22.7506C130.582 22.1187 130.076 21.5688 129.479 21.1323C128.882 20.6958 128.204 20.3812 127.485 20.2066C126.766 20.0319 126.02 20.0006 125.289 20.1144C124.558 20.2282 123.856 20.4848 123.224 20.8697C122.592 21.2546 122.042 21.7602 121.606 22.3576C121.169 22.9551 120.855 23.6326 120.68 24.3516C120.599 24.6795 120.549 25.0143 120.53 25.3516C120.374 25.2406 120.194 25.1682 120.004 25.1403C119.815 25.1125 119.621 25.1301 119.44 25.1916C119.115 25.4021 118.872 25.717 118.751 26.0844C118.63 26.4517 118.637 26.8495 118.772 27.212C118.907 27.5745 119.162 27.8801 119.495 28.0782C119.827 28.2763 120.217 28.3551 120.6 28.3016C120.692 28.2614 120.779 28.2111 120.86 28.1516C120.887 29.4752 121.41 30.7405 122.324 31.6977C123.239 32.6548 124.479 33.2343 125.8 33.3216C127.084 33.3891 128.345 32.9593 129.32 32.1216L129.52 31.9516C129.832 31.6545 130.104 31.3184 130.33 30.9516" fill="#FFC0BB"/>
<path d="M125.95 59.1216C125.95 59.1216 124.85 66.5816 132.06 67.8816C137.41 68.6894 142.823 68.994 148.23 68.7916L149.48 85.9316L153.24 86.1216C153.24 86.1216 162.93 62.3116 149.52 58.5916L137.52 58.6516L132.52 58.2916C132.52 58.2916 127.52 57.0516 127.43 57.2916C127.34 57.5316 126.08 59.2916 125.96 59.1316" fill="#163744"/>
<path d="M119.32 59.1213C119.32 59.1213 118.22 66.5813 125.43 67.8813C130.78 68.6888 136.193 68.9935 141.6 68.7913L142.85 85.9313L146.62 86.1213C146.62 86.1213 156.32 62.3213 142.89 58.6013L130.89 58.6613L125.89 58.3013C125.89 58.3013 120.89 57.0613 120.81 57.3013C120.73 57.5413 119.44 59.2513 119.32 59.1213Z" fill="#193C4A"/>
<path d="M128.4 34.6516C128.4 34.6516 133.4 35.2816 134.63 36.3116C135.86 37.3416 141.95 52.3816 141.95 52.3816L136.95 58.2916L126.24 58.3616C126.24 58.3616 118.24 62.7016 113.16 58.6016C108.08 54.5016 110.72 40.2516 113.63 37.1716C116.54 34.0916 121.75 34.1716 121.75 34.1716C121.75 34.1716 126.47 37.4816 128.45 34.6416" fill="#098AD3"/>
<path d="M118.79 42.1218C118.96 42.9405 119.08 43.7687 119.15 44.6018C119.15 45.0218 119.21 45.4418 119.24 45.8618C119.27 46.2818 119.24 46.7018 119.24 47.1218C119.238 47.9624 119.172 48.8016 119.04 49.6318C118.92 50.4688 118.671 51.2819 118.3 52.0418C118.549 51.2479 118.713 50.4301 118.79 49.6018C118.88 48.7718 118.91 47.9418 118.92 47.1118C118.93 46.2818 118.92 45.4518 118.92 44.6118C118.92 43.7718 118.85 42.9518 118.81 42.1118" fill="#0053C9"/>
<path d="M133.64 41.5818C133.87 42.8018 134.11 44.0218 134.35 45.2318C134.59 46.4418 134.86 47.6618 135.15 48.8618C135.44 50.0618 135.76 51.2518 136.15 52.4218C136.345 52.9993 136.568 53.5667 136.82 54.1218C137.062 54.6896 137.382 55.2213 137.77 55.7018C137.332 55.2564 136.965 54.7473 136.68 54.1918C136.387 53.6388 136.13 53.0676 135.91 52.4818C135.69 51.9018 135.5 51.3018 135.31 50.7118C135.12 50.1218 134.98 49.5118 134.83 48.9118C134.68 48.3118 134.55 47.7018 134.43 47.0918C134.31 46.4818 134.19 45.8718 134.1 45.2518C133.9 44.0318 133.74 42.8018 133.63 41.5518" fill="#0053C9"/>
<path d="M136.13 54.8813C136.13 54.6313 134.21 54.3513 133.51 54.3113C132.99 54.3113 129.51 54.1713 128.3 54.1113L128.39 54.4213V55.7713L128.19 56.6613C129.19 56.7313 131.78 56.8313 132.32 56.9413C132.98 57.1137 133.625 57.3377 134.25 57.6113C134.25 57.6113 134.77 57.4913 134.12 57.2113C133.72 57.0404 133.361 56.7845 133.07 56.4613C132.98 56.3613 133.07 56.1913 133.15 56.2013C134.92 56.6713 135.1 56.7413 135.1 56.7413C135.1 56.7413 137.18 56.7413 135.1 56.2613C133.86 55.9813 133.42 55.8213 133.3 55.6813C133.277 55.6596 133.261 55.6312 133.255 55.6002C133.249 55.5691 133.253 55.5369 133.266 55.5082C133.28 55.4794 133.302 55.4556 133.329 55.44C133.357 55.4244 133.388 55.4179 133.42 55.4213C134.49 55.3513 136.42 55.7313 135.89 55.4813C135.137 55.2418 134.364 55.0711 133.58 54.9713C133.58 54.9713 133.49 54.7713 133.64 54.7613C134.64 54.6713 136.17 55.1013 136.14 54.8713" fill="#FFC0BB"/>
<path d="M117.58 51.8515C118.02 51.9615 118.45 52.0815 118.88 52.1715L120.19 52.4415C121.07 52.6015 121.95 52.7515 122.83 52.8715C123.71 52.9915 124.6 53.0915 125.49 53.1815C126.38 53.2715 127.28 53.3415 128.15 53.3915H128.32V53.4915C128.389 53.7818 128.442 54.0755 128.48 54.3715C128.512 54.6671 128.528 54.9642 128.53 55.2615C128.528 55.5632 128.501 55.8642 128.45 56.1615C128.397 56.4573 128.31 56.7459 128.19 57.0215L127.19 57.6815L126.19 58.3215L127.12 57.6015L128.04 56.8815C128.141 56.6141 128.208 56.3353 128.24 56.0515C128.277 55.7663 128.294 55.479 128.29 55.1915C128.278 54.9069 128.251 54.6232 128.21 54.3415C128.17 54.0584 128.113 53.7779 128.04 53.5015L128.18 53.6115L126.83 53.5315L125.49 53.4215C124.6 53.3215 123.71 53.2215 122.82 53.0715C121.93 52.9215 121.05 52.7515 120.18 52.5515C119.74 52.4415 119.31 52.3315 118.88 52.2015L117.6 51.7715" fill="#0053C9"/>
<path d="M158.55 44.8516H139.17L133.67 58.2616H126.99C126.866 58.2708 126.749 58.3243 126.661 58.4124C126.573 58.5005 126.519 58.6173 126.51 58.7416C126.513 58.8671 126.564 58.9867 126.654 59.0745C126.744 59.1624 126.864 59.2116 126.99 59.2116H152.11L158.55 44.8516Z" fill="#FFC53E"/>
<path d="M148.94 52.5116C148.882 52.6819 148.776 52.8318 148.635 52.9434C148.493 53.0549 148.323 53.1234 148.144 53.1407C147.965 53.1579 147.784 53.1231 147.625 53.0405C147.465 52.9578 147.332 52.8309 147.242 52.6748C147.153 52.5187 147.11 52.3401 147.12 52.1603C147.129 51.9806 147.19 51.8074 147.295 51.6614C147.4 51.5155 147.546 51.4029 147.713 51.3373C147.881 51.2717 148.064 51.2559 148.24 51.2916C148.494 51.3618 148.71 51.5293 148.841 51.7577C148.972 51.9861 149.007 52.257 148.94 52.5116Z" fill="#EEFBFF"/>
<path d="M132.42 20.3516C132.42 20.3516 134.07 20.4016 132.33 19.0016C130.59 17.6016 125.93 16.0016 122.95 17.5416C122.95 17.5416 122.35 16.2716 121.49 16.5416C120.63 16.8116 122.05 17.7216 122.05 17.7216C122.05 17.7216 120.95 17.7216 120.61 18.2316C120.27 18.7416 121.04 18.6416 121.41 18.6316C120.78 18.7316 118.41 20.2516 119.58 25.1116C120.01 25.0116 122.46 21.4616 122.46 21.4616C122.46 21.4616 128.06 24.5716 127.46 22.1016C127.46 22.1016 133.26 25.7216 132.46 22.7316C132.46 22.7316 134.7 22.8916 132.4 20.3216" fill="#235347"/>
<path d="M119.57 25.1718C119.742 25.1162 119.926 25.1083 120.102 25.1488C120.278 25.1893 120.44 25.2767 120.57 25.4018C121.07 25.8018 121.02 27.1818 121.02 27.1818C121.02 27.1818 123.39 28.7218 123.14 22.1818C122.88 15.2718 121.14 22.7318 121.14 22.7318L119.57 25.1718Z" fill="#235347"/>
<path d="M57.66 37.3315L70.75 55.1215L66.02 57.3615L71.75 71.6615L57.63 55.2515L63.18 53.0615L57.66 37.3315Z" fill="#FFC53E"/>
<path d="M49.64 85.1816L59.51 99.1816L62.32 96.2116L71.45 103.922L62.82 89.5316L59.82 93.0816L49.64 85.1816Z" fill="#FFC53E"/>
<path d="M86.12 47.4717L84.54 60.1217L87.54 59.9217L88.68 68.7317L91.16 56.5017L87.75 56.9617L86.12 47.4717Z" fill="#FFC53E"/>
<path d="M49.63 159.122L52.63 157.262L55.23 158.842L54.32 159.482L51.16 159.932C51.16 159.932 49.93 159.772 49.88 159.732C49.7698 159.538 49.6793 159.334 49.61 159.122" fill="#FFC0BB"/>
<path d="M49.63 159.122L48.87 159.612C48.7939 159.661 48.7355 159.733 48.7035 159.818C48.6715 159.903 48.6675 159.995 48.6921 160.083C48.7167 160.17 48.7686 160.247 48.8402 160.303C48.9119 160.358 48.9994 160.389 49.09 160.392H54.87C54.9181 160.393 54.966 160.385 55.0109 160.367C55.0557 160.35 55.0966 160.323 55.1311 160.29C55.1656 160.256 55.193 160.216 55.2117 160.172C55.2304 160.127 55.24 160.08 55.24 160.032V158.812C51.38 160.022 50.05 159.642 49.62 159.102" fill="#0DD967"/>
<path d="M62.32 159.212L65.32 157.352L67.92 158.922L67.01 159.572L63.85 160.022C63.85 160.022 62.62 159.862 62.57 159.822C62.4639 159.626 62.3737 159.422 62.3 159.212" fill="#FFC0BB"/>
<path d="M62.32 159.211L61.55 159.701C61.4579 159.763 61.3929 159.857 61.3687 159.965C61.3445 160.073 61.3629 160.187 61.42 160.281C61.4581 160.34 61.51 160.387 61.5711 160.421C61.6322 160.454 61.7005 160.471 61.77 160.471H67.55C67.599 160.473 67.6477 160.464 67.6932 160.446C67.7388 160.428 67.7801 160.401 67.8147 160.366C67.8494 160.331 67.8766 160.29 67.8947 160.245C67.9128 160.199 67.9214 160.15 67.92 160.101V158.921C64.06 160.131 62.74 159.751 62.31 159.211" fill="#0DD967"/>
<path d="M91.8499 108.002C92.4553 107.643 93.1461 107.453 93.8499 107.453C94.5538 107.453 95.2446 107.643 95.8499 108.002C97.9699 109.222 97.9699 113.322 97.1399 114.302C96.3099 115.282 97.1399 116.622 95.5099 117.902C93.8799 119.182 91.1899 119.652 89.6699 118.152C88.1499 116.652 89.2699 113.312 89.2699 113.312L91.8499 108.002Z" fill="#2C3A64"/>
<path d="M68.43 121.672C68.4246 121.686 68.4163 121.699 68.4056 121.71C68.395 121.72 68.3822 121.729 68.3681 121.735C68.354 121.74 68.3389 121.743 68.3238 121.742C68.3086 121.742 68.2937 121.738 68.28 121.732C67.7303 120.849 67.0718 120.04 66.32 119.322C66.11 119.402 67.23 121.092 67.11 121.252C66.99 121.412 65.93 119.742 65.72 119.872C65.51 120.002 66.52 121.492 66.46 121.572C66.4 121.652 65.32 120.322 65.13 120.322C64.94 120.322 65.99 121.892 65.93 122.012C65.87 122.132 64.81 121.292 64.73 121.382C64.65 121.472 64.58 121.502 66.43 124.092C66.43 124.092 67.24 124.902 67.29 125.232L68.29 125.542L69.29 124.542C69.29 124.542 69.39 120.442 69.29 120.352C69.19 120.262 69.04 120.352 68.5 121.652" fill="#FFC0BB"/>
<path d="M71.9299 146.191L68.1399 159.121L63.5699 157.841L65.0899 146.981L69.8199 143.731L71.9299 146.191Z" fill="#163744"/>
<path d="M86.71 119.642C86.71 119.642 78.77 129.412 77.42 130.962L69.42 123.022C68.5192 123.522 67.6942 124.148 66.97 124.882C66.97 124.882 70.21 132.382 72.97 134.342L78.56 138.122L77.49 140.672L79.49 142.222L80.49 139.702L83.38 133.322L86.1 124.822L86.62 120.612L86.71 119.642Z" fill="#098AD3"/>
<path d="M86.6699 120.612C86.6699 120.612 83.3199 126.062 82.6699 128.172C82.0199 130.282 82.5299 130.442 82.2199 133.002C81.9099 135.562 79.5599 142.392 79.5599 142.392L83.4599 145.012C83.4599 145.012 85.5699 138.282 85.5699 138.012C85.5699 137.742 87.5699 125.412 87.5699 125.412L89.1899 120.812L86.6699 120.612Z" fill="#EEFBFF"/>
<path d="M83.0499 144.741C83.0499 144.741 76.3499 138.741 71.1699 137.521C65.9899 136.301 52.0699 157.321 52.0699 157.321L55.3999 159.721C55.3999 159.721 67.4 151.061 69.7299 147.191C69.7299 147.191 79.5099 160.101 82.7899 160.411C86.0699 160.721 89.7899 160.031 94.1299 154.791C99.0699 148.841 83.0499 144.791 83.0499 144.791" fill="#193C4A"/>
<path d="M89.7099 115.291L91.1899 119.291C91.1899 119.291 90.1199 121.741 86.5199 120.831C86.7455 119.978 86.6641 119.072 86.2899 118.271C85.6599 116.521 89.7099 115.271 89.7099 115.271" fill="#FFC0BB"/>
<g opacity="0.6">
<mask id="mask5_106_3545" style="mask-type:luminance" maskUnits="userSpaceOnUse" x="86" y="115" width="5" height="5">
<path d="M90.4 115.292H86.22V119.922H90.4V115.292Z" fill="white"/>
</mask>
<g mask="url(#mask5_106_3545)">
<path d="M89.7099 115.291L90.4099 117.161C90.0899 118.561 88.9099 119.551 86.6299 119.921C86.6067 119.357 86.4918 118.799 86.2899 118.271C85.6699 116.531 89.7099 115.271 89.7099 115.271" fill="#FC8D84"/>
</g>
</g>
<path d="M69.1299 143.271C69.0698 143.601 69.0397 143.936 69.0399 144.271C69.0417 144.606 69.0685 144.941 69.1199 145.271C69.1723 145.609 69.2458 145.943 69.3399 146.271C69.425 146.613 69.5353 146.947 69.6699 147.271L69.7499 147.211C69.5713 147.086 69.4009 146.949 69.2399 146.801C69.0699 146.651 68.9099 146.501 68.7599 146.341L68.3299 145.841C68.1899 145.671 68.0599 145.481 67.9299 145.301C68.0382 145.495 68.1584 145.682 68.2899 145.861C68.4199 146.041 68.5599 146.221 68.7099 146.391C68.8529 146.561 69.0065 146.721 69.1699 146.871C69.3337 147.026 69.5074 147.17 69.6899 147.301L69.8399 147.401L69.7699 147.231C69.6499 146.921 69.5399 146.611 69.4499 146.291C69.3519 145.963 69.2751 145.629 69.2199 145.291C69.1599 144.961 69.1198 144.627 69.0999 144.291C69.075 143.959 69.075 143.624 69.0999 143.291" fill="white"/>
<path d="M81.45 112.622C81.4959 112.818 81.4855 113.023 81.4199 113.213C81.3542 113.404 81.2361 113.572 81.079 113.698C80.922 113.824 80.7324 113.903 80.5323 113.926C80.3322 113.949 80.1296 113.915 79.948 113.828C79.7664 113.741 79.6131 113.604 79.5059 113.434C79.3987 113.263 79.342 113.066 79.3422 112.864C79.3424 112.663 79.3995 112.466 79.5071 112.295C79.6146 112.125 79.7682 111.988 79.95 111.902C80.2446 111.805 80.5654 111.825 80.845 111.959C81.1247 112.094 81.3415 112.331 81.45 112.622Z" fill="#F99893"/>
<path d="M81.89 116.502C81.708 116.223 81.5507 115.928 81.42 115.622C81.0728 114.816 80.8308 113.969 80.7 113.102C80.6821 112.932 80.6487 112.765 80.6 112.602C80.4183 111.889 80.3798 111.147 80.4867 110.419C80.5936 109.691 80.8438 108.992 81.2228 108.361C81.6018 107.731 82.1021 107.182 82.6948 106.746C83.2875 106.31 83.9607 105.996 84.6755 105.822C85.3904 105.648 86.1326 105.618 86.8592 105.733C87.5859 105.848 88.2825 106.106 88.9089 106.491C89.5352 106.877 90.0787 107.384 90.5081 107.981C90.9374 108.578 91.244 109.255 91.41 109.972C91.4918 110.3 91.5421 110.634 91.56 110.972C91.7152 110.863 91.8937 110.792 92.0811 110.764C92.2686 110.736 92.46 110.753 92.64 110.812C93.011 111.059 93.2695 111.442 93.3594 111.878C93.4493 112.314 93.3633 112.769 93.12 113.142C92.9475 113.408 92.7022 113.619 92.4133 113.75C92.1244 113.881 91.804 113.927 91.49 113.882C91.3965 113.849 91.3088 113.802 91.23 113.742C91.2052 115.048 90.6909 116.296 89.789 117.241C88.887 118.185 87.6633 118.757 86.36 118.842C85.0944 118.899 83.8542 118.474 82.89 117.652L82.69 117.482C82.3774 117.188 82.108 116.851 81.89 116.482" fill="#FFC0BB"/>
<path d="M79.82 122.862C81.0659 125.98 81.3605 129.397 80.6666 132.682C79.9727 135.968 78.3214 138.974 75.9209 141.322C73.5205 143.67 70.4784 145.255 67.1785 145.876C63.8785 146.497 60.4686 146.127 57.3787 144.813C54.2888 143.498 51.6573 141.298 49.8163 138.49C47.9753 135.682 47.0072 132.391 47.0341 129.033C47.061 125.676 48.0817 122.401 49.9674 119.623C51.8531 116.844 54.5194 114.686 57.63 113.422C59.7068 112.584 61.9283 112.164 64.1675 112.185C66.4067 112.207 68.6197 112.669 70.6803 113.545C72.7409 114.422 74.6086 115.696 76.1768 117.294C77.745 118.893 78.983 120.785 79.82 122.862Z" fill="#FFB93E"/>
<path d="M78.2301 123.502C79.5529 126.794 79.6938 130.442 78.6287 133.827C77.5636 137.211 75.3584 140.121 72.3885 142.062C69.4187 144.003 65.8679 144.855 62.3408 144.472C58.8137 144.089 55.5283 142.495 53.0442 139.962C50.56 137.429 49.0306 134.113 48.7165 130.58C48.4024 127.046 49.3229 123.512 51.3213 120.581C53.3198 117.649 56.2725 115.501 59.6768 114.502C63.0811 113.503 66.7264 113.715 69.9921 115.102C71.8507 115.89 73.5353 117.038 74.949 118.48C76.3627 119.921 77.4777 121.628 78.2301 123.502Z" fill="#FFC53E"/>
<path d="M69.3701 142.551C66.7334 143.605 63.8436 143.853 61.0658 143.265C58.2881 142.676 55.7472 141.278 53.7642 139.245C51.7812 137.213 50.4452 134.639 49.925 131.847C49.4048 129.056 49.7237 126.173 50.8415 123.563C51.9593 120.953 53.8258 118.733 56.2051 117.183C58.5843 115.634 61.3695 114.824 64.2087 114.857C67.0479 114.89 69.8136 115.764 72.1562 117.369C74.4988 118.973 76.3132 121.236 77.3701 123.871C78.0726 125.623 78.4228 127.496 78.4009 129.383C78.379 131.27 77.9853 133.135 77.2423 134.87C76.4993 136.605 75.4216 138.176 74.0708 139.494C72.72 140.812 71.1226 141.851 69.3701 142.551ZM58.84 116.411C56.3034 117.435 54.1272 119.188 52.5867 121.448C51.0462 123.708 50.2106 126.375 50.1855 129.11C50.1604 131.845 50.9469 134.526 52.4457 136.814C53.9444 139.103 56.088 140.895 58.6054 141.965C61.1228 143.035 63.901 143.334 66.5885 142.825C69.2761 142.316 71.7524 141.022 73.7042 139.105C75.656 137.189 76.9957 134.737 77.5539 132.059C78.1121 129.381 77.8636 126.598 76.84 124.061C75.4675 120.66 72.8 117.943 69.4244 116.509C66.0487 115.074 62.2415 115.039 58.84 116.411Z" fill="#FFA412"/>
<mask id="mask6_106_3545" style="mask-type:luminance" maskUnits="userSpaceOnUse" x="57" y="119" width="15" height="20">
<path d="M71.06 119.342H57.26V138.992H71.06V119.342Z" fill="white"/>
</mask>
<g mask="url(#mask6_106_3545)">
<path d="M64.53 124.122C64.321 123.784 64.0357 123.501 63.6969 123.294C63.3582 123.087 62.9755 122.963 62.58 122.932C62.5937 123.04 62.6171 123.147 62.65 123.252C63.13 124.452 63.65 125.632 64.09 126.832C64.19 127.092 64.32 127.152 64.6 127.132C65.266 127.09 65.9339 127.09 66.6 127.132C67.6094 127.142 68.5843 127.501 69.359 128.148C70.1338 128.795 70.6606 129.69 70.85 130.682C71.2125 131.772 71.1888 132.953 70.7826 134.028C70.3765 135.102 69.6128 136.004 68.62 136.582C68.23 136.852 68.18 137.082 68.38 137.472C68.5222 137.768 68.649 138.072 68.76 138.382L67.21 139.002L66.66 137.622C65.4124 137.987 64.0749 137.891 62.8923 137.351C61.7097 136.812 60.7611 135.864 60.22 134.682L62.86 133.262C63.1705 133.719 63.5726 134.108 64.0407 134.402C64.5089 134.696 65.033 134.89 65.58 134.972L64.82 133.122C64.51 132.342 64.18 131.572 63.88 130.782C63.8557 130.657 63.7832 130.548 63.6783 130.476C63.5734 130.405 63.4446 130.378 63.32 130.402C62.304 130.515 61.2756 130.385 60.32 130.022C59.4623 129.657 58.7255 129.056 58.1947 128.29C57.6638 127.524 57.3605 126.623 57.32 125.692C57.2354 124.843 57.4028 123.988 57.8012 123.234C58.1996 122.48 58.8113 121.86 59.56 121.452C59.6595 121.379 59.763 121.313 59.87 121.252L60 121.132L59.53 119.972L61.1 119.342C61.21 119.622 61.34 119.892 61.43 120.182C61.52 120.472 61.69 120.522 61.98 120.462C62.6045 120.293 63.2578 120.261 63.896 120.366C64.5342 120.471 65.1425 120.712 65.68 121.072C66.284 121.493 66.7834 122.047 67.14 122.692L64.53 124.122ZM65.53 130.242L67.2 134.392C67.6697 134.119 68.0255 133.686 68.2021 133.172C68.3786 132.658 68.3641 132.098 68.1613 131.594C67.9585 131.09 67.5809 130.676 67.0976 130.427C66.6144 130.179 66.0578 130.113 65.53 130.242ZM60.95 123.562C60.6087 123.856 60.3668 124.248 60.2576 124.685C60.1484 125.122 60.1771 125.582 60.34 126.002C60.5211 126.395 60.8188 126.723 61.1927 126.941C61.5665 127.159 61.9985 127.257 62.43 127.222L60.95 123.562Z" fill="#FFA412"/>
</g>
<path d="M70.0399 132.352C70.0481 132.366 70.0528 132.383 70.0535 132.4C70.0543 132.417 70.0512 132.433 70.0444 132.449C70.0377 132.464 70.0274 132.478 70.0145 132.489C70.0016 132.5 69.9863 132.508 69.9699 132.512C69.9589 132.516 69.947 132.519 69.9349 132.519C69.9229 132.519 69.911 132.516 69.8999 132.512C68.8173 132.232 67.7074 132.071 66.5899 132.032C66.4899 132.262 68.6599 132.762 68.6899 133.032C68.7199 133.302 66.6099 132.722 66.5299 132.982C66.4499 133.242 68.3999 133.662 68.4099 133.782C68.4199 133.902 66.5099 133.682 66.4099 133.782C66.3099 133.882 68.2799 134.382 68.3299 134.522C68.3799 134.662 66.8899 134.792 66.8899 134.922C66.8899 135.052 66.8899 135.142 70.2999 135.802L71.6699 136.002L72.8699 135.562L72.9299 134.022C71.92 132.858 70.8485 131.75 69.7199 130.702C69.5099 130.722 69.4999 130.882 70.0699 132.352" fill="#FFC0BB"/>
<path d="M91.09 118.622C91.09 118.622 97.92 126.862 96.99 141.352C96.06 155.842 95.9 155.952 95.9 155.952C93.26 155.6 90.7501 154.593 88.6 153.022C86.4592 151.381 84.1454 149.979 81.7 148.842L84.22 140.662C82.2946 140.703 80.3774 140.399 78.56 139.762C76.18 138.762 71.21 136.102 71.21 136.102C71.3806 134.996 71.6931 133.917 72.14 132.892C72.14 132.892 78.46 134.832 81.63 134.892C81.63 134.892 85.33 123.502 91.09 118.652" fill="#098AD3"/>
<path d="M90.6 121.262C89.5642 122.167 88.595 123.147 87.7 124.192C86.8012 125.236 85.9632 126.331 85.19 127.472L84.9 127.902L84.62 128.342L84.09 129.222C83.99 129.372 83.92 129.522 83.83 129.672L83.59 130.122L83.34 130.582C83.26 130.732 83.19 130.892 83.12 131.042L82.67 131.982L82.28 132.932L82.09 133.412L81.93 133.902C81.82 134.232 81.72 134.562 81.61 134.902C81.74 134.582 81.87 134.262 81.99 133.902L82.18 133.422L82.39 132.962L82.81 132.022L83.32 131.122L83.55 130.672L83.81 130.222L84.06 129.772C84.1392 129.621 84.226 129.474 84.32 129.332L84.86 128.462C84.94 128.312 85.04 128.172 85.13 128.032L85.42 127.602C86.18 126.472 87 125.372 87.87 124.312L88.54 123.532C88.76 123.272 88.99 123.012 89.22 122.762C89.67 122.242 90.15 121.762 90.64 121.272" fill="#0053C9"/>
<path d="M93.5499 127.012C92.9899 128.282 92.3899 129.522 91.7699 130.762C91.4499 131.382 91.1399 131.992 90.7699 132.602C90.3999 133.212 90.1099 133.812 89.7699 134.402C89.4299 134.992 89.0599 135.582 88.6699 136.152C88.4799 136.442 88.2799 136.722 88.0799 137.002C87.8878 137.289 87.6809 137.566 87.4599 137.832C87.0376 138.378 86.5764 138.892 86.0799 139.372C85.5926 139.86 85.0367 140.274 84.4299 140.602C85.0616 140.308 85.645 139.921 86.1599 139.452C86.6801 138.988 87.1617 138.483 87.5999 137.942C88.0499 137.412 88.4599 136.842 88.8499 136.282C89.2399 135.722 89.6199 135.112 89.9699 134.522C90.6799 133.322 91.3199 132.092 91.9699 130.842C92.5905 129.601 93.1315 128.321 93.5899 127.012" fill="#0053C9"/>
<path d="M80.32 106.232C81.0937 104.712 82.4164 103.543 84.02 102.962C85.6741 102.282 87.5233 102.25 89.2 102.872C93.91 104.642 92.97 109.872 92.75 110.802C92.4341 110.738 92.1059 110.795 91.83 110.962C91.688 111.033 91.5568 111.124 91.44 111.232C90.53 110.952 90.25 109.432 89.78 108.702C89.13 107.702 86.64 108.702 85.56 107.942C84.9904 107.622 84.5514 107.112 84.32 106.502C80.18 107.162 80.49 111.832 80.49 111.832C80.31 111.832 79.89 111.122 79.89 111.122C79.89 111.122 78.89 109.432 80.34 106.232" fill="#2C3A64"/>
<path d="M205.73 143.122L196.87 148.692L196.21 201.012L197.98 202.222L199.71 201.842L204.71 167.442L208.81 145.232L205.73 143.122Z" fill="#FFC0BB"/>
<path d="M223.72 194.441C221.21 187.868 217.53 181.804 212.86 176.541C212.86 176.541 214.16 173.051 215.49 161.541C216.82 150.031 211.2 142.771 211.2 142.771L201.27 145.771C201.27 145.771 206.32 175.981 207.14 177.901C207.77 179.401 215.86 190.221 219.34 194.841V194.931L220.9 196.931L222.39 198.831L224.14 198.031L224.45 195.841L223.72 194.441Z" fill="#FFC0BB"/>
<path d="M196.87 147.982C196.87 147.982 194.54 165.742 194.8 178.982C194.8 178.982 203.8 180.402 210.39 179.902L210.67 172.312L212.09 179.472C212.09 179.472 215.35 179.332 216.84 178.132C216.325 173.681 216.115 169.201 216.21 164.722C216.48 158.892 216.21 151.562 214.31 146.722C212.41 141.882 201.73 147.192 201.73 147.192L196.87 147.982Z" fill="#163744"/>
<path d="M208.87 103.251C210.097 104.23 211.019 105.538 211.53 107.021C212.05 108.911 214.39 108.581 215.85 111.101C217.47 113.901 219.78 118.101 214.49 120.921C211.2 122.671 205.97 124.031 204.79 122.841C203.61 121.651 200.79 122.131 201.41 109.681C201.41 109.681 209.14 105.311 209.22 105.281C209.144 104.609 209.031 103.941 208.88 103.281" fill="#2C3A64"/>
<path d="M198.58 138.891L199.52 134.821L197.17 128.501C196.31 131.733 195.235 134.904 193.95 137.991L186.85 138.861L185.32 139.121C185.32 139.121 195.03 144.661 197.66 140.581L198.12 140.691L198.37 139.611C198.51 139.379 198.621 139.131 198.7 138.871L198.58 138.891Z" fill="#24B5E9"/>
<path d="M207.61 116.842L207.42 119.842L203.34 120.692H202.62L202.77 117.112L207.09 115.582L207.61 116.842Z" fill="#FFC0BB"/>
<path d="M201.21 121.632C201.03 123.632 201.86 124.012 201.86 124.012L208.01 119.452C204.19 119.822 201.72 120.232 201.72 120.232C201.72 120.232 201.41 121.692 201.21 121.632Z" fill="#FFC0BB"/>
<path d="M211.42 110.341C211.42 110.341 212.68 105.181 209.69 103.251C208.479 102.421 207.067 101.93 205.602 101.832C204.136 101.733 202.671 102.03 201.36 102.691C199.2 103.851 197.9 107.881 198.87 110.191L206.05 107.991L211.42 110.341Z" fill="#2C3A64"/>
<path d="M207.69 116.062C207.69 116.062 207.61 116.932 207.53 118.012C205.98 119.712 203.07 119.132 202.69 119.012V117.372L207.69 116.062Z" fill="#F99893"/>
<path d="M199.81 111.121C199.837 111.327 199.805 111.536 199.719 111.724C199.632 111.912 199.494 112.072 199.32 112.185C199.147 112.298 198.945 112.36 198.738 112.364C198.531 112.367 198.327 112.312 198.15 112.205C197.972 112.098 197.829 111.942 197.736 111.757C197.643 111.572 197.604 111.364 197.624 111.158C197.644 110.952 197.722 110.756 197.849 110.592C197.975 110.428 198.146 110.303 198.34 110.231C198.653 110.161 198.98 110.215 199.254 110.38C199.528 110.546 199.727 110.812 199.81 111.121Z" fill="#F99893"/>
<path d="M199.87 115.122C199.698 114.805 199.564 114.469 199.47 114.122C199.192 113.263 199.028 112.373 198.98 111.472C198.98 111.292 198.98 111.122 198.98 110.942C198.832 109.471 199.259 108 200.172 106.838C201.085 105.675 202.412 104.911 203.876 104.706C205.339 104.5 206.826 104.869 208.023 105.735C209.221 106.601 210.037 107.897 210.3 109.352C210.35 109.683 210.37 110.017 210.36 110.352C210.527 110.253 210.715 110.197 210.909 110.188C211.102 110.179 211.295 110.218 211.47 110.302C211.648 110.442 211.796 110.616 211.906 110.814C212.016 111.012 212.086 111.23 212.111 111.455C212.136 111.68 212.116 111.908 212.053 112.126C211.989 112.343 211.883 112.546 211.74 112.722C211.536 112.975 211.264 113.166 210.956 113.272C210.649 113.379 210.317 113.396 210 113.322C209.904 113.281 209.816 113.223 209.74 113.152C209.583 114.486 208.93 115.713 207.912 116.589C206.893 117.465 205.583 117.926 204.24 117.882C202.942 117.813 201.719 117.251 200.82 116.312C200.752 116.254 200.688 116.19 200.63 116.122C200.347 115.822 200.105 115.486 199.91 115.122" fill="#FFC0BB"/>
<path d="M214.67 128.332C214.534 128.196 214.41 128.049 214.3 127.892C214.187 127.738 214.084 127.577 213.99 127.412C213.9 127.242 213.81 127.062 213.74 126.892C213.663 126.709 213.596 126.522 213.54 126.332C213.568 126.528 213.611 126.722 213.67 126.912C213.697 127.007 213.731 127.1 213.77 127.192C213.77 127.282 213.85 127.372 213.89 127.462C213.978 127.638 214.078 127.809 214.19 127.972C214.279 128.104 214.379 128.227 214.49 128.342C214.39 128.351 214.29 128.351 214.19 128.342C214.05 128.356 213.91 128.356 213.77 128.342H213.56C213.491 128.332 213.423 128.312 213.36 128.282C213.223 128.235 213.092 128.171 212.97 128.092C213.079 128.192 213.204 128.273 213.34 128.332C213.472 128.402 213.613 128.453 213.76 128.482C213.906 128.502 214.054 128.502 214.2 128.482C214.35 128.496 214.5 128.496 214.65 128.482H214.76L214.67 128.332Z" fill="white"/>
<path d="M203.02 110.931C202.869 111.175 202.735 111.429 202.62 111.691C202.499 111.953 202.399 112.224 202.32 112.501C202.278 112.641 202.251 112.786 202.24 112.931V113.191H202.29L202.38 113.251C202.506 113.326 202.64 113.386 202.78 113.431C202.916 113.482 203.057 113.519 203.2 113.541C202.941 113.432 202.693 113.298 202.46 113.141L202.38 113.081C202.365 113.029 202.365 112.974 202.38 112.921C202.396 112.786 202.423 112.652 202.46 112.521C202.54 112.251 202.63 111.981 202.72 111.711C202.81 111.441 202.91 111.181 202.99 110.901" fill="#F99893"/>
<path d="M213.69 136.862C214.164 134.067 214.498 131.25 214.69 128.422C214.69 127.422 213.54 126.022 213.48 125.232C212.977 124.829 212.579 124.311 212.32 123.722L210.54 120.032L209.36 119.452C208.902 119.392 208.438 119.392 207.98 119.452L204.93 121.752C204.51 122.059 203.986 122.19 203.471 122.117C202.955 122.044 202.489 121.773 202.17 121.362C201.931 121.035 201.792 120.646 201.77 120.242C199.1 122.392 197.3 123.352 196.93 126.802C196.67 129.202 197.93 131.242 198.12 133.532L196.92 147.992C202.744 148.039 208.563 147.618 214.32 146.732C213.845 143.467 213.634 140.17 213.69 136.872" fill="#098AD3"/>
<path d="M196.03 147.342L185.5 147.982C185.158 147.989 184.822 147.898 184.53 147.721C184.238 147.544 184.002 147.288 183.85 146.982L178.32 134.202C178.07 133.632 178.42 133.142 179.08 133.102L189.61 132.472C189.952 132.461 190.29 132.55 190.583 132.727C190.876 132.904 191.111 133.163 191.26 133.472L196.8 146.292C197.05 146.862 196.7 147.352 196.04 147.392" fill="#064C91"/>
<path d="M186.49 133.301L182.9 133.521C182.755 133.527 182.611 133.491 182.486 133.419C182.36 133.346 182.258 133.24 182.19 133.111L182.09 132.881C181.98 132.631 182.09 132.421 182.42 132.401L186 132.191C186.146 132.181 186.291 132.214 186.418 132.287C186.545 132.36 186.646 132.47 186.71 132.601L186.81 132.831C186.92 133.071 186.81 133.281 186.49 133.301Z" fill="#EEFBFF"/>
<path d="M211.03 109.632H210.9L210.81 108.512L210.31 107.512C210.31 107.512 208.31 104.732 208.31 104.662C207.789 104.283 207.237 103.949 206.66 103.662C206.57 103.662 204.47 103.962 204.47 103.962C204.47 103.962 200.79 103.162 201.41 105.222C201.723 105.948 202.196 106.595 202.793 107.114C203.391 107.634 204.097 108.012 204.86 108.222C204.548 107.684 204.383 107.073 204.38 106.452C206.096 108.168 208.135 109.528 210.38 110.452C210.547 110.353 210.735 110.297 210.929 110.288C211.122 110.279 211.315 110.318 211.49 110.402L211.03 109.632Z" fill="#2C3A64"/>
<path d="M215.52 129.422C215.52 129.422 214.02 121.202 209.44 119.492C209.205 119.404 208.955 119.363 208.704 119.371C208.453 119.38 208.206 119.438 207.978 119.542C207.749 119.646 207.544 119.794 207.372 119.977C207.201 120.161 207.068 120.377 206.98 120.612C206.901 120.819 206.86 121.04 206.86 121.262C206.86 123.162 212.67 137.172 212.07 137.892C211.26 138.892 196.33 142.392 195.83 142.512L194.05 142.342C193.022 142.208 191.986 142.145 190.95 142.152C190.83 142.302 190.95 142.452 192.47 143.152C192.487 143.16 192.501 143.172 192.513 143.186C192.525 143.2 192.534 143.217 192.54 143.234C192.545 143.252 192.547 143.271 192.546 143.289C192.544 143.307 192.539 143.325 192.53 143.342C192.526 143.355 192.52 143.367 192.511 143.377C192.503 143.387 192.492 143.396 192.48 143.402C191.74 143.852 189.42 145.302 189.48 145.512C189.54 145.722 191.67 144.512 191.86 144.692C192.05 144.872 189.97 146.002 190.1 146.262C190.23 146.522 192.1 145.402 192.2 145.492C192.3 145.582 190.63 146.842 190.62 147.042C190.61 147.242 192.55 146.112 192.7 146.192C192.85 146.272 191.76 147.492 191.85 147.592C191.94 147.692 191.58 147.852 194.85 145.792C194.85 145.792 195.65 145.252 195.94 145.032C195.94 145.032 214.48 142.412 215.63 140.952C217.77 138.222 215.55 129.392 215.55 129.392" fill="#FFC0BB"/>
<path d="M215.52 129.421C215.52 129.421 214.02 121.201 209.43 119.491C209.196 119.403 208.946 119.363 208.696 119.371C208.446 119.38 208.2 119.438 207.972 119.542C207.745 119.646 207.54 119.794 207.369 119.978C207.199 120.161 207.067 120.377 206.98 120.611C206.901 120.819 206.86 121.039 206.86 121.261C206.86 123.161 212.67 137.171 212.07 137.891C211.25 138.891 196.32 142.391 195.83 142.511C196.009 143.349 196.232 144.177 196.5 144.991C199.56 144.541 214.61 142.301 215.65 140.991C217.78 138.271 215.56 129.441 215.56 129.441" fill="#24B5E9"/>
<path d="M192.89 202.272L196.55 200.012L199.72 201.922L198.62 202.702L194.78 203.242C194.78 203.242 193.28 203.052 193.22 203.012C193.089 202.773 192.982 202.522 192.9 202.262" fill="#FFC0BB"/>
<path d="M192.89 202.271L191.96 202.871C191.867 202.931 191.796 203.018 191.757 203.121C191.718 203.224 191.714 203.336 191.744 203.442C191.774 203.548 191.838 203.641 191.926 203.708C192.013 203.774 192.12 203.81 192.23 203.811H199.23C199.349 203.811 199.464 203.764 199.548 203.68C199.633 203.595 199.68 203.481 199.68 203.361V201.921C194.99 203.391 193.38 202.921 192.85 202.271" fill="#063E70"/>
<path d="M221.43 201.922L221.33 197.422L224.45 195.802L224.6 197.142L223.2 200.762C223.2 200.762 222.3 201.972 222.2 202.012C221.931 202.002 221.664 201.972 221.4 201.922" fill="#FFC0BB"/>
<path d="M221.42 201.922L221.49 203.021C221.494 203.089 221.511 203.154 221.54 203.215C221.569 203.275 221.61 203.329 221.66 203.374C221.711 203.418 221.769 203.452 221.832 203.474C221.896 203.496 221.963 203.506 222.03 203.502C222.114 203.499 222.196 203.474 222.268 203.43C222.34 203.386 222.399 203.325 222.44 203.252L225.9 197.132C225.958 197.028 225.972 196.906 225.94 196.792C225.909 196.677 225.833 196.58 225.73 196.521L224.45 195.792C223.45 200.602 222.25 201.792 221.45 201.922" fill="#063E70"/>
<path d="M154.79 91.7114L148.51 89.2914C148.435 89.2622 148.375 89.2053 148.342 89.1326C148.308 89.0599 148.304 88.9771 148.33 88.9014V88.7814C148.344 88.7446 148.366 88.7109 148.393 88.6824C148.421 88.6539 148.453 88.6311 148.49 88.6153C148.526 88.5995 148.565 88.591 148.604 88.5904C148.644 88.5897 148.683 88.5969 148.72 88.6114L154.99 91.0314C155.028 91.0448 155.062 91.0656 155.092 91.0925C155.122 91.1195 155.145 91.1521 155.162 91.1885C155.179 91.2248 155.188 91.2641 155.19 91.3042C155.191 91.3442 155.184 91.384 155.17 91.4214V91.5414C155.141 91.616 155.084 91.6764 155.011 91.7099C154.939 91.7435 154.856 91.7476 154.78 91.7214" fill="white"/>
<path d="M149.61 86.5215L148.61 88.3415C148.49 88.5715 148.54 88.8415 148.71 88.9015L154.71 91.2315C154.797 91.261 154.891 91.2644 154.979 91.2413C155.068 91.2182 155.148 91.1696 155.21 91.1015C155.317 90.979 155.389 90.8293 155.417 90.6689C155.446 90.5084 155.429 90.3433 155.37 90.1915C155.12 89.1915 153.37 88.3415 152.81 87.3515L150 86.2715C149.906 86.2509 149.808 86.2648 149.723 86.3108C149.639 86.3567 149.574 86.4315 149.54 86.5215" fill="#235347"/>
<path d="M152.03 88.3015C152.01 88.2779 151.998 88.2477 151.998 88.2165C151.998 88.1853 152.01 88.1551 152.03 88.1315C152.217 87.9179 152.471 87.7732 152.75 87.7207C153.029 87.6681 153.318 87.7106 153.57 87.8415C153.587 87.8628 153.596 87.8892 153.596 87.9165C153.596 87.9438 153.587 87.9702 153.57 87.9915C153.57 88.0515 153.48 88.0715 153.45 88.0515C153.231 87.9282 152.976 87.8857 152.73 87.9314C152.483 87.9771 152.26 88.1081 152.1 88.3015C152.086 88.3129 152.068 88.3191 152.05 88.3191C152.032 88.3191 152.014 88.3129 152 88.3015" fill="white"/>
<path d="M152.56 88.7917C152.543 88.7667 152.534 88.737 152.534 88.7067C152.534 88.6763 152.543 88.6467 152.56 88.6217C152.744 88.4034 152.998 88.2554 153.278 88.2026C153.559 88.1497 153.849 88.1953 154.1 88.3317C154.117 88.353 154.126 88.3794 154.126 88.4067C154.126 88.4339 154.117 88.4604 154.1 88.4817C154.1 88.5417 154.02 88.5617 153.98 88.5417C153.762 88.4192 153.508 88.3762 153.262 88.42C153.016 88.4637 152.792 88.5916 152.63 88.7817C152.624 88.7883 152.616 88.7936 152.607 88.7972C152.599 88.8008 152.589 88.8027 152.58 88.8027C152.571 88.8027 152.561 88.8008 152.553 88.7972C152.544 88.7936 152.537 88.7883 152.53 88.7817" fill="white"/>
<path d="M153.05 89.2516C153.031 89.2272 153.021 89.1973 153.021 89.1666C153.021 89.1358 153.031 89.106 153.05 89.0816C153.232 88.8641 153.484 88.7165 153.763 88.6636C154.042 88.6108 154.331 88.656 154.58 88.7916C154.599 88.8119 154.61 88.8387 154.61 88.8666C154.61 88.8944 154.599 88.9212 154.58 88.9416C154.576 88.9529 154.569 88.9632 154.561 88.9719C154.552 88.9806 154.542 88.9875 154.531 88.9922C154.519 88.9969 154.507 88.9992 154.495 88.9991C154.483 88.999 154.471 88.9964 154.46 88.9916C154.24 88.8721 153.986 88.8318 153.741 88.8773C153.495 88.9228 153.272 89.0514 153.11 89.2416C153.103 89.2482 153.096 89.2535 153.087 89.2571C153.079 89.2607 153.069 89.2626 153.06 89.2626C153.051 89.2626 153.041 89.2607 153.033 89.2571C153.024 89.2535 153.017 89.2482 153.01 89.2416" fill="white"/>
<g opacity="0.3">
<mask id="mask7_106_3545" style="mask-type:luminance" maskUnits="userSpaceOnUse" x="148" y="87" width="3" height="3">
<path d="M150.37 87.1714H148.58V89.5314H150.37V87.1714Z" fill="white"/>
</mask>
<g mask="url(#mask7_106_3545)">
<path d="M150.32 89.5314C150.44 87.7914 149.69 87.3114 149.23 87.1714L148.61 88.3514C148.49 88.5714 148.54 88.8414 148.71 88.9014L150.32 89.5314Z" fill="#E87B50"/>
</g>
</g>
<path d="M148.39 91.7314L141.96 89.7314C141.885 89.7083 141.822 89.6566 141.784 89.5873C141.747 89.5181 141.738 89.437 141.76 89.3614V89.2314C141.77 89.1934 141.788 89.1579 141.813 89.1271C141.837 89.0962 141.867 89.0707 141.902 89.052C141.937 89.0333 141.975 89.0218 142.014 89.0183C142.053 89.0147 142.093 89.0192 142.13 89.0314L148.56 91.0314C148.598 91.0428 148.634 91.0618 148.665 91.0872C148.696 91.1126 148.721 91.1439 148.74 91.1793C148.759 91.2147 148.77 91.2535 148.773 91.2933C148.777 91.3332 148.772 91.3734 148.76 91.4114V91.5414C148.75 91.5794 148.732 91.6149 148.707 91.6458C148.683 91.6766 148.653 91.7022 148.618 91.7209C148.583 91.7396 148.545 91.7511 148.506 91.7546C148.467 91.7581 148.427 91.7536 148.39 91.7414" fill="white"/>
<path d="M142.87 86.9117L142.03 88.8017C141.978 88.8938 141.963 89.0024 141.989 89.1049C142.016 89.2074 142.08 89.2958 142.17 89.3517L148.35 91.2517C148.441 91.2754 148.537 91.2719 148.626 91.2417C148.714 91.2115 148.792 91.1559 148.85 91.0817C148.948 90.9518 149.01 90.7976 149.027 90.6356C149.045 90.4735 149.018 90.3098 148.95 90.1617C148.63 89.1617 146.88 88.4617 146.19 87.5117L143.32 86.6217C143.226 86.6101 143.13 86.6317 143.05 86.6828C142.969 86.7338 142.909 86.8113 142.88 86.9017" fill="#235347"/>
<path d="M145.4 88.5218C145.383 88.4968 145.374 88.4671 145.374 88.4368C145.374 88.4064 145.383 88.3768 145.4 88.3518C145.57 88.1227 145.814 87.9584 146.09 87.8857C146.366 87.8131 146.659 87.8363 146.92 87.9518C146.939 87.9721 146.949 87.9989 146.949 88.0268C146.949 88.0546 146.939 88.0814 146.92 88.1018C146.92 88.1018 146.84 88.1818 146.8 88.1618C146.574 88.0581 146.32 88.0353 146.08 88.0972C145.839 88.1592 145.627 88.302 145.48 88.5018C145.473 88.5084 145.466 88.5137 145.457 88.5173C145.448 88.5209 145.439 88.5228 145.43 88.5228C145.421 88.5228 145.411 88.5209 145.403 88.5173C145.394 88.5137 145.386 88.5084 145.38 88.5018" fill="white"/>
<path d="M145.97 88.9715C145.951 88.9471 145.941 88.9172 145.941 88.8865C145.941 88.8558 145.951 88.8259 145.97 88.8015C146.141 88.5724 146.384 88.4081 146.66 88.3354C146.936 88.2628 147.229 88.286 147.49 88.4015C147.507 88.4228 147.516 88.4492 147.516 88.4765C147.516 88.5038 147.507 88.5302 147.49 88.5515C147.483 88.5738 147.468 88.5926 147.447 88.6038C147.427 88.615 147.403 88.6177 147.38 88.6115C147.153 88.509 146.897 88.4868 146.655 88.5486C146.414 88.6103 146.2 88.7524 146.05 88.9515C146.044 88.9581 146.036 88.9634 146.027 88.967C146.019 88.9706 146.009 88.9725 146 88.9725C145.991 88.9725 145.982 88.9706 145.973 88.967C145.964 88.9634 145.957 88.9581 145.95 88.9515" fill="white"/>
<path d="M146.49 89.3914C146.471 89.367 146.461 89.3371 146.461 89.3064C146.461 89.2757 146.471 89.2458 146.49 89.2214C146.66 88.9924 146.904 88.828 147.18 88.7554C147.456 88.6827 147.749 88.706 148.01 88.8214C148.024 88.8438 148.032 88.8699 148.032 88.8964C148.032 88.923 148.024 88.949 148.01 88.9714C148.01 89.0214 147.93 89.0514 147.89 89.0314C147.663 88.927 147.407 88.9038 147.165 88.9657C146.923 89.0276 146.709 89.1709 146.56 89.3714C146.553 89.3781 146.546 89.3833 146.537 89.387C146.528 89.3906 146.519 89.3924 146.51 89.3924C146.501 89.3924 146.491 89.3906 146.483 89.387C146.474 89.3833 146.466 89.3781 146.46 89.3714" fill="white"/>
<g opacity="0.3">
<mask id="mask8_106_3545" style="mask-type:luminance" maskUnits="userSpaceOnUse" x="141" y="87" width="3" height="3">
<path d="M143.82 87.5815H141.98V89.8515H143.82V87.5815Z" fill="white"/>
</mask>
<g mask="url(#mask8_106_3545)">
<path d="M143.82 89.8615C143.82 88.1215 143.04 87.6915 142.57 87.5815L142.03 88.8015C141.978 88.8936 141.963 89.0022 141.989 89.1047C142.016 89.2072 142.08 89.2956 142.17 89.3515L143.82 89.8615Z" fill="#E87B50"/>
</g>
</g>
<path d="M225.86 165.972C230.991 165.972 235.15 161.812 235.15 156.682C235.15 151.551 230.991 147.392 225.86 147.392C220.729 147.392 216.57 151.551 216.57 156.682C216.57 161.812 220.729 165.972 225.86 165.972Z" fill="#00BF90"/>
<path d="M124.26 161.021H16.51V172.281H124.26V161.021Z" fill="#FCD17D"/>
<path d="M112.81 172.091H5.05994V183.351H112.81V172.091Z" fill="#FCD17D"/>
<path d="M108.12 183.161H0.369995V194.421H108.12V183.161Z" fill="#FCD17D"/>
<path d="M115.88 194.231H8.13V205.491H115.88V194.231Z" fill="#FCD17D"/>
<path d="M124.2 160.631H16.45V171.891H124.2V160.631Z" fill="#FCD17D"/>
<path d="M16.45 160.631L124.21 171.891H16.45V160.631Z" fill="#FFA600"/>
<path d="M124.21 160.631V171.891L16.45 160.631H124.21Z" fill="#FFD165"/>
<path d="M28.73 160.631H25.95V171.861H28.73V160.631Z" fill="#FFD165"/>
<path d="M43.63 160.631H40.85V171.861H43.63V160.631Z" fill="#FFD165"/>
<path d="M60.28 160.631H57.5V171.861H60.28V160.631Z" fill="#FFD165"/>
<path d="M76.07 160.631H73.29V171.861H76.07V160.631Z" fill="#FFD165"/>
<path d="M94.4699 160.631H91.6899V171.861H94.4699V160.631Z" fill="#FFD165"/>
<path d="M112.81 172.091H5.05994V183.351H112.81V172.091Z" fill="#FCD17D"/>
<path d="M5.05994 172.122L112.81 183.382H5.05994V172.122Z" fill="#FFA600"/>
<path d="M112.81 172.122V183.382L5.05994 172.122H112.81Z" fill="#FFD165"/>
<path d="M17.3399 172.091H14.5599V183.321H17.3399V172.091Z" fill="#FFD165"/>
<path d="M32.24 172.091H29.46V183.321H32.24V172.091Z" fill="#FFD165"/>
<path d="M48.89 172.091H46.11V183.321H48.89V172.091Z" fill="#FFD165"/>
<path d="M64.67 172.091H61.89V183.321H64.67V172.091Z" fill="#FFD165"/>
<path d="M83.08 172.091H80.3V183.321H83.08V172.091Z" fill="#FFD165"/>
<path d="M101.04 172.091H98.26V183.321H101.04V172.091Z" fill="#FFD165"/>
<path d="M108.12 183.551H0.369995V194.811H108.12V183.551Z" fill="#FCD17D"/>
<path d="M0.369995 183.551L108.12 194.811H0.369995V183.551Z" fill="#FFA600"/>
<path d="M108.12 183.551V194.811L0.369995 183.551H108.12Z" fill="#FFD165"/>
<path d="M12.64 183.551H9.85999V194.781H12.64V183.551Z" fill="#FFD165"/>
<path d="M27.55 183.551H24.77V194.781H27.55V183.551Z" fill="#FFD165"/>
<path d="M44.2 183.551H41.42V194.781H44.2V183.551Z" fill="#FFD165"/>
<path d="M59.98 183.551H57.2V194.781H59.98V183.551Z" fill="#FFD165"/>
<path d="M78.38 183.551H75.6V194.781H78.38V183.551Z" fill="#FFD165"/>
<path d="M96.3499 183.551H93.5699V194.781H96.3499V183.551Z" fill="#FFD165"/>
<path d="M115.88 194.872H8.13V206.132H115.88V194.872Z" fill="#FCD17D"/>
<path d="M8.13 194.872L115.88 206.122H8.13V194.872Z" fill="#FFA600"/>
<path d="M115.88 194.872V206.122L8.12 194.872H115.88Z" fill="#FFD165"/>
<path d="M20.41 194.872H17.63V206.102H20.41V194.872Z" fill="#FFD165"/>
<path d="M35.31 194.872H32.53V206.102H35.31V194.872Z" fill="#FFD165"/>
<path d="M51.9601 194.872H49.1801V206.102H51.9601V194.872Z" fill="#FFD165"/>
<path d="M67.74 194.872H64.96V206.102H67.74V194.872Z" fill="#FFD165"/>
<path d="M86.14 194.872H83.36V206.102H86.14V194.872Z" fill="#FFD165"/>
<path d="M104.11 194.872H101.33V206.102H104.11V194.872Z" fill="#FFD165"/>
</svg>
