<svg width="250" height="225" viewBox="0 0 250 225" fill="none" xmlns="http://www.w3.org/2000/svg">
<path d="M238.51 115.582H64.0601C58.5372 115.582 54.0601 120.059 54.0601 125.582V214.522C54.0601 220.045 58.5372 224.522 64.0601 224.522H238.51C244.033 224.522 248.51 220.045 248.51 214.522V125.582C248.51 120.059 244.033 115.582 238.51 115.582Z" fill="white"/>
<path opacity="0.3" d="M79.8301 130.812H66.9401V209.292H79.8301V130.812Z" fill="#FFC53E"/>
<path opacity="0.3" d="M125.51 130.812H111.45V209.292H125.51V130.812Z" fill="#FFC53E"/>
<path opacity="0.3" d="M103.26 130.812H89.2001V209.292H103.26V130.812Z" fill="#FFC53E"/>
<path opacity="0.3" d="M147.77 130.812H133.71V209.292H147.77V130.812Z" fill="#FFC53E"/>
<path opacity="0.3" d="M168.86 130.812H155.97V209.292H168.86V130.812Z" fill="#FFC53E"/>
<path d="M79.8301 172.982H66.9401V209.292H79.8301V172.982Z" fill="#FFC53E"/>
<path d="M125.51 190.552H111.45V209.292H125.51V190.552Z" fill="#FFC53E"/>
<path d="M103.26 182.352H89.2001V209.292H103.26V182.352Z" fill="#FFC53E"/>
<path d="M147.77 180.012H133.71V209.292H147.77V180.012Z" fill="#FFC53E"/>
<path d="M168.86 170.642H155.97V209.292H168.86V170.642Z" fill="#FFC53E"/>
<path d="M226.25 130.812H181.74V137.842H226.25V130.812Z" fill="#00BF90"/>
<path opacity="0.3" d="M236.79 144.872H181.74V151.902H236.79V144.872Z" fill="#00BF90"/>
<path opacity="0.3" d="M236.79 156.582H181.74V162.442H236.79V156.582Z" fill="#00BF90"/>
<path opacity="0.3" d="M236.79 165.952H181.74V172.982H236.79V165.952Z" fill="#00BF90"/>
<path opacity="0.3" d="M236.79 177.672H181.74V184.702H236.79V177.672Z" fill="#00BF90"/>
<path d="M170.39 0.882324H10C4.47715 0.882324 0 5.35948 0 10.8823V123.252C0 128.775 4.47715 133.252 10 133.252H170.39C175.913 133.252 180.39 128.775 180.39 123.252V10.8823C180.39 5.35948 175.913 0.882324 170.39 0.882324Z" fill="white"/>
<path d="M47.59 98.4124C64.9041 98.4124 78.94 84.3765 78.94 67.0624C78.94 49.7483 64.9041 35.7124 47.59 35.7124C30.2759 35.7124 16.24 49.7483 16.24 67.0624C16.24 84.3765 30.2759 98.4124 47.59 98.4124Z" fill="#00BF90"/>
<path d="M47.7 35.6421C61.64 35.7621 79.4 43.6421 79.97 67.0621H47.59C47.59 67.0621 47.7 41.0821 47.7 35.6421Z" fill="#FFC53E"/>
<path d="M47.59 98.5725C53.67 98.9425 77.19 94.5725 79.97 67.0625H47.59V98.5725Z" fill="#B0D8EE"/>
<path d="M146.59 31.3325H92.71V39.5325H146.59V31.3325Z" fill="#098AD3"/>
<path opacity="0.3" d="M160.48 47.7324H93.71V55.9324H160.48V47.7324Z" fill="#098AD3"/>
<path opacity="0.3" d="M160.48 61.7925H93.71V68.8225H160.48V61.7925Z" fill="#098AD3"/>
<path opacity="0.3" d="M160.48 73.5024H93.71V81.7024H160.48V73.5024Z" fill="#098AD3"/>
<path opacity="0.3" d="M160.48 87.5625H93.71V95.7625H160.48V87.5625Z" fill="#098AD3"/>
<path d="M249.68 65.3521L202.18 81.0821L211.72 89.0821L170.62 132.082L134.59 101.082L36.0601 182.212L44.7001 186.922L57.1201 192.422L134.24 131.802L172.24 164.412L229.83 104.082L240.13 112.662L249.68 65.3521Z" fill="#1B404F"/>
<path d="M134.63 95.6023C134.681 95.4953 134.745 95.3946 134.82 95.3023C134.873 95.2384 134.933 95.1813 135 95.1323L135.27 94.8523L135.34 94.9123C136.71 94.2323 139.56 94.9123 142.43 96.8223C145.9 99.0923 148.13 102.222 147.49 103.872L147.59 103.952L147.21 104.332L147.15 104.392C147.047 104.484 146.933 104.561 146.81 104.622C145.45 105.332 142.58 104.622 139.68 102.732C136.13 100.432 133.87 97.2323 134.63 95.6023Z" fill="#FFA412"/>
<path d="M142.84 96.4024C139.3 94.0924 135.84 93.5524 135.04 95.1824C134.24 96.8124 136.53 100.012 140.04 102.322C143.55 104.632 147.04 105.182 147.83 103.552C148.62 101.922 146.39 98.7224 142.84 96.4024Z" fill="#FFC53E"/>
<path d="M140.27 101.872C138.888 100.989 137.67 99.8725 136.67 98.572C135.82 97.392 135.52 96.362 135.84 95.662C135.929 95.4819 136.056 95.3238 136.214 95.1993C136.371 95.0747 136.554 94.9868 136.75 94.942C138.06 94.562 140.37 95.282 142.65 96.772C144.031 97.6489 145.246 98.7627 146.24 100.062C147.1 101.242 147.39 102.282 147.07 102.972C146.984 103.155 146.858 103.316 146.7 103.443C146.542 103.57 146.358 103.658 146.16 103.702C145.909 103.77 145.65 103.804 145.39 103.802C143.543 103.622 141.777 102.956 140.27 101.872ZM136.82 95.192C136.66 95.2253 136.511 95.2949 136.382 95.3955C136.254 95.4961 136.15 95.6249 136.08 95.772C135.8 96.372 136.08 97.332 136.88 98.422C137.859 99.6966 139.054 100.79 140.41 101.652C141.882 102.709 143.607 103.361 145.41 103.542C145.646 103.543 145.882 103.513 146.11 103.452C146.272 103.417 146.423 103.346 146.553 103.243C146.683 103.141 146.788 103.011 146.86 102.862C147.13 102.262 146.86 101.302 146.05 100.222C145.077 98.9452 143.886 97.8515 142.53 96.992C141.059 95.9317 139.334 95.2796 137.53 95.102C137.294 95.094 137.058 95.1209 136.83 95.182L136.82 95.192Z" fill="#FFA412"/>
<path d="M155.64 47.0819C155.677 47.0084 155.721 46.9381 155.77 46.8719C155.808 46.8268 155.852 46.7865 155.9 46.7519L156.09 46.5519H156.14C157.14 46.0719 159.14 46.5519 161.14 47.9119C163.6 49.5219 165.19 51.7419 164.73 52.9119L164.8 52.9619L164.53 53.2319H164.48L164.24 53.4019C163.24 53.9019 161.24 53.4019 159.17 52.0519C156.69 50.5419 155.1 48.2719 155.64 47.0819Z" fill="#FFA412"/>
<path d="M161.47 47.6821C158.96 46.0421 156.47 45.6821 155.93 46.8221C155.39 47.9621 156.99 50.2521 159.49 51.8921C161.99 53.5321 164.49 53.8921 165.03 52.7621C165.57 51.6321 163.98 49.3321 161.47 47.6821Z" fill="#FFC53E"/>
<path d="M159.64 51.5621C158.661 50.9363 157.798 50.1444 157.09 49.2221C156.48 48.3821 156.27 47.6521 156.5 47.1521C156.565 47.0268 156.655 46.9166 156.766 46.8287C156.876 46.7408 157.003 46.6772 157.14 46.6421C158.07 46.3721 159.71 46.8821 161.33 47.9421C162.312 48.5645 163.176 49.3569 163.88 50.2821C164.49 51.1121 164.7 51.8521 164.47 52.3421C164.407 52.4693 164.317 52.5815 164.206 52.6712C164.096 52.7608 163.968 52.8259 163.83 52.8621C163.647 52.9106 163.459 52.9341 163.27 52.9321C161.961 52.8032 160.708 52.3306 159.64 51.5621ZM157.19 46.8221C157.076 46.8472 156.968 46.8981 156.876 46.9708C156.785 47.0436 156.711 47.1364 156.66 47.2421C156.47 47.6621 156.66 48.3521 157.24 49.1221C157.936 50.0231 158.782 50.7978 159.74 51.4121C160.784 52.1577 162.004 52.6195 163.28 52.7521C163.449 52.7528 163.618 52.7292 163.78 52.6821C163.892 52.6582 163.998 52.6087 164.088 52.5376C164.178 52.4666 164.251 52.3757 164.3 52.2721C164.5 51.8421 164.3 51.1621 163.73 50.3921C163.04 49.4861 162.193 48.7106 161.23 48.1021C160.189 47.3493 158.968 46.8837 157.69 46.7521C157.521 46.7515 157.353 46.775 157.19 46.8221Z" fill="#FFA412"/>
<path d="M164.66 112.942C164.626 112.863 164.583 112.79 164.53 112.722L164.4 112.592L164.2 112.392H164.15C163.15 111.902 161.06 112.392 158.96 113.782C156.42 115.442 154.79 117.722 155.26 118.942H155.19L155.47 119.222C155.544 119.291 155.629 119.348 155.72 119.392C156.72 119.912 158.81 119.392 160.93 118.012C163.58 116.472 165.22 114.142 164.66 112.942Z" fill="#FFA412"/>
<path d="M158.66 113.532C161.25 111.842 163.79 111.442 164.36 112.642C164.93 113.842 163.27 116.172 160.69 117.862C158.11 119.552 155.55 119.952 154.99 118.752C154.43 117.552 156.08 115.222 158.66 113.532Z" fill="#FFC53E"/>
<path d="M156.8 118.932C156.608 118.939 156.415 118.915 156.23 118.862C156.088 118.827 155.955 118.762 155.841 118.67C155.727 118.579 155.635 118.463 155.57 118.332C155.33 117.822 155.57 117.072 156.18 116.212C156.904 115.257 157.795 114.44 158.81 113.802C160.47 112.722 162.16 112.192 163.12 112.462C163.262 112.497 163.395 112.562 163.509 112.654C163.623 112.745 163.716 112.861 163.78 112.992C164.01 113.502 163.78 114.262 163.17 115.122C162.441 116.07 161.551 116.883 160.54 117.522C159.444 118.322 158.151 118.81 156.8 118.932ZM162.55 112.582C161.235 112.708 159.978 113.185 158.91 113.962C157.922 114.588 157.052 115.384 156.34 116.312C155.76 117.102 155.55 117.812 155.75 118.252C155.8 118.36 155.876 118.454 155.969 118.527C156.063 118.6 156.173 118.65 156.29 118.672C156.456 118.72 156.628 118.744 156.8 118.742C158.114 118.612 159.37 118.135 160.44 117.362C161.432 116.733 162.305 115.934 163.02 115.002C163.6 114.212 163.81 113.502 163.61 113.072C163.557 112.964 163.48 112.868 163.384 112.794C163.289 112.72 163.178 112.668 163.06 112.642C162.895 112.592 162.722 112.571 162.55 112.582Z" fill="#FFA412"/>
<path d="M135.39 66.5722C135.414 66.5251 135.444 66.4814 135.48 66.4422L135.56 66.3622L135.67 66.2422C136.28 65.9422 137.54 66.2422 138.82 67.0922C140.36 68.0922 141.35 69.4922 141.07 70.2322L140.9 70.4022C140.856 70.4434 140.805 70.4772 140.75 70.5022C140.15 70.8122 138.87 70.5022 137.58 69.6622C136.02 68.7222 135.02 67.3022 135.39 66.5722Z" fill="#FFA412"/>
<path d="M139 66.9323C137.43 65.9323 135.88 65.6623 135.54 66.3823C135.2 67.1023 136.2 68.5323 137.77 69.5623C139.34 70.5923 140.9 70.8323 141.24 70.1023C141.58 69.3723 140.58 67.9623 139 66.9323Z" fill="#FFC53E"/>
<path d="M137.86 69.352C137.247 68.9606 136.706 68.4667 136.26 67.892C135.88 67.372 135.75 66.892 135.89 66.602C135.929 66.5229 135.986 66.4532 136.055 66.398C136.124 66.3427 136.204 66.3032 136.29 66.282C137.237 66.213 138.176 66.502 138.92 67.092C139.533 67.4871 140.075 67.9843 140.52 68.562C140.9 69.082 141.03 69.562 140.89 69.852C140.851 69.9312 140.794 70.0008 140.725 70.056C140.656 70.1113 140.576 70.1509 140.49 70.172C140.374 70.1868 140.256 70.1868 140.14 70.172C139.32 70.1113 138.531 69.8277 137.86 69.352ZM136.33 66.352C136.259 66.3675 136.192 66.3989 136.135 66.444C136.078 66.489 136.032 66.5465 136 66.612C135.88 66.872 136 67.302 136.36 67.782C136.789 68.3518 137.318 68.8396 137.92 69.222C138.573 69.6927 139.339 69.9824 140.14 70.062C140.243 70.0766 140.347 70.0766 140.45 70.062C140.52 70.0446 140.586 70.0124 140.643 69.9676C140.7 69.9227 140.747 69.8663 140.78 69.802C140.9 69.532 140.78 69.102 140.42 68.622C139.986 68.0558 139.454 67.5715 138.85 67.192C138.2 66.7217 137.438 66.4319 136.64 66.352C136.535 66.3505 136.431 66.364 136.33 66.392V66.352Z" fill="#FFA412"/>
<path d="M43.87 109.312C43.8263 109.223 43.7726 109.139 43.71 109.062C43.6652 109.007 43.6149 108.957 43.56 108.912L43.33 108.682H43.27C42.11 108.122 39.73 108.682 37.27 110.292C34.35 112.202 32.47 114.822 33.02 116.222L32.93 116.282L33.26 116.612H33.31C33.3959 116.693 33.4937 116.761 33.6 116.812C34.74 117.412 37.16 116.812 39.6 115.222C42.62 113.372 44.51 110.682 43.87 109.312Z" fill="#FFA412"/>
<path d="M36.97 109.992C39.97 108.052 42.88 107.592 43.52 108.992C44.16 110.392 42.27 113.052 39.3 114.992C36.33 116.932 33.39 117.392 32.75 115.992C32.11 114.592 34 111.932 36.97 109.992Z" fill="#FFC53E"/>
<path d="M34.83 116.202C34.6103 116.203 34.3915 116.172 34.18 116.112C34.0141 116.075 33.8586 116.001 33.7253 115.895C33.592 115.79 33.4842 115.655 33.41 115.502C33.14 114.922 33.41 114.052 34.11 113.062C34.9401 111.97 35.9555 111.033 37.11 110.292C39.03 109.042 40.97 108.432 42.11 108.742C42.2752 108.781 42.4298 108.856 42.5628 108.962C42.6958 109.067 42.8041 109.201 42.88 109.352C43.15 109.942 42.88 110.812 42.18 111.802C41.3521 112.893 40.3362 113.828 39.18 114.562C37.9049 115.492 36.4016 116.059 34.83 116.202ZM41.44 108.892C39.9284 109.04 38.4827 109.585 37.25 110.472C36.0964 111.194 35.0805 112.115 34.25 113.192C33.59 114.102 33.34 114.912 33.57 115.412C33.6311 115.535 33.7183 115.642 33.8254 115.726C33.9326 115.811 34.0571 115.871 34.19 115.902C34.3825 115.954 34.5808 115.981 34.78 115.982C36.2926 115.831 37.7382 115.283 38.97 114.392C40.1211 113.672 41.1365 112.754 41.97 111.682C42.63 110.762 42.88 109.952 42.65 109.452C42.5874 109.329 42.4985 109.222 42.3896 109.137C42.2808 109.052 42.1546 108.993 42.02 108.962C41.8315 108.909 41.6358 108.885 41.44 108.892Z" fill="#FFA412"/>
<path d="M12.39 72.0221C12.3696 71.9699 12.339 71.9223 12.3 71.8821C12.2753 71.8473 12.2448 71.8169 12.21 71.7921L12.08 71.6621C11.41 71.3321 10.02 71.6621 8.61 72.6021C6.91 73.7121 5.82 75.2321 6.13 76.0521H6.08L6.27 76.2421C6.31996 76.2909 6.37734 76.3314 6.44 76.3621C7.1 76.7121 8.51 76.3621 9.93 75.4321C11.62 74.3821 12.72 72.8221 12.39 72.0221Z" fill="#FFA412"/>
<path d="M8.33004 72.4221C10.06 71.2921 11.77 71.0321 12.14 71.8221C12.51 72.6121 11.41 74.1821 9.68004 75.3221C7.95004 76.4621 6.24004 76.7121 5.87004 75.9221C5.50004 75.1321 6.59004 73.5521 8.33004 72.4221Z" fill="#FFC53E"/>
<path d="M7.08009 76.082C6.95386 76.0967 6.82633 76.0967 6.70009 76.082C6.60409 76.0568 6.51444 76.0117 6.43693 75.9497C6.35942 75.8877 6.29577 75.8101 6.25009 75.722C6.1948 75.4699 6.20334 75.2079 6.27494 74.96C6.34654 74.712 6.47893 74.4858 6.66009 74.302C7.13255 73.6354 7.71805 73.0566 8.39009 72.592C9.20808 71.9432 10.2384 71.6223 11.2801 71.692C11.3748 71.7173 11.463 71.7625 11.5389 71.8245C11.6148 71.8866 11.6765 71.9642 11.7201 72.052C11.8801 72.392 11.7201 72.902 11.3101 73.472C10.8362 74.1059 10.2539 74.6509 9.5901 75.082C8.86105 75.6393 7.99268 75.9853 7.08009 76.082ZM10.9301 71.832C10.0481 71.9175 9.20529 72.2387 8.49009 72.762C7.82836 73.1794 7.24599 73.711 6.77009 74.332C6.38009 74.872 6.24009 75.332 6.37009 75.632C6.40466 75.706 6.45617 75.7708 6.52045 75.8212C6.58473 75.8716 6.65998 75.9061 6.74009 75.922C6.85292 75.9372 6.96727 75.9372 7.08009 75.922C7.96145 75.8336 8.8035 75.5126 9.52009 74.992C10.1798 74.5719 10.7618 74.0407 11.2401 73.422C11.6301 72.882 11.7701 72.422 11.6401 72.122C11.6026 72.0501 11.5502 71.9871 11.4864 71.9371C11.4226 71.887 11.3488 71.8512 11.2701 71.832C11.1595 71.8 11.0452 71.7832 10.9301 71.782V71.832Z" fill="#FFA412"/>
<path d="M40.8 82.8423C40.8307 82.7757 40.8675 82.7121 40.91 82.6523C40.9441 82.6132 40.9809 82.5764 41.02 82.5423L41.19 82.3723H41.24C42.1 81.9523 43.87 82.3723 45.67 83.5723C47.84 84.9923 49.23 86.9423 48.84 87.9823H48.9L48.65 88.2323C48.5886 88.2934 48.5177 88.344 48.44 88.3823C47.59 88.8223 45.8 88.3823 43.98 87.1923C41.73 85.8623 40.32 83.8623 40.8 82.8423Z" fill="#FFA412"/>
<path d="M45.93 83.3422C43.72 81.9022 41.53 81.5622 41.06 82.5722C40.59 83.5822 41.98 85.5722 44.2 87.0322C46.42 88.4922 48.59 88.8222 49.07 87.8122C49.55 86.8022 48.14 84.7922 45.93 83.3422Z" fill="#FFC53E"/>
<path d="M44.3201 86.7521C43.4542 86.2038 42.6924 85.5064 42.0701 84.6921C41.5401 83.9521 41.3501 83.3121 41.5501 82.8721C41.6054 82.7592 41.6853 82.6602 41.7839 82.5823C41.8826 82.5044 41.9975 82.4497 42.1201 82.4221C42.9401 82.1821 44.3801 82.6321 45.8101 83.5721C46.6727 84.1168 47.4312 84.811 48.0501 85.6221C48.5901 86.3621 48.7701 87.0121 48.5701 87.4421C48.5154 87.5564 48.4358 87.6571 48.3372 87.7367C48.2385 87.8162 48.1234 87.8728 48.0001 87.9021C47.8431 87.9415 47.6819 87.9616 47.5201 87.9621C46.3645 87.8517 45.2596 87.4339 44.3201 86.7521ZM42.1701 82.5721C42.0693 82.5952 41.9748 82.6404 41.8936 82.7044C41.8123 82.7683 41.7462 82.8495 41.7001 82.9421C41.6397 83.237 41.6538 83.5423 41.7411 83.8304C41.8284 84.1185 41.9862 84.3803 42.2001 84.5921C42.809 85.384 43.5539 86.0612 44.4001 86.5921C45.3177 87.2539 46.3942 87.661 47.5201 87.7721C47.6624 87.7965 47.8078 87.7965 47.9501 87.7721C48.0514 87.7503 48.1465 87.7057 48.2279 87.6416C48.3094 87.5774 48.3751 87.4955 48.4201 87.4021C48.4804 87.1072 48.4663 86.8019 48.379 86.5138C48.2917 86.2257 48.134 85.9639 47.9201 85.7521C47.3101 84.9575 46.5614 84.28 45.7101 83.7521C44.7983 83.0864 43.724 82.6787 42.6001 82.5721C42.4508 82.5617 42.3011 82.5821 42.1601 82.6321L42.1701 82.5721Z" fill="#FFA412"/>
<path d="M41.2301 146.892C41.2301 146.892 40.8101 144.812 45.6001 138.402C46.6001 137.022 49.7901 131.812 49.7901 131.812C51.0401 131.502 54.9201 133.572 55.9401 134.202L56.2701 134.402C56.2701 134.402 57.9301 141.602 54.4001 140.782L54.0701 140.722C50.6601 140.192 47.3601 143.572 45.8701 145.722C44.8901 147.132 41.8801 146.952 41.2301 146.892Z" fill="#1B506F"/>
<path d="M66.5301 132.892C66.5301 132.892 66.1101 130.812 70.9001 124.402C71.9001 123.022 75.0901 117.812 75.0901 117.812C76.3401 117.502 80.2201 119.582 81.2401 120.202L81.5701 120.402C81.5701 120.402 83.2301 127.602 79.7001 126.792L79.3701 126.722C75.9701 126.192 72.6601 129.582 71.1701 131.722C70.1901 133.132 67.1801 132.952 66.5301 132.892Z" fill="#1B506F"/>
<path d="M120.53 97.2519C119.53 93.0319 108.65 79.9019 103.06 82.9419C97.47 85.9819 100.38 102.502 106.2 121.992L106.47 122.882C97.9526 121.601 89.3744 120.763 80.77 120.372L79.3 127.152C89.87 130.072 110.41 140.222 119.03 144.592C122.32 146.092 126.19 146.092 127.03 143.192C129.61 133.492 120.53 97.2519 120.53 97.2519Z" fill="#047ABD"/>
<path d="M99.71 157.942C99.71 157.942 74.76 146.682 59.54 142.132C57.65 141.572 55.92 141.132 54.4 140.782L56 134.262H59.91C69.39 134.262 93.11 134.822 97.35 139.472C102.67 145.292 99.71 157.942 99.71 157.942Z" fill="#FFB27D"/>
<path d="M118.57 3.58212C119.39 5.47212 120.05 7.94212 119.49 9.24212C119.119 10.0379 118.964 10.9174 119.04 11.7921L117.69 12.0821L116.09 12.4721C116.09 12.4721 116.01 12.3421 115.88 12.1021C115.707 11.7952 115.554 11.4779 115.42 11.1521C115.38 10.9378 115.29 10.7357 115.158 10.5621C115.027 10.3885 114.856 10.2481 114.66 10.1521C114.281 9.95486 113.948 9.67883 113.684 9.34252C113.42 9.00621 113.231 8.6174 113.13 8.20213C112.99 7.40212 112.13 5.92212 112.41 5.76212C112.97 5.39212 113.81 7.70212 114.31 7.76212C114.43 7.80229 114.56 7.79575 114.675 7.74382C114.79 7.69189 114.881 7.59841 114.93 7.48212C115.7 5.59212 114.27 0.832124 115.41 0.562124C115.83 0.492124 118.22 2.77212 118.57 3.58212Z" fill="#FFB27D"/>
<path d="M32.2101 41.6722C33.6001 43.1822 35.6001 44.7822 37.0201 44.8022C37.9004 44.7801 38.7705 44.9942 39.5401 45.4222L40.3801 44.3222L41.3801 43.0122L41.1301 42.6722C40.9601 42.4622 39.8301 41.5022 39.8101 40.7522C39.7878 40.3247 39.6724 39.9073 39.4721 39.529C39.2717 39.1508 38.9912 38.8208 38.6501 38.5622C37.9801 38.1222 36.9501 36.7722 36.7101 36.9222C36.1401 37.2822 37.9101 38.9822 37.8101 39.4822C37.7974 39.6069 37.7375 39.7219 37.6426 39.8037C37.5478 39.8856 37.4252 39.928 37.3001 39.9222C35.3001 39.8722 31.4701 36.6322 30.7701 37.5622C30.5001 37.9122 31.6201 41.0222 32.2101 41.6722Z" fill="#FFB27D"/>
<path d="M92.5901 100.392C86.4301 101.992 87.9801 109.392 88.9001 129.712C89.0001 132.012 89.2201 134.222 89.5201 136.342C80.5201 134.532 66.6201 134.262 59.9101 134.242C59.2816 135.65 58.9188 137.162 58.8401 138.702C58.8975 141.206 59.6828 143.638 61.1001 145.702C76.3201 150.262 99.7101 157.932 99.7101 157.932C101.27 158.342 102.71 157.562 103.91 155.322C108.56 146.402 116.53 87.0822 116.53 87.0822C116.6 82.7722 98.7401 98.7922 92.5901 100.392Z" fill="#098AD3"/>
<path d="M82.54 54.862C82.54 54.862 84.71 49.382 80.54 41.562L86.54 42.882L90.61 43.782C91.1933 45.0874 91.7073 46.4226 92.15 47.782C92.39 48.452 93.24 51.182 93.5 52.012C94.92 52.072 92.87 54.242 89.94 54.662C87.4841 54.947 85.0078 55.0139 82.54 54.862Z" fill="#FFB27D"/>
<path d="M90.5501 43.7824C91.1337 45.0876 91.6477 46.4228 92.0901 47.7824C88.6001 48.8324 82.3701 45.4324 82.3701 45.4324C83.5447 44.3162 84.9419 43.4608 86.4701 42.9224L90.5501 43.7824Z" fill="#ED975D"/>
<path d="M93.23 41.7423C93.23 41.7423 86.3 49.4023 81.59 45.0123C76.88 40.6223 72.82 38.6623 77.05 33.5723C81.28 28.4823 83.95 29.2323 85.87 30.3223C87.79 31.4123 94.92 39.6323 93.23 41.7423Z" fill="#FFB27D"/>
<path d="M81.2001 44.5422C81.2001 44.5422 81.9101 43.7522 80.8901 42.7322C79.8701 41.7122 78.6901 40.2322 79.8301 39.7322C80.9701 39.2322 81.6001 39.9822 81.6301 39.2522C81.6601 38.5222 80.2401 36.7122 82.8701 34.4122C85.5001 32.1122 87.3701 32.1922 88.1901 30.6222C89.0101 29.0522 87.5601 27.0822 87.5601 27.0822C87.6585 27.6324 87.5924 28.1994 87.3701 28.7122C87.3701 28.7122 87.1901 24.1322 83.1601 24.0922C79.1301 24.0522 77.6601 27.3422 76.3101 28.5522C73.3101 31.2222 71.4601 33.0122 72.0701 35.8822C72.6801 38.7522 77.6301 44.1522 81.2001 44.5422Z" fill="#235347"/>
<path d="M123.39 25.6419C122.45 20.734 120.971 15.945 118.98 11.3619L115.38 11.1919C115.38 11.1919 115.78 20.4119 115.69 26.8519C115.634 29.0981 115.026 31.296 113.92 33.2519C112.83 34.7519 96.39 50.6119 95.8 51.0819C94.05 51.3819 94.24 54.2619 92.44 54.7519C89.44 55.5519 84.44 54.0819 81.77 55.0719C81.77 55.0719 60.39 55.1519 57.09 53.5919C53.79 52.0319 41.09 42.6619 41.09 42.6619L38.79 45.4119C38.79 45.4119 47.51 62.1919 54.39 65.2119C58.15 66.8619 66.39 68.8419 73.16 70.3019C74.4706 70.5854 75.6821 71.2129 76.6698 72.1198C77.6575 73.0267 78.3859 74.1802 78.78 75.4619C82.5923 87.6607 83.6678 100.55 81.93 113.212C86.5345 113.532 91.1597 113.052 95.6 111.792C101.547 110.129 107.259 107.72 112.6 104.622C115.38 101.252 113.74 88.9119 113.74 88.9119C115.058 90.5023 115.94 92.4079 116.3 94.4419C116.76 96.9319 117.01 98.3119 117.16 99.1819C117.185 99.3284 117.239 99.4685 117.319 99.5941C117.399 99.7197 117.502 99.8284 117.624 99.9139C117.746 99.9993 117.883 100.06 118.028 100.092C118.173 100.124 118.324 100.128 118.47 100.102C118.642 100.072 118.803 99.9998 118.94 99.8919C120.531 98.8533 121.917 97.5314 123.03 95.9919C125.25 91.7819 120.32 74.6419 113.5 62.6819C112.901 61.6348 112.597 60.445 112.62 59.239C112.643 58.0329 112.992 56.8556 113.63 55.8319C117.89 49.0819 124.39 38.4419 124.39 36.3019C124.272 32.7316 123.938 29.1718 123.39 25.6419Z" fill="#1B404F"/>
<path d="M91.95 56.3419C91.95 56.3419 97.7 64.5019 93.49 72.3419C89.28 80.1819 72.72 79.1719 69.66 89.0119L71.51 95.1419L78.44 91.4019C78.44 91.4019 79.02 86.0719 85.82 83.7619C99.12 79.2519 102.32 71.4519 99.53 64.4719C98.3009 61.1554 96.3269 58.1653 93.76 55.7319L91.95 56.3419Z" fill="#00BF54"/>
<path d="M83.08 51.8623L89.74 54.0623L90.07 55.3223L81.76 55.0823C82.0351 53.9486 82.4802 52.8629 83.08 51.8623Z" fill="#1B404F"/>
<path d="M92.8301 50.022L93.0501 53.472C93.0501 53.472 93.9201 54.182 93.9101 54.092C93.9001 54.002 95.7901 51.092 95.7901 51.092C94.8332 50.6578 93.8434 50.3001 92.8301 50.022Z" fill="#1B404F"/>
<path d="M89.74 54.0821L93.14 52.9321C93.27 52.8874 93.4124 52.8959 93.536 52.9559C93.6597 53.0159 93.7546 53.1224 93.8 53.2521C93.8047 53.2886 93.8047 53.3256 93.8 53.3621L94.08 55.6421C94.0956 55.7615 94.0691 55.8827 94.0053 55.9848C93.9415 56.0869 93.8442 56.1637 93.73 56.2021L92.23 56.7021C92.1522 56.7313 92.0682 56.7401 91.986 56.7279C91.9037 56.7156 91.826 56.6827 91.76 56.6321L89.57 54.9821C89.5157 54.9417 89.47 54.891 89.4356 54.8327C89.4011 54.7745 89.3785 54.71 89.3692 54.643C89.3599 54.576 89.364 54.5078 89.3813 54.4424C89.3986 54.377 89.4288 54.3157 89.47 54.2621C89.531 54.1802 89.6143 54.1177 89.71 54.0821H89.74Z" fill="#00BF54"/>
<path d="M115.23 10.7119L114.93 13.5719C114.93 13.5719 118.55 13.6319 118.55 13.5719C118.55 13.5119 118.66 12.1519 118.66 12.1519L119.26 13.7319L120.6 13.3019L119.06 10.7119C117.823 11.1621 116.467 11.1621 115.23 10.7119Z" fill="#FB7F28"/>
<path d="M41.13 42.6621L38.78 45.4021L39.47 48.0821L40.47 47.4221L40 45.4221L41.64 46.7721L43.78 43.9521L41.13 42.6621Z" fill="#FB7F28"/>
<path d="M40.6201 45.1819C40.6201 45.1384 40.633 45.0959 40.6572 45.0597C40.6814 45.0235 40.7157 44.9953 40.7559 44.9787C40.7961 44.962 40.8404 44.9577 40.883 44.9661C40.9257 44.9746 40.9649 44.9956 40.9957 45.0263C41.0264 45.0571 41.0474 45.0963 41.0559 45.139C41.0644 45.1817 41.06 45.2259 41.0434 45.2661C41.0267 45.3063 40.9985 45.3407 40.9623 45.3648C40.9262 45.389 40.8836 45.4019 40.8401 45.4019C40.7818 45.4019 40.7258 45.3787 40.6846 45.3375C40.6433 45.2962 40.6201 45.2403 40.6201 45.1819Z" fill="#EBF3FA"/>
<path d="M117.88 12.5119C117.88 12.4655 117.899 12.421 117.931 12.3882C117.964 12.3554 118.009 12.3369 118.055 12.3369C118.102 12.3369 118.146 12.3554 118.179 12.3882C118.212 12.421 118.23 12.4655 118.23 12.5119C118.228 12.5562 118.209 12.5981 118.178 12.6295C118.146 12.6608 118.104 12.6795 118.06 12.6819C118.014 12.682 117.97 12.6644 117.936 12.6328C117.903 12.6012 117.883 12.5579 117.88 12.5119Z" fill="#EBF3FA"/>
<path d="M112.21 79.1421C112.21 79.0511 112.237 78.9622 112.288 78.8866C112.338 78.8109 112.41 78.752 112.494 78.7171C112.578 78.6823 112.671 78.6732 112.76 78.691C112.849 78.7087 112.931 78.7525 112.995 78.8169C113.06 78.8812 113.103 78.9632 113.121 79.0524C113.139 79.1416 113.13 79.2341 113.095 79.3182C113.06 79.4022 113.001 79.4741 112.926 79.5246C112.85 79.5751 112.761 79.6021 112.67 79.6021C112.548 79.6021 112.431 79.5537 112.345 79.4674C112.259 79.3811 112.21 79.2641 112.21 79.1421Z" fill="#EBF3FA"/>
<path d="M108.51 71.4323C108.51 71.3389 108.538 71.2477 108.59 71.1702C108.642 71.0927 108.716 71.0325 108.803 70.9972C108.889 70.9619 108.984 70.9532 109.075 70.9722C109.167 70.9912 109.251 71.0369 109.316 71.1037C109.381 71.1704 109.425 71.2551 109.442 71.3469C109.459 71.4387 109.448 71.5335 109.411 71.6192C109.374 71.7049 109.312 71.7776 109.234 71.828C109.155 71.8784 109.063 71.9043 108.97 71.9023C108.847 71.8997 108.73 71.849 108.644 71.7611C108.558 71.6733 108.51 71.5552 108.51 71.4323Z" fill="#EBF3FA"/>
<path d="M103.39 65.622C103.388 65.5282 103.414 65.436 103.465 65.3572C103.516 65.2784 103.589 65.2166 103.675 65.1798C103.762 65.143 103.857 65.1328 103.949 65.1506C104.041 65.1685 104.126 65.2134 104.192 65.2797C104.259 65.3461 104.304 65.4307 104.321 65.5228C104.339 65.6149 104.329 65.7102 104.292 65.7965C104.255 65.8828 104.194 65.9561 104.115 66.007C104.036 66.0578 103.944 66.084 103.85 66.082C103.729 66.0794 103.613 66.0301 103.528 65.9444C103.442 65.8587 103.393 65.7432 103.39 65.622Z" fill="#EBF3FA"/>
</svg>
