<svg width="140" height="43" viewBox="0 0 140 43" fill="none" xmlns="http://www.w3.org/2000/svg">
<mask id="mask0_3611_1743" style="mask-type:luminance" maskUnits="userSpaceOnUse" x="0" y="0" width="140" height="43">
<path d="M139.097 0H0V42.75H139.097V0Z" fill="white"/>
</mask>
<g mask="url(#mask0_3611_1743)">
<path d="M23.767 21.3178V0.4818C23.767 0.409514 23.7507 0.338161 23.7193 0.273023C23.688 0.207885 23.6424 0.150629 23.5859 0.105496C23.5295 0.0603633 23.4636 0.0285081 23.3931 0.0122892C23.3227 -0.00392961 23.2495 -0.0040968 23.179 0.0118001L15.917 1.6368C15.81 1.66086 15.7144 1.7206 15.6459 1.8062C15.5774 1.8918 15.5401 1.99816 15.54 2.1078V21.3178H8.228V4.3788C8.22793 4.30649 8.21163 4.23512 8.1803 4.16995C8.14896 4.10478 8.1034 4.04748 8.04696 4.00228C7.99053 3.95707 7.92466 3.92511 7.85422 3.90876C7.78379 3.89241 7.71058 3.89208 7.64 3.9078L0.377 5.5338C0.270863 5.55767 0.175892 5.61667 0.107469 5.70124C0.0390456 5.78582 0.00117828 5.89102 0 5.9998L0 19.2998C0 19.8355 0.212821 20.3493 0.591644 20.7282C0.970468 21.107 1.48426 21.3198 2.02 21.3198H7.77V42.2668C7.76991 42.3391 7.78608 42.4104 7.8173 42.4756C7.84851 42.5408 7.89399 42.5981 7.95035 42.6433C8.00671 42.6885 8.07253 42.7205 8.14291 42.7369C8.2133 42.7532 8.28647 42.7535 8.357 42.7378L15.62 41.1118C15.7269 41.0879 15.8225 41.0284 15.891 40.943C15.9595 40.8575 15.9969 40.7513 15.997 40.6418V21.3178H23.309V38.2568C23.3091 38.3291 23.3254 38.4005 23.3567 38.4656C23.388 38.5308 23.4336 38.5881 23.49 38.6333C23.5465 38.6785 23.6123 38.7105 23.6828 38.7268C23.7532 38.7432 23.8264 38.7435 23.897 38.7278L31.16 37.0998C31.267 37.0757 31.3626 37.016 31.4311 36.9304C31.4996 36.8448 31.5369 36.7384 31.537 36.6288V23.3378C31.537 22.8021 31.3242 22.2883 30.9454 21.9094C30.5665 21.5306 30.0527 21.3178 29.517 21.3178H23.767Z" fill="#6E838F"/>
<path d="M50.912 19.1781H58.139V11.7471H63.144V31.0021H58.139V23.0591H50.912V31.0011H45.907V11.7471H50.912V19.1781Z" fill="#6E838F"/>
<path d="M78.301 15.9871H72.351V19.2041H77.969V23.4441H72.351V26.7641H78.301V31.0031H67.342V11.7471H78.297L78.301 15.9871Z" fill="#6E838F"/>
<path d="M82.17 11.747H89.57C90.8432 11.7391 92.1028 12.009 93.261 12.538C94.3864 13.049 95.4078 13.7633 96.274 14.645C97.1384 15.5291 97.8272 16.5691 98.304 17.71C98.7905 18.865 99.0423 20.1054 99.0445 21.3587C99.0467 22.612 98.7994 23.8532 98.317 25.01C97.8462 26.1548 97.1617 27.1994 96.3 28.088C95.4365 28.9759 94.4146 29.6946 93.287 30.207C92.1208 30.7384 90.8525 31.0087 89.571 30.999H82.171L82.17 11.747ZM87.175 26.763H88.325C89.1187 26.7764 89.9076 26.6376 90.649 26.354C91.2954 26.1041 91.8824 25.7216 92.372 25.231C92.8453 24.7461 93.2109 24.1668 93.445 23.531C93.6978 22.8399 93.8235 22.1088 93.816 21.373C93.8218 20.6405 93.6919 19.9132 93.433 19.228C93.1948 18.582 92.8208 17.9947 92.3362 17.5056C91.8516 17.0166 91.2677 16.6371 90.624 16.393C89.8904 16.1115 89.1097 15.973 88.324 15.985H87.174L87.175 26.763Z" fill="#6E838F"/>
<path d="M112.671 20.2199H122.605C122.609 21.1494 122.566 22.0786 122.477 23.0039C122.401 23.7963 122.23 24.5766 121.967 25.3279C121.632 26.2917 121.14 27.1935 120.511 27.9969C119.908 28.7627 119.178 29.419 118.353 29.9369C117.51 30.4644 116.594 30.8647 115.634 31.1249C114.619 31.401 113.57 31.5386 112.518 31.5339C111.116 31.5518 109.725 31.3002 108.418 30.7929C107.226 30.3266 106.143 29.618 105.239 28.7119C104.337 27.7917 103.633 26.6966 103.17 25.4939C102.663 24.1698 102.412 22.7616 102.43 21.3439C102.414 19.9357 102.66 18.5368 103.157 17.2189C103.612 16.0176 104.317 14.9268 105.226 14.0189C106.149 13.1145 107.249 12.4102 108.456 11.9499C109.802 11.4412 111.231 11.1901 112.67 11.2099C114.516 11.1686 116.34 11.6172 117.956 12.5099C119.541 13.4548 120.797 14.8632 121.556 16.5449L116.806 18.5109C116.473 17.5969 115.873 16.8046 115.082 16.2379C114.363 15.7751 113.524 15.5354 112.669 15.5489C111.965 15.5394 111.268 15.683 110.625 15.9699C110.018 16.2467 109.481 16.6569 109.055 17.1699C108.6 17.7268 108.254 18.3637 108.033 19.0479C107.777 19.8396 107.652 20.6679 107.663 21.4999C107.656 22.2692 107.763 23.0353 107.982 23.7729C108.176 24.4355 108.501 25.0522 108.939 25.5859C109.368 26.0992 109.91 26.5059 110.523 26.7739C111.218 27.0681 111.968 27.2116 112.723 27.1949C113.205 27.1963 113.685 27.1405 114.153 27.0289C114.595 26.9262 115.014 26.7446 115.391 26.4929C115.76 26.2435 116.069 25.9165 116.298 25.5349C116.553 25.0951 116.718 24.609 116.783 24.1049H112.672L112.671 20.2199Z" fill="#6E838F"/>
<path d="M46.579 37.587C46.5843 37.4777 46.6314 37.3747 46.7106 37.2992C46.7898 37.2237 46.8951 37.1816 47.0045 37.1816C47.1139 37.1816 47.2191 37.2237 47.2983 37.2992C47.3775 37.3747 47.4247 37.4777 47.43 37.587V41.656C47.4247 41.7653 47.3775 41.8683 47.2983 41.9438C47.2191 42.0193 47.1139 42.0614 47.0045 42.0614C46.8951 42.0614 46.7898 42.0193 46.7106 41.9438C46.6314 41.8683 46.5843 41.7653 46.579 41.656V37.587Z" fill="#6E838F"/>
<path d="M49.034 37.5999C49.0338 37.5435 49.0447 37.4876 49.0661 37.4354C49.0876 37.3833 49.1192 37.3359 49.1591 37.296C49.199 37.2561 49.2464 37.2245 49.2985 37.203C49.3507 37.1816 49.4066 37.1706 49.463 37.1709H49.553C49.6417 37.1725 49.7286 37.1961 49.8059 37.2396C49.8832 37.283 49.9485 37.345 49.996 37.4199L52.418 40.5549V37.5789C52.4233 37.4715 52.4697 37.3701 52.5476 37.2959C52.6255 37.2217 52.7289 37.1804 52.8365 37.1804C52.9441 37.1804 53.0476 37.2217 53.1255 37.2959C53.2034 37.3701 53.2498 37.4715 53.255 37.5789V41.6449C53.2561 41.7 53.2461 41.7548 53.2257 41.806C53.2054 41.8572 53.1749 41.9039 53.1363 41.9432C53.0976 41.9825 53.0515 42.0137 53.0006 42.0349C52.9498 42.0562 52.8952 42.0671 52.84 42.0669H52.805C52.7157 42.0645 52.6284 42.0398 52.5511 41.9951C52.4737 41.9504 52.4087 41.8871 52.362 41.8109L49.87 38.5859V41.6589C49.8648 41.7664 49.8184 41.8677 49.7405 41.9419C49.6626 42.0161 49.5591 42.0574 49.4515 42.0574C49.3439 42.0574 49.2405 42.0161 49.1626 41.9419C49.0847 41.8677 49.0383 41.7664 49.033 41.6589L49.034 37.5999Z" fill="#6E838F"/>
<path d="M56.215 41.767L54.515 37.781C54.4848 37.7185 54.4685 37.6503 54.467 37.581C54.4675 37.5254 54.479 37.4706 54.501 37.4195C54.5229 37.3685 54.5547 37.3223 54.5946 37.2837C54.6346 37.2451 54.6818 37.2148 54.7335 37.1946C54.7852 37.1744 54.8405 37.1647 54.896 37.166C54.9912 37.1627 55.0849 37.1901 55.1634 37.2441C55.2419 37.2981 55.301 37.3759 55.332 37.466L56.732 40.961L58.151 37.438C58.1837 37.3563 58.2401 37.2863 58.313 37.2371C58.386 37.1879 58.472 37.1617 58.56 37.162C58.6146 37.1607 58.6689 37.1702 58.7198 37.1901C58.7707 37.2099 58.8171 37.2397 58.8564 37.2777C58.8956 37.3156 58.927 37.361 58.9485 37.4112C58.9701 37.4614 58.9815 37.5154 58.982 37.57C58.9795 37.6321 58.9652 37.6932 58.94 37.75L57.24 41.764C57.2056 41.8666 57.1394 41.9556 57.0508 42.0178C56.9623 42.0801 56.8562 42.1124 56.748 42.11H56.7C56.5927 42.112 56.4877 42.0794 56.4003 42.0171C56.313 41.9548 56.248 41.8661 56.215 41.764" fill="#6E838F"/>
<path d="M60.192 41.61V37.628C60.1911 37.5714 60.2015 37.5151 60.2227 37.4626C60.2439 37.4101 60.2755 37.3623 60.3155 37.3222C60.3555 37.2821 60.4032 37.2505 60.4557 37.2291C60.5081 37.2078 60.5644 37.1972 60.621 37.198H63.437C63.5378 37.1988 63.6343 37.2392 63.7056 37.3105C63.7768 37.3818 63.8172 37.4782 63.818 37.579C63.8181 37.6291 63.8084 37.6787 63.7893 37.725C63.7702 37.7713 63.7421 37.8133 63.7067 37.8487C63.6713 37.8842 63.6293 37.9122 63.583 37.9313C63.5367 37.9504 63.4871 37.9602 63.437 37.96H61.043V39.219H63.126C63.2278 39.2204 63.3249 39.2619 63.3961 39.3346C63.4673 39.4073 63.5068 39.5053 63.506 39.607C63.505 39.7069 63.4644 39.8024 63.3932 39.8724C63.322 39.9425 63.2259 39.9816 63.126 39.981H61.043V41.281H63.472C63.5727 41.2821 63.6688 41.3226 63.7399 41.3938C63.811 41.4651 63.8512 41.5614 63.852 41.662C63.8522 41.712 63.8424 41.7615 63.8234 41.8076C63.8043 41.8538 63.7763 41.8957 63.741 41.931C63.7057 41.9663 63.6638 41.9943 63.6176 42.0134C63.5714 42.0324 63.522 42.0422 63.472 42.042H60.621C60.5644 42.043 60.5082 42.0325 60.4557 42.0113C60.4033 41.9901 60.3556 41.9585 60.3156 41.9185C60.2755 41.8785 60.244 41.8308 60.2227 41.7783C60.2015 41.7258 60.1911 41.6696 60.192 41.613" fill="#6E838F"/>
<path d="M65.013 41.5031C64.9615 41.4659 64.9196 41.4171 64.8908 41.3606C64.8619 41.3041 64.8469 41.2415 64.847 41.1781C64.8483 41.0728 64.891 40.9724 64.9659 40.8984C65.0408 40.8245 65.1418 40.7831 65.247 40.7831C65.3362 40.7793 65.4241 40.8061 65.496 40.8591C65.8749 41.1811 66.3557 41.3583 66.853 41.3591C67.379 41.3591 67.711 41.1101 67.711 40.7501V40.7361C67.711 40.3901 67.517 40.2031 66.618 39.9951C65.587 39.7461 65.005 39.4421 65.005 38.5491V38.5351C65.0142 38.3316 65.0652 38.1323 65.1548 37.9494C65.2445 37.7666 65.3708 37.6042 65.526 37.4724C65.6812 37.3405 65.8619 37.2421 66.0569 37.1832C66.2518 37.1243 66.4568 37.1062 66.659 37.1301C67.205 37.1192 67.7412 37.2763 68.195 37.5801C68.2535 37.6149 68.3016 37.6646 68.3345 37.7242C68.3673 37.7838 68.3837 37.851 68.382 37.9191C68.3807 38.0243 68.3379 38.1247 68.2631 38.1987C68.1882 38.2726 68.0872 38.3141 67.982 38.3141C67.9036 38.3149 67.8266 38.2934 67.76 38.2521C67.4332 38.022 67.0455 37.8943 66.646 37.8851C66.146 37.8851 65.856 38.1411 65.856 38.4601V38.4741C65.856 38.8481 66.077 39.0141 67.012 39.2351C68.036 39.4851 68.562 39.8511 68.562 40.6541V40.6681C68.562 41.5751 67.849 42.1141 66.832 42.1141C66.1752 42.1145 65.5362 41.9007 65.012 41.5051" fill="#6E838F"/>
<path d="M70.962 37.988H69.786C69.6812 37.988 69.5808 37.9464 69.5067 37.8723C69.4326 37.7982 69.391 37.6978 69.391 37.593C69.391 37.4882 69.4326 37.3878 69.5067 37.3137C69.5808 37.2396 69.6812 37.198 69.786 37.198H73.004C73.1088 37.198 73.2092 37.2396 73.2833 37.3137C73.3574 37.3878 73.399 37.4882 73.399 37.593C73.399 37.6978 73.3574 37.7982 73.2833 37.8723C73.2092 37.9464 73.1088 37.988 73.004 37.988H71.82V41.656C71.82 41.7698 71.7748 41.8789 71.6943 41.9593C71.6139 42.0398 71.5048 42.085 71.391 42.085C71.2772 42.085 71.1681 42.0398 71.0876 41.9593C71.0072 41.8789 70.962 41.7698 70.962 41.656V37.988Z" fill="#6E838F"/>
<path d="M77 37.587C77.0053 37.4777 77.0524 37.3747 77.1317 37.2992C77.2109 37.2237 77.3161 37.1816 77.4255 37.1816C77.5349 37.1816 77.6401 37.2237 77.7193 37.2992C77.7986 37.3747 77.8457 37.4777 77.851 37.587V41.656C77.8457 41.7653 77.7986 41.8683 77.7193 41.9438C77.6401 42.0193 77.5349 42.0614 77.4255 42.0614C77.3161 42.0614 77.2109 42.0193 77.1317 41.9438C77.0524 41.8683 77.0053 41.7653 77 41.656V37.587Z" fill="#6E838F"/>
<path d="M79.456 37.5999C79.4556 37.5435 79.4664 37.4877 79.4878 37.4355C79.5091 37.3833 79.5406 37.3359 79.5804 37.296C79.6202 37.2561 79.6675 37.2245 79.7197 37.203C79.7718 37.1816 79.8276 37.1706 79.884 37.1709H79.974C80.0627 37.1723 80.1497 37.1959 80.227 37.2393C80.3044 37.2828 80.3697 37.3449 80.417 37.4199L82.841 40.5549V37.5789C82.8463 37.4715 82.8926 37.3701 82.9705 37.2959C83.0485 37.2217 83.1519 37.1804 83.2595 37.1804C83.3671 37.1804 83.4705 37.2217 83.5485 37.2959C83.6264 37.3701 83.6727 37.4715 83.678 37.5789V41.6449C83.6791 41.7001 83.6691 41.755 83.6486 41.8063C83.6282 41.8576 83.5977 41.9042 83.5589 41.9435C83.5201 41.9829 83.4739 42.014 83.4229 42.0352C83.3719 42.0564 83.3172 42.0672 83.262 42.0669H83.228C83.1387 42.0645 83.0513 42.0399 82.974 41.9952C82.8966 41.9505 82.8316 41.8871 82.785 41.8109L80.293 38.5859V41.6589C80.2877 41.7664 80.2414 41.8677 80.1634 41.9419C80.0855 42.0161 79.9821 42.0574 79.8745 42.0574C79.7669 42.0574 79.6635 42.0161 79.5856 41.9419C79.5076 41.8677 79.4613 41.7664 79.456 41.6589V37.5999Z" fill="#6E838F"/>
<path d="M88.981 40.1609L87.313 37.8699C87.2499 37.7824 87.215 37.6777 87.213 37.5699C87.2138 37.5147 87.2256 37.4603 87.2477 37.4098C87.2697 37.3592 87.3017 37.3136 87.3417 37.2756C87.3816 37.2376 87.4288 37.208 87.4804 37.1885C87.5319 37.1689 87.5869 37.1599 87.642 37.1619C87.7275 37.1646 87.8109 37.1895 87.8839 37.2342C87.9568 37.2789 88.0168 37.3419 88.058 37.4169L89.407 39.3619L90.778 37.4099C90.8182 37.3355 90.8771 37.2728 90.9487 37.2279C91.0204 37.1831 91.1025 37.1576 91.187 37.1539C91.2422 37.1516 91.2974 37.1609 91.3488 37.181C91.4003 37.2011 91.4471 37.2316 91.4862 37.2707C91.5253 37.3098 91.5558 37.3566 91.5759 37.4081C91.5961 37.4596 91.6053 37.5147 91.603 37.5699C91.5965 37.6799 91.5551 37.7849 91.485 37.8699L89.831 40.1329V41.6519C89.831 41.7649 89.7861 41.8732 89.7062 41.9531C89.6263 42.033 89.518 42.0779 89.405 42.0779C89.292 42.0779 89.1837 42.033 89.1038 41.9531C89.0239 41.8732 88.979 41.7649 88.979 41.6519L88.981 40.1609Z" fill="#6E838F"/>
<path d="M92.232 39.634V39.621C92.2432 38.958 92.514 38.3257 92.9862 37.8601C93.4585 37.3945 94.0945 37.1327 94.7576 37.1309C95.4208 37.129 96.0582 37.3873 96.533 37.8503C97.0078 38.3133 97.2821 38.944 97.297 39.607V39.621C97.2856 40.2841 97.0147 40.9162 96.5424 41.3817C96.0701 41.8472 95.434 42.1089 94.7709 42.1106C94.1077 42.1123 93.4703 41.8539 92.9956 41.3908C92.5209 40.9278 92.2468 40.297 92.232 39.634ZM96.405 39.634V39.621C96.4138 39.3987 96.3779 39.1769 96.2993 38.9687C96.2208 38.7606 96.1012 38.5704 95.9476 38.4093C95.7941 38.2483 95.6097 38.1198 95.4055 38.0315C95.2013 37.9431 94.9815 37.8967 94.759 37.895C94.5381 37.8953 94.3195 37.9404 94.1164 38.0274C93.9134 38.1144 93.7301 38.2417 93.5775 38.4014C93.4249 38.5612 93.3062 38.7502 93.2287 38.9571C93.1511 39.1639 93.1161 39.3843 93.126 39.605V39.619C93.1177 39.8408 93.1541 40.062 93.233 40.2694C93.312 40.4768 93.4318 40.6662 93.5855 40.8263C93.7392 40.9865 93.9235 41.114 94.1275 41.2014C94.3316 41.2888 94.5511 41.3342 94.773 41.335C94.9933 41.3356 95.2115 41.2916 95.4143 41.2055C95.6171 41.1194 95.8004 40.9931 95.953 40.8342C96.1056 40.6753 96.2245 40.4871 96.3023 40.281C96.3802 40.0749 96.4155 39.8551 96.406 39.635" fill="#6E838F"/>
<path d="M98.56 39.988V37.588C98.5653 37.4787 98.6124 37.3756 98.6916 37.3002C98.7709 37.2247 98.8761 37.1826 98.9855 37.1826C99.0949 37.1826 99.2001 37.2247 99.2793 37.3002C99.3585 37.3756 99.4057 37.4787 99.411 37.588V39.955C99.411 40.855 99.875 41.333 100.636 41.333C101.397 41.333 101.854 40.883 101.854 39.99V37.59C101.859 37.4807 101.906 37.3777 101.986 37.3022C102.065 37.2267 102.17 37.1846 102.279 37.1846C102.389 37.1846 102.494 37.2267 102.573 37.3022C102.653 37.3777 102.7 37.4807 102.705 37.59V39.945C102.742 40.2313 102.714 40.5222 102.624 40.7963C102.533 41.0705 102.383 41.321 102.183 41.5293C101.983 41.7377 101.739 41.8987 101.469 42.0006C101.199 42.1025 100.91 42.1426 100.622 42.118C100.339 42.1428 100.054 42.1041 99.7876 42.0048C99.5214 41.9054 99.2807 41.7479 99.083 41.5438C98.8853 41.3396 98.7357 41.0939 98.6451 40.8246C98.5544 40.5553 98.525 40.2691 98.559 39.987" fill="#6E838F"/>
<path d="M104.184 37.6281C104.183 37.5715 104.194 37.5154 104.215 37.463C104.236 37.4106 104.268 37.3629 104.308 37.3229C104.348 37.283 104.395 37.2514 104.448 37.2301C104.5 37.2088 104.556 37.1983 104.613 37.1991H106.343C106.855 37.1704 107.358 37.3443 107.743 37.6831C108.009 37.9648 108.153 38.3406 108.143 38.7281V38.7421C108.155 39.0731 108.052 39.3979 107.851 39.6615C107.651 39.9251 107.365 40.1112 107.043 40.1881L107.97 41.3581C108.055 41.4456 108.104 41.5613 108.109 41.6831C108.108 41.7359 108.097 41.788 108.076 41.8365C108.055 41.885 108.025 41.9288 107.987 41.9656C107.949 42.0023 107.905 42.0311 107.855 42.0504C107.806 42.0698 107.754 42.0792 107.701 42.0781C107.619 42.0792 107.537 42.0594 107.464 42.0206C107.392 41.9817 107.33 41.9252 107.285 41.8561L106.109 40.3561H105.036V41.6561C105.031 41.7654 104.984 41.8684 104.904 41.9439C104.825 42.0194 104.72 42.0615 104.611 42.0615C104.501 42.0615 104.396 42.0194 104.317 41.9439C104.237 41.8684 104.19 41.7654 104.185 41.6561L104.184 37.6281ZM106.284 39.6001C106.893 39.6001 107.284 39.2811 107.284 38.7901V38.7771C107.284 38.2581 106.91 37.9771 106.284 37.9771H105.045V39.6041L106.284 39.6001Z" fill="#6E838F"/>
<path d="M111.883 37.5999C111.883 37.5436 111.893 37.4877 111.915 37.4355C111.936 37.3833 111.968 37.3359 112.007 37.296C112.047 37.2561 112.095 37.2245 112.147 37.203C112.199 37.1816 112.255 37.1706 112.311 37.1709H112.402C112.482 37.1702 112.561 37.191 112.63 37.2311C112.699 37.2712 112.757 37.3292 112.796 37.3989L114.263 39.6989L115.737 37.3989C115.775 37.33 115.832 37.2729 115.9 37.234C115.968 37.195 116.046 37.1756 116.125 37.1779H116.215C116.271 37.1776 116.327 37.1886 116.379 37.21C116.432 37.2315 116.479 37.2631 116.519 37.303C116.559 37.3429 116.59 37.3903 116.612 37.4424C116.633 37.4946 116.644 37.5505 116.644 37.6069V41.6629C116.644 41.719 116.633 41.7745 116.612 41.8262C116.59 41.8779 116.558 41.9248 116.518 41.9641C116.478 42.0034 116.431 42.0344 116.379 42.0551C116.327 42.0758 116.271 42.086 116.215 42.0849C116.104 42.0831 115.997 42.0381 115.919 41.9593C115.84 41.8806 115.795 41.7743 115.793 41.6629V38.7489L114.609 40.5279C114.575 40.5934 114.524 40.6484 114.462 40.6868C114.399 40.7252 114.327 40.7455 114.253 40.7455C114.179 40.7455 114.107 40.7252 114.044 40.6868C113.982 40.6484 113.931 40.5934 113.897 40.5279L112.721 38.7629V41.6629C112.721 41.718 112.71 41.7727 112.689 41.8235C112.668 41.8744 112.637 41.9205 112.597 41.9592C112.558 41.9978 112.511 42.0282 112.46 42.0486C112.409 42.069 112.354 42.079 112.299 42.0779C112.244 42.079 112.19 42.069 112.139 42.0485C112.088 42.0281 112.042 41.9975 112.003 41.9588C111.964 41.92 111.934 41.8738 111.913 41.823C111.893 41.7722 111.883 41.7177 111.884 41.6629L111.883 37.5999Z" fill="#6E838F"/>
<path d="M117.984 39.6341V39.6211C117.982 38.9493 118.247 38.3043 118.721 37.8279C119.195 37.3516 119.838 37.0829 120.51 37.0811C121.182 37.0792 121.827 37.3443 122.303 37.818C122.78 38.2917 123.048 38.9353 123.05 39.6071V39.6211C123.052 40.2929 122.787 40.9378 122.313 41.4141C121.839 41.8903 121.195 42.1588 120.524 42.1606C119.852 42.1623 119.207 41.8971 118.731 41.4233C118.254 40.9495 117.986 40.3059 117.984 39.6341ZM122.157 39.6341V39.6211C122.166 39.3987 122.13 39.1768 122.051 38.9686C121.973 38.7603 121.853 38.5701 121.699 38.409C121.546 38.248 121.361 38.1195 121.157 38.0312C120.953 37.9429 120.733 37.8966 120.51 37.8951C120.289 37.8953 120.07 37.9402 119.867 38.0272C119.664 38.1141 119.481 38.2413 119.328 38.4011C119.175 38.5609 119.056 38.75 118.979 38.9569C118.901 39.1638 118.866 39.3843 118.876 39.6051V39.6191C118.868 39.8408 118.904 40.062 118.983 40.2694C119.062 40.4769 119.182 40.6663 119.336 40.8264C119.489 40.9865 119.674 41.1141 119.878 41.2015C120.082 41.2888 120.301 41.3343 120.523 41.3351C120.743 41.3357 120.962 41.2916 121.164 41.2055C121.367 41.1195 121.551 40.9932 121.703 40.8343C121.856 40.6754 121.975 40.4873 122.053 40.2811C122.131 40.075 122.166 39.8542 122.157 39.6341Z" fill="#6E838F"/>
<path d="M124.39 37.5999C124.39 37.5435 124.4 37.4877 124.422 37.4355C124.443 37.3833 124.475 37.3359 124.514 37.296C124.554 37.2561 124.602 37.2245 124.654 37.203C124.706 37.1816 124.762 37.1706 124.818 37.1709H124.909C124.998 37.1725 125.085 37.1961 125.162 37.2396C125.239 37.283 125.305 37.345 125.352 37.4199L127.775 40.5549V37.5789C127.78 37.4715 127.827 37.3701 127.905 37.2959C127.982 37.2217 128.086 37.1804 128.194 37.1804C128.301 37.1804 128.405 37.2217 128.482 37.2959C128.56 37.3701 128.607 37.4715 128.612 37.5789V41.6449C128.613 41.7001 128.603 41.755 128.583 41.8063C128.562 41.8576 128.532 41.9042 128.493 41.9435C128.454 41.9829 128.408 42.014 128.357 42.0352C128.306 42.0564 128.251 42.0672 128.196 42.0669H128.161C128.072 42.0645 127.984 42.0398 127.907 41.9951C127.83 41.9504 127.765 41.8871 127.718 41.8109L125.231 38.5889V41.6619C125.226 41.7694 125.179 41.8707 125.101 41.9449C125.024 42.0191 124.92 42.0604 124.813 42.0604C124.705 42.0604 124.601 42.0191 124.524 41.9449C124.446 41.8707 124.399 41.7694 124.394 41.6619L124.39 37.5999Z" fill="#6E838F"/>
<path d="M130.165 41.61V37.628C130.164 37.5714 130.174 37.5152 130.195 37.4627C130.216 37.4102 130.248 37.3624 130.288 37.3223C130.328 37.2822 130.375 37.2505 130.428 37.2292C130.48 37.2078 130.536 37.1972 130.593 37.198H133.41C133.511 37.1991 133.607 37.2396 133.678 37.3108C133.749 37.382 133.79 37.4783 133.791 37.579C133.791 37.6291 133.781 37.6787 133.762 37.725C133.743 37.7713 133.715 37.8133 133.68 37.8487C133.644 37.8842 133.602 37.9122 133.556 37.9313C133.51 37.9504 133.46 37.9602 133.41 37.96H131.017V39.219H133.1C133.202 39.2204 133.299 39.2619 133.37 39.3346C133.441 39.4073 133.481 39.5053 133.48 39.607C133.479 39.7069 133.438 39.8024 133.367 39.8724C133.296 39.9425 133.2 39.9816 133.1 39.981H131.017V41.281H133.446C133.547 41.2821 133.643 41.3226 133.714 41.3938C133.785 41.465 133.826 41.5613 133.827 41.662C133.827 41.712 133.817 41.7615 133.798 41.8077C133.779 41.8539 133.751 41.8958 133.715 41.9311C133.68 41.9664 133.638 41.9944 133.592 42.0134C133.546 42.0324 133.496 42.0422 133.446 42.042H130.594C130.537 42.0429 130.481 42.0323 130.429 42.011C130.377 41.9897 130.329 41.9581 130.289 41.9181C130.249 41.8781 130.218 41.8305 130.197 41.7781C130.175 41.7257 130.165 41.6696 130.166 41.613" fill="#6E838F"/>
<path d="M136.475 40.1609L134.806 37.8699C134.743 37.7824 134.708 37.6777 134.706 37.5699C134.707 37.5148 134.718 37.4604 134.74 37.4098C134.762 37.3593 134.794 37.3137 134.834 37.2757C134.874 37.2377 134.921 37.208 134.973 37.1885C135.024 37.1689 135.079 37.1599 135.134 37.1619C135.22 37.1646 135.303 37.1895 135.376 37.2342C135.449 37.2789 135.509 37.3419 135.55 37.4169L136.899 39.3619L138.27 37.4099C138.31 37.3357 138.369 37.2732 138.44 37.2283C138.512 37.1834 138.594 37.1578 138.678 37.1539C138.733 37.1516 138.788 37.1609 138.84 37.181C138.891 37.2011 138.938 37.2316 138.977 37.2707C139.016 37.3098 139.047 37.3566 139.067 37.4081C139.087 37.4596 139.096 37.5147 139.094 37.5699C139.087 37.6799 139.046 37.7849 138.976 37.8699L137.322 40.1329V41.6519C137.317 41.7612 137.27 41.8642 137.19 41.9397C137.111 42.0152 137.006 42.0573 136.896 42.0573C136.787 42.0573 136.682 42.0152 136.603 41.9397C136.523 41.8642 136.476 41.7612 136.471 41.6519L136.475 40.1609Z" fill="#6E838F"/>
</g>
</svg>
