<svg width="27" height="16" viewBox="0 0 27 16" fill="none" xmlns="http://www.w3.org/2000/svg">
<path fill-rule="evenodd" clip-rule="evenodd" d="M24.7621 4.57452C24.6852 4.57126 24.6015 4.57127 24.5148 4.57129L24.493 4.5713H21.089C18.2831 4.5713 15.8823 6.05936 15.8823 7.99986C15.8823 9.94034 18.2831 11.4284 21.089 11.4284H24.493H24.5148C24.6015 11.4284 24.6852 11.4285 24.7621 11.4252C25.9019 11.3767 26.9097 10.7758 26.9945 9.9365C27.0001 9.88146 27 9.82212 27 9.76718V9.75227V6.24749V6.23257C27 6.17758 27.0001 6.11825 26.9945 6.06322C26.9097 5.22392 25.9019 4.62301 24.7621 4.57452ZM20.7872 8.91451C21.5095 8.91451 22.095 8.50518 22.095 8.00022C22.095 7.49526 21.5095 7.08594 20.7872 7.08594C20.0648 7.08594 19.4791 7.49526 19.4791 8.00022C19.4791 8.50518 20.0648 8.91451 20.7872 8.91451Z" fill="#D1DCE2"/>
<path fill-rule="evenodd" clip-rule="evenodd" d="M23.5376 12.8C23.7231 12.7964 23.8636 12.9227 23.8132 13.054C23.5635 13.7053 23.167 14.2606 22.5309 14.728C21.5998 15.4122 20.419 15.7158 18.9603 15.86C17.5429 16 15.7319 16 13.4453 16H10.8166C8.53001 16 6.7189 16 5.3015 15.86C3.84278 15.7158 2.6621 15.4122 1.73098 14.728C0.79987 14.0438 0.386647 13.1761 0.190537 12.1042C-3.67542e-05 11.0627 -2.43201e-05 9.73184 5.63843e-07 8.05157V7.94843C-2.43201e-05 6.26819 -3.67542e-05 4.93732 0.190537 3.89575C0.386647 2.82383 0.79987 1.95622 1.73098 1.27199C2.6621 0.587776 3.84278 0.284124 5.3015 0.140014C6.7189 -2.70094e-05 8.52999 -1.78714e-05 10.8166 4.14335e-07H13.4453C15.7319 -1.78714e-05 17.5429 -2.70094e-05 18.9603 0.140014C20.419 0.284124 21.5998 0.587776 22.5309 1.27199C23.167 1.73945 23.5634 2.29462 23.8132 2.94599C23.8636 3.07726 23.7231 3.20354 23.5376 3.2L20.3974 3.20001C16.8681 3.20001 13.7572 5.24883 13.7572 8C13.7572 10.7512 16.8681 12.8 20.3974 12.8H23.5376ZM6.22093 11.4286C5.70557 11.4286 5.28778 11.1216 5.28778 10.7429V5.25714C5.28778 4.87844 5.70557 4.57143 6.22093 4.57143C6.73629 4.57143 7.15408 4.87844 7.15408 5.25714V10.7429C7.15408 11.1216 6.73629 11.4286 6.22093 11.4286Z" fill="#D1DCE2"/>
</svg>
